Davasa.glyphspackage
{
glyphname = exclam;
layers = (
{
layerId = m001;
shapes = (
{
closed = 1;
nodes = (
(156,128,l),
(156,642,l),
(44,642,l),
(44,128,l)
);
},
{
closed = 1;
nodes = (
(43,65,l),
(156,65,l),
(156,-2,l),
(43,-2,l)
);
}
);
width = 204;
}
);
unicode = 33;
}
{
glyphname = percent;
layers = (
{
layerId = m001;
shapes = (
{
closed = 1;
nodes = (
(15,650,ls),
(15,677,o),
(26,690,o),
(47,690,cs),
(170,690,ls),
(191,690,o),
(202,677,o),
(202,650,cs),
(202,498,ls),
(202,477,o),
(187,458,o),
(168,458,cs),
(54,458,ls),
(28,458,o),
(15,471,o),
(15,498,cs)
);
},
{
closed = 1;
nodes = (
(86,520,o),
(91,514,o),
(102,514,cs),
(114,514,ls),
(124,514,o),
(129,520,o),
(129,532,cs),
(129,618,ls),
(129,630,o),
(124,636,o),
(113,636,cs),
(102,636,ls),
(91,636,o),
(86,630,o),
(86,618,cs),
(86,532,ls)
);
},
{
closed = 1;
nodes = (
(277,694,l),
(382,694,l),
(157,-7,l),
(56,-7,l)
);
},
{
closed = 1;
nodes = (
(234,185,ls),
(234,212,o),
(246,225,o),
(269,225,cs),
(406,225,ls),
(430,225,o),
(442,212,o),
(442,185,cs),
(442,33,ls),
(442,12,o),
(425,-7,o),
(404,-7,cs),
(277,-7,ls),
(248,-7,o),
(234,6,o),
(234,33,cs)
);
},
{
closed = 1;
nodes = (
(313,55,o),
(319,49,o),
(330,49,cs),
(344,49,ls),
(355,49,o),
(361,55,o),
(361,67,cs),
(361,153,ls),
(361,165,o),
(355,171,o),
(343,171,cs),
(330,171,ls),
(319,171,o),
(313,165,o),
(313,153,cs),
(313,67,ls)
);
}
);
width = 471;
}
);
unicode = 37;
}
{
glyphname = parenleft;
layers = (
{
layerId = m001;
shapes = (
{
closed = 1;
nodes = (
(30,525,ls),
(30,569,o),
(59,606,o),
(95,606,cs),
(202,606,l),
(202,541,l),
(178,541,ls),
(161,541,o),
(152,532,o),
(152,515,cs),
(152,10,ls),
(152,-5,o),
(160,-13,o),
(177,-13,cs),
(202,-13,l),
(202,-78,l),
(99,-78,ls),
(58,-78,o),
(30,-50,o),
(30,-11,cs)
);
}
);
width = 227;
}
);
unicode = 40;
}
{
glyphname = parenright;
layers = (
{
layerId = m001;
shapes = (
{
closed = 1;
nodes = (
(22,-78,l),
(125,-78,ls),
(166,-78,o),
(194,-50,o),
(194,-11,cs),
(194,525,ls),
(194,569,o),
(165,606,o),
(129,606,cs),
(22,606,l),
(22,541,l),
(46,541,ls),
(63,541,o),
(72,532,o),
(72,515,cs),
(72,10,ls),
(72,-5,o),
(64,-13,o),
(47,-13,cs),
(22,-13,l)
);
}
);
width = 229;
}
);
unicode = 41;
}
{
glyphname = asterisk;
layers = (
{
layerId = m001;
shapes = (
{
closed = 1;
nodes = (
(226,484,l),
(295,445,l),
(231,322,l),
(151,368,l)
);
},
{
closed = 1;
nodes = (
(368,484,l),
(443,368,l),
(363,322,l),
(299,445,l)
);
},
{
closed = 1;
nodes = (
(363,732,l),
(443,686,l),
(368,570,l),
(299,609,l)
);
},
{
closed = 1;
nodes = (
(372,566,l),
(510,572,l),
(510,482,l),
(372,488,l)
);
},
{
closed = 1;
nodes = (
(84,572,l),
(222,566,l),
(222,488,l),
(84,482,l)
);
},
{
closed = 1;
nodes = (
(231,732,l),
(295,609,l),
(226,570,l),
(151,686,l)
);
}
);
width = 585;
}
);
unicode = 42;
}
{
glyphname = plus;
layers = (
{
layerId = m001;
shapes = (
{
closed = 1;
nodes = (
(63,400,l),
(212,400,l),
(212,580,l),
(369,580,l),
(369,400,l),
(523,400,l),
(523,283,l),
(369,283,l),
(369,95,l),
(212,95,l),
(212,283,l),
(63,283,l)
);
}
);
width = 604;
}
);
unicode = 43;
}
{
glyphname = comma;
layers = (
{
layerId = m001;
shapes = (
{
closed = 1;
nodes = (
(62,-1,l),
(26,0,l),
(26,93,l),
(159,93,l),
(159,1,l),
(93,-104,l),
(15,-104,l)
);
}
);
width = 189;
}
);
unicode = 44;
}
{
glyphname = hyphen;
layers = (
{
layerId = m001;
shapes = (
{
closed = 1;
nodes = (
(71,281,l),
(290,281,l),
(290,193,l),
(71,193,l)
);
}
);
width = 370;
}
);
unicode = 45;
}
{
glyphname = period;
layers = (
{
layerId = m001;
shapes = (
{
closed = 1;
nodes = (
(30,131,l),
(211,131,l),
(211,0,l),
(30,0,l)
);
}
);
width = 256;
}
);
unicode = 46;
}
{
glyphname = slash;
layers = (
{
layerId = m001;
shapes = (
{
closed = 1;
nodes = (
(180,667,l),
(285,667,l),
(141,-7,l),
(40,-7,l)
);
}
);
width = 332;
}
);
unicode = 47;
}
{
glyphname = zero;
layers = (
{
layerId = m001;
shapes = (
{
closed = 1;
nodes = (
(186,98,o),
(195,88,o),
(210,88,cs),
(240,88,ls),
(254,88,o),
(261,98,o),
(261,117,cs),
(261,763,ls),
(261,784,o),
(252,793,o),
(231,793,cs),
(216,793,ls),
(196,793,o),
(186,784,o),
(186,763,cs),
(186,117,ls)
);
},
{
closed = 1;
nodes = (
(20,782,ls),
(20,830,o),
(60,882,o),
(109,882,cs),
(342,882,ls),
(400,882,o),
(429,844,o),
(429,767,cs),
(429,127,ls),
(429,41,o),
(401,-1,o),
(347,-1,cs),
(117,-1,ls),
(63,-1,o),
(20,50,o),
(20,121,cs)
);
}
);
width = 461;
}
);
unicode = 48;
}
{
glyphname = one;
layers = (
{
layerId = m001;
shapes = (
{
closed = 1;
nodes = (
(66,576,l),
(66,0,l),
(189,0,l),
(189,646,l),
(33,646,l),
(33,576,l)
);
}
);
width = 256;
}
);
unicode = 49;
}
{
glyphname = two;
layers = (
{
layerId = m001;
shapes = (
{
closed = 1;
nodes = (
(15,106,ls),
(15,133,o),
(24,157,o),
(43,178,cs),
(140,284,ls),
(167,314,o),
(181,338,o),
(181,357,cs),
(181,560,ls),
(181,575,o),
(175,583,o),
(164,583,cs),
(155,583,ls),
(143,583,o),
(137,576,o),
(137,562,cs),
(137,391,l),
(15,391,l),
(15,579,ls),
(15,616,o),
(40,648,o),
(77,648,cs),
(243,648,ls),
(284,648,o),
(304,627,o),
(304,584,cs),
(304,347,ls),
(304,310,o),
(289,275,o),
(258,242,cs),
(171,148,ls),
(151,127,o),
(141,110,o),
(141,99,cs),
(141,65,l),
(306,65,l),
(306,-1,l),
(15,-1,l)
);
}
);
width = 329;
}
);
unicode = 50;
}
{
glyphname = three;
layers = (
{
layerId = m001;
shapes = (
{
closed = 1;
nodes = (
(15,32,o),
(40,0,o),
(77,0,cs),
(243,0,ls),
(284,0,o),
(304,21,o),
(304,64,cs),
(304,259,ls),
(304,304,o),
(290,334,o),
(262,350,c),
(290,369,o),
(304,398,o),
(304,437,cs),
(304,584,ls),
(304,627,o),
(284,648,o),
(243,648,cs),
(77,648,ls),
(40,648,o),
(15,616,o),
(15,579,cs),
(15,437,l),
(137,437,l),
(137,562,ls),
(137,576,o),
(143,583,o),
(155,583,cs),
(164,583,ls),
(175,583,o),
(181,575,o),
(181,560,cs),
(181,420,ls),
(181,389,o),
(168,373,o),
(142,373,cs),
(68,373,l),
(68,306,l),
(142,306,ls),
(167,306,o),
(181,274,o),
(181,239,cs),
(181,88,ls),
(181,73,o),
(175,65,o),
(164,65,cs),
(155,65,ls),
(143,65,o),
(137,72,o),
(137,86,cs),
(137,229,l),
(15,229,l),
(15,69,ls)
);
}
);
width = 329;
}
);
unicode = 51;
}
{
glyphname = four;
layers = (
{
layerId = m001;
shapes = (
{
closed = 1;
nodes = (
(176,173,l),
(176,512,l),
(89,173,l)
);
},
{
closed = 1;
nodes = (
(15,213,l),
(137,648,l),
(294,648,l),
(294,174,l),
(327,174,l),
(327,97,l),
(296,97,l),
(296,-1,l),
(179,-1,l),
(179,97,l),
(15,97,l)
);
}
);
width = 349;
}
);
unicode = 52;
}
{
glyphname = five;
layers = (
{
layerId = m001;
shapes = (
{
closed = 1;
nodes = (
(15,269,l),
(137,269,l),
(137,86,ls),
(137,72,o),
(143,65,o),
(155,65,cs),
(164,65,ls),
(175,65,o),
(181,73,o),
(181,88,cs),
(181,356,ls),
(181,387,o),
(168,402,o),
(143,402,cs),
(15,402,l),
(15,649,l),
(306,649,l),
(306,583,l),
(141,583,l),
(141,467,l),
(232,467,ls),
(275,467,o),
(304,431,o),
(304,379,cs),
(304,64,ls),
(304,21,o),
(284,0,o),
(243,0,cs),
(77,0,ls),
(40,0,o),
(15,32,o),
(15,69,cs)
);
}
);
width = 329;
}
);
unicode = 53;
}
{
glyphname = six;
layers = (
{
layerId = m001;
shapes = (
{
closed = 1;
nodes = (
(186,98,o),
(195,88,o),
(211,88,cs),
(223,88,ls),
(238,88,o),
(246,99,o),
(246,120,cs),
(246,486,ls),
(246,527,o),
(240,547,o),
(226,547,cs),
(186,547,l),
(186,117,ls)
);
},
{
closed = 1;
nodes = (
(20,795,ls),
(20,853,o),
(48,883,o),
(102,883,cs),
(412,883,l),
(412,793,l),
(212,793,ls),
(195,793,o),
(186,785,o),
(186,769,cs),
(186,635,l),
(316,635,ls),
(374,635,o),
(414,587,o),
(414,516,cs),
(414,87,ls),
(414,29,o),
(386,0,o),
(331,0,cs),
(105,0,ls),
(54,0,o),
(20,44,o),
(20,94,cs)
);
}
);
width = 447;
}
);
unicode = 54;
}
{
glyphname = seven;
layers = (
{
layerId = m001;
shapes = (
{
closed = 1;
nodes = (
(20,880,l),
(404,880,l),
(404,788,l),
(231,-1,l),
(68,-1,l),
(230,791,l),
(20,791,l)
);
}
);
width = 440;
}
);
unicode = 55;
}
{
glyphname = eight;
layers = (
{
layerId = m001;
shapes = (
{
closed = 1;
nodes = (
(15,32,o),
(40,0,o),
(77,0,cs),
(243,0,ls),
(284,0,o),
(304,21,o),
(304,64,cs),
(304,259,ls),
(304,306,o),
(290,337,o),
(262,350,c),
(290,365,o),
(304,394,o),
(304,437,cs),
(304,584,ls),
(304,627,o),
(284,648,o),
(243,648,cs),
(77,648,ls),
(40,648,o),
(15,616,o),
(15,579,cs),
(15,433,ls),
(15,383,o),
(29,354,o),
(58,346,c),
(29,332,o),
(15,301,o),
(15,253,cs),
(15,69,ls)
);
},
{
closed = 1;
nodes = (
(137,239,ls),
(137,280,o),
(142,300,o),
(152,300,cs),
(163,300,ls),
(175,300,o),
(181,280,o),
(181,239,cs),
(181,88,ls),
(181,73,o),
(175,65,o),
(164,65,cs),
(155,65,ls),
(143,65,o),
(137,72,o),
(137,86,cs)
);
},
{
closed = 1;
nodes = (
(137,562,ls),
(137,576,o),
(143,583,o),
(155,583,cs),
(164,583,ls),
(175,583,o),
(181,575,o),
(181,560,cs),
(181,416,ls),
(181,385,o),
(176,369,o),
(167,369,cs),
(153,369,ls),
(142,369,o),
(137,385,o),
(137,416,cs)
);
}
);
width = 327;
}
);
unicode = 56;
}
{
glyphname = nine;
layers = (
{
layerId = m001;
shapes = (
{
closed = 1;
nodes = (
(20,88,l),
(222,88,ls),
(240,88,o),
(248,97,o),
(248,113,cs),
(248,246,l),
(118,246,ls),
(60,246,o),
(20,295,o),
(20,366,cs),
(20,795,ls),
(20,853,o),
(48,882,o),
(103,882,cs),
(329,882,ls),
(380,882,o),
(414,838,o),
(414,788,cs),
(414,87,ls),
(414,29,o),
(386,-1,o),
(332,-1,cs),
(20,-1,l)
);
},
{
closed = 1;
nodes = (
(188,355,o),
(195,335,o),
(208,335,cs),
(248,335,l),
(248,765,ls),
(248,784,o),
(240,793,o),
(223,793,cs),
(211,793,ls),
(196,793,o),
(188,782,o),
(188,762,cs),
(188,396,ls)
);
}
);
width = 449;
}
);
unicode = 57;
}
{
glyphname = colon;
layers = (
{
layerId = m001;
shapes = (
{
closed = 1;
nodes = (
(30,279,l),
(211,279,l),
(211,148,l),
(30,148,l)
);
},
{
closed = 1;
nodes = (
(30,570,l),
(211,570,l),
(211,440,l),
(30,440,l)
);
}
);
width = 250;
}
);
unicode = 58;
}
{
glyphname = semicolon;
layers = (
{
layerId = m001;
shapes = (
{
closed = 1;
nodes = (
(26,260,l),
(159,260,l),
(159,164,l),
(26,164,l)
);
},
{
closed = 1;
nodes = (
(62,-1,l),
(26,0,l),
(26,93,l),
(159,93,l),
(159,1,l),
(93,-104,l),
(15,-104,l)
);
}
);
width = 190;
}
);
unicode = 59;
}
{
glyphname = equal;
layers = (
{
layerId = m001;
shapes = (
{
closed = 1;
nodes = (
(50,217,l),
(319,217,l),
(319,128,l),
(50,128,l)
);
},
{
closed = 1;
nodes = (
(50,372,l),
(320,372,l),
(320,283,l),
(50,283,l)
);
}
);
width = 385;
}
);
unicode = 61;
}
{
glyphname = question;
layers = (
{
layerId = m001;
shapes = (
{
closed = 1;
nodes = (
(15,579,ls),
(15,616,o),
(40,648,o),
(77,648,cs),
(243,648,ls),
(284,648,o),
(304,627,o),
(304,584,cs),
(304,375,ls),
(304,338,o),
(290,306,o),
(263,279,cs),
(219,236,ls),
(202,219,o),
(193,200,o),
(193,178,cs),
(193,137,l),
(69,137,l),
(69,185,ls),
(69,217,o),
(82,245,o),
(109,268,cs),
(160,312,ls),
(174,324,o),
(181,348,o),
(181,383,cs),
(181,560,ls),
(181,575,o),
(175,583,o),
(164,583,cs),
(155,583,ls),
(143,583,o),
(137,576,o),
(137,562,cs),
(137,391,l),
(15,391,l)
);
},
{
closed = 1;
nodes = (
(70,96,l),
(196,96,l),
(196,0,l),
(70,0,l)
);
}
);
width = 328;
}
);
unicode = 63;
}
{
glyphname = bullet.001;
layers = (
{
layerId = m001;
shapes = (
{
closed = 1;
nodes = (
(136,78,o),
(143,65,o),
(156,65,cs),
(175,65,ls),
(188,65,o),
(194,77,o),
(194,102,cs),
(194,298,ls),
(194,323,o),
(188,336,o),
(177,336,cs),
(158,336,ls),
(143,336,o),
(136,324,o),
(136,299,cs),
(136,104,ls)
);
},
{
closed = 1;
nodes = (
(15,303,ls),
(15,356,o),
(41,396,o),
(89,396,cs),
(238,396,ls),
(288,396,o),
(313,364,o),
(313,300,cs),
(313,96,ls),
(313,31,o),
(289,-1,o),
(241,-1,cs),
(84,0,ls),
(38,0,o),
(15,28,o),
(15,85,cs)
);
}
);
width = 334;
}
);
unicode = 3458;
}
{
glyphname = endash.001;
layers = (
{
layerId = m001;
shapes = (
{
closed = 1;
nodes = (
(34,279,ls),
(34,316,o),
(50,333,o),
(82,333,cs),
(268,333,ls),
(301,333,o),
(317,316,o),
(317,279,cs),
(317,72,ls),
(317,44,o),
(294,18,o),
(265,18,cs),
(93,18,ls),
(53,18,o),
(34,35,o),
(34,72,cs)
);
},
{
closed = 1;
nodes = (
(142,102,o),
(150,94,o),
(165,94,cs),
(184,94,ls),
(199,94,o),
(207,102,o),
(207,118,cs),
(207,235,ls),
(207,252,o),
(199,260,o),
(182,260,cs),
(165,260,ls),
(150,260,o),
(142,252,o),
(142,235,cs),
(142,118,ls)
);
},
{
closed = 1;
nodes = (
(34,657,ls),
(34,694,o),
(50,712,o),
(82,712,cs),
(268,712,ls),
(301,712,o),
(317,694,o),
(317,657,cs),
(317,450,ls),
(317,422,o),
(294,396,o),
(265,396,cs),
(93,396,ls),
(53,396,o),
(34,414,o),
(34,450,cs)
);
},
{
closed = 1;
nodes = (
(142,480,o),
(150,472,o),
(165,472,cs),
(184,472,ls),
(199,472,o),
(207,480,o),
(207,497,cs),
(207,614,ls),
(207,630,o),
(199,638,o),
(182,638,cs),
(165,638,ls),
(150,638,o),
(142,630,o),
(142,614,cs),
(142,497,ls)
);
}
);
width = 355;
}
);
unicode = 3459;
}
{
glyphname = quoteright.001;
layers = (
{
layerId = m001;
shapes = (
{
closed = 1;
nodes = (
(15,309,ls),
(15,350,o),
(41,386,o),
(80,386,cs),
(122,386,l),
(122,446,ls),
(122,459,o),
(113,465,o),
(94,465,cs),
(21,465,l),
(21,530,l),
(165,530,ls),
(209,530,o),
(225,519,o),
(225,475,cs),
(225,319,l),
(162,319,ls),
(146,319,o),
(138,313,o),
(138,302,cs),
(138,91,ls),
(138,74,o),
(150,65,o),
(174,65,cs),
(271,65,l),
(271,474,ls),
(271,498,o),
(295,530,o),
(322,530,cs),
(454,530,l),
(454,465,l),
(414,465,ls),
(400,465,o),
(393,455,o),
(393,434,cs),
(393,65,l),
(457,65,l),
(457,0,l),
(393,0,l),
(393,-134,l),
(271,-134,l),
(271,0,l),
(91,-1,ls),
(40,-1,o),
(15,32,o),
(15,97,cs)
);
}
);
width = 481;
}
);
unicode = 3461;
}
{
glyphname = quotedblleft.001;
layers = (
{
layerId = m001;
shapes = (
{
closed = 1;
nodes = (
(20,420,ls),
(20,476,o),
(56,525,o),
(109,525,cs),
(166,525,l),
(166,607,ls),
(166,625,o),
(154,633,o),
(128,633,cs),
(29,633,l),
(29,721,l),
(225,721,ls),
(284,721,o),
(306,706,o),
(306,646,cs),
(306,434,l),
(220,434,ls),
(199,434,o),
(188,426,o),
(188,411,cs),
(188,124,ls),
(188,101,o),
(204,88,o),
(237,88,cs),
(369,88,l),
(369,645,ls),
(369,678,o),
(401,721,o),
(438,721,cs),
(618,721,l),
(618,633,l),
(563,633,ls),
(544,633,o),
(535,619,o),
(535,591,cs),
(535,88,l),
(622,88,l),
(622,0,l),
(535,0,l),
(535,-182,l),
(369,-182,l),
(369,0,l),
(124,-1,ls),
(54,-1,o),
(20,44,o),
(20,132,cs)
);
},
{
closed = 1;
nodes = (
(807,0,ls),
(860,0,o),
(887,35,o),
(887,106,cs),
(887,627,ls),
(887,690,o),
(864,721,o),
(818,721,cs),
(678,721,l),
(678,633,l),
(699,633,ls),
(716,633,o),
(724,625,o),
(724,607,cs),
(724,128,ls),
(724,102,o),
(714,88,o),
(695,88,cs),
(678,88,l),
(678,0,l)
);
}
);
width = 924;
}
);
unicode = 3462;
}
{
glyphname = quotedblright.001;
layers = (
{
layerId = m001;
shapes = (
{
closed = 1;
nodes = (
(20,420,ls),
(20,476,o),
(56,525,o),
(109,525,cs),
(166,525,l),
(166,607,ls),
(166,625,o),
(154,633,o),
(128,633,cs),
(29,633,l),
(29,721,l),
(225,721,ls),
(284,721,o),
(306,706,o),
(306,646,cs),
(306,434,l),
(220,434,ls),
(199,434,o),
(188,426,o),
(188,411,cs),
(188,124,ls),
(188,101,o),
(204,88,o),
(237,88,cs),
(369,88,l),
(369,645,ls),
(369,678,o),
(401,721,o),
(438,721,cs),
(618,721,l),
(618,633,l),
(563,633,ls),
(544,633,o),
(535,619,o),
(535,591,cs),
(535,88,l),
(622,88,l),
(622,0,l),
(535,0,l),
(535,-182,l),
(369,-182,l),
(369,0,l),
(124,-1,ls),
(54,-1,o),
(20,44,o),
(20,132,cs)
);
},
{
closed = 1;
nodes = (
(664,441,ls),
(664,489,o),
(674,523,o),
(691,540,cs),
(782,633,l),
(665,633,l),
(665,721,l),
(905,721,l),
(905,641,l),
(848,569,ls),
(834,551,o),
(827,516,o),
(827,463,cs),
(827,117,ls),
(827,98,o),
(838,88,o),
(859,88,cs),
(905,88,l),
(905,-1,l),
(739,-1,ls),
(689,-1,o),
(664,24,o),
(664,75,cs)
);
}
);
width = 942;
}
);
unicode = 3463;
}
{
glyphname = quotedblleft.003;
layers = (
{
layerId = m001;
shapes = (
{
closed = 1;
nodes = (
(15,309,ls),
(15,350,o),
(41,386,o),
(80,386,cs),
(122,386,l),
(122,446,ls),
(122,459,o),
(113,465,o),
(94,465,cs),
(21,465,l),
(21,530,l),
(165,530,ls),
(209,530,o),
(225,519,o),
(225,475,cs),
(225,319,l),
(162,319,ls),
(146,319,o),
(138,313,o),
(138,302,cs),
(138,91,ls),
(138,74,o),
(150,65,o),
(174,65,cs),
(271,65,l),
(271,474,ls),
(271,498,o),
(295,530,o),
(322,530,cs),
(454,530,l),
(454,465,l),
(414,465,ls),
(400,465,o),
(393,455,o),
(393,434,cs),
(393,65,l),
(457,65,l),
(457,0,l),
(393,0,l),
(393,-134,l),
(271,-134,l),
(271,0,l),
(91,-1,ls),
(40,-1,o),
(15,32,o),
(15,97,cs)
);
},
{
closed = 1;
nodes = (
(491,216,ls),
(491,251,o),
(498,275,o),
(511,289,cs),
(574,356,l),
(494,356,l),
(494,410,l),
(560,465,l),
(492,465,l),
(492,530,l),
(668,530,l),
(668,471,l),
(608,414,l),
(670,414,l),
(670,366,l),
(626,310,ls),
(616,297,o),
(611,271,o),
(611,232,cs),
(611,86,ls),
(611,72,o),
(619,65,o),
(634,65,cs),
(668,65,l),
(668,-1,l),
(546,-1,ls),
(509,-1,o),
(491,18,o),
(491,55,cs)
);
}
);
width = 694;
}
);
unicode = 3464;
}
{
glyphname = quotedblright.003;
layers = (
{
layerId = m001;
shapes = (
{
closed = 1;
nodes = (
(15,473.535,o),
(29.677,530,o),
(78,530,cs),
(354,530,ls),
(400,530,o),
(423,500,o),
(423,439,cs),
(423,117,ls),
(423,64,o),
(401,36,o),
(357,31,c),
(381,26,o),
(398,-1,o),
(398,-20,cs),
(398,-60,ls),
(398,-93,o),
(369,-118,o),
(336,-118,cs),
(62,-118,l),
(62,-52,l),
(246,-52,ls),
(262,-52,o),
(270,-47,o),
(270,-36,cs),
(270,-24,ls),
(270,-8,o),
(262,0,o),
(246,0,cs),
(57,-1,l),
(57,65,l),
(250,65,ls),
(284,65,o),
(301,82,o),
(301,117,cs),
(301,432,ls),
(301,453,o),
(296,464,o),
(285,464,cs),
(155,464,ls),
(144,464,o),
(138,452,o),
(138,428,cs),
(138,209,ls),
(138,196,o),
(143,189,o),
(153,189,cs),
(160,189,ls),
(167,189,o),
(171,199,o),
(171,220,cs),
(171,425,l),
(264,425,l),
(264,190,ls),
(264,140,o),
(242,115,o),
(198,115,cs),
(80,115,ls),
(41,115,o),
(15,151,o),
(15,192,cs),
(15,444,ls)
);
}
);
width = 445;
}
);
unicode = 3465;
}
{
glyphname = bullet.002;
layers = (
{
layerId = m001;
shapes = (
{
closed = 1;
nodes = (
(20,887,ls),
(20,905,o),
(29,914,o),
(46,914,cs),
(132,914,ls),
(150,914,o),
(159,906,o),
(159,890,cs),
(159,812,ls),
(159,795,o),
(151,787,o),
(135,787,cs),
(45,787,ls),
(29,787,o),
(20,795,o),
(20,812,cs)
);
},
{
closed = 1;
nodes = (
(67,821,o),
(69,818,o),
(76,818,cs),
(102,818,ls),
(109,818,o),
(113,822,o),
(113,829,cs),
(113,876,ls),
(113,883,o),
(110,887,o),
(103,887,cs),
(76,887,ls),
(69,887,o),
(67,885,o),
(67,878,cs),
(67,827,ls)
);
},
{
closed = 1;
nodes = (
(188,103,o),
(215,88,o),
(235,88,cs),
(329,88,ls),
(355,88,o),
(369,101,o),
(369,127,cs),
(369,592,ls),
(369,619,o),
(348,633,o),
(308,633,cs),
(227,633,ls),
(211,633,o),
(188,621,o),
(188,600,cs),
(188,121,ls)
);
},
{
closed = 1;
nodes = (
(20,615,ls),
(20,638,o),
(25,661,o),
(41,676,cs),
(113,749,o),
(190,817,o),
(264,887,c),
(444,887,l),
(286,721,l),
(412,721,ls),
(483,721,o),
(535,682,o),
(535,612,cs),
(535,122,ls),
(535,39,o),
(503,-1,o),
(441,-1,cs),
(124,-1,ls),
(54,-1,o),
(20,44,o),
(20,132,cs)
);
},
{
closed = 1;
nodes = (
(435,825,ls),
(435,842,o),
(444,852,o),
(461,852,cs),
(547,852,ls),
(565,852,o),
(574,844,o),
(574,827,cs),
(574,750,ls),
(574,732,o),
(566,724,o),
(550,724,cs),
(460,724,ls),
(444,724,o),
(435,732,o),
(435,750,cs)
);
},
{
closed = 1;
nodes = (
(482,758,o),
(484,755,o),
(491,755,cs),
(517,755,ls),
(524,755,o),
(528,759,o),
(528,766,cs),
(528,814,ls),
(528,821,o),
(525,825,o),
(518,825,cs),
(491,825,ls),
(484,825,o),
(482,822,o),
(482,815,cs),
(482,765,ls)
);
}
);
width = 602;
}
);
unicode = 3466;
}
{
glyphname = endash.002;
layers = (
{
layerId = m001;
shapes = (
{
closed = 1;
nodes = (
(20,412,ls),
(20,468,o),
(56,517,o),
(109,517,cs),
(316,517,l),
(316,607,ls),
(316,625,o),
(303,633,o),
(278,633,cs),
(83,633,l),
(83,721,l),
(374,721,ls),
(434,721,o),
(456,706,o),
(456,646,cs),
(456,429,l),
(220,429,ls),
(199,429,o),
(188,420,o),
(188,406,cs),
(188,1,ls),
(188,-22,o),
(204,-34,o),
(237,-34,cs),
(456,-34,l),
(456,-124,l),
(124,-124,ls),
(54,-124,o),
(20,-79,o),
(20,10,cs)
);
}
);
width = 488;
}
);
unicode = 3467;
}
{
glyphname = emdash.002;
layers = (
{
layerId = m001;
shapes = (
{
closed = 1;
nodes = (
(20,412,ls),
(20,468,o),
(56,517,o),
(109,517,cs),
(316,517,l),
(316,607,ls),
(316,625,o),
(303,633,o),
(278,633,cs),
(83,633,l),
(83,721,l),
(374,721,ls),
(434,721,o),
(456,706,o),
(456,646,cs),
(456,429,l),
(220,429,ls),
(199,429,o),
(188,420,o),
(188,406,cs),
(188,1,ls),
(188,-22,o),
(204,-34,o),
(237,-34,cs),
(456,-34,l),
(456,-124,l),
(124,-124,ls),
(54,-124,o),
(20,-79,o),
(20,10,cs)
);
},
{
closed = 1;
nodes = (
(921,85,o),
(916,0,o),
(827,0,cs),
(588,0,ls),
(538,0,o),
(501,37,o),
(501,93,cs),
(501,313,l),
(667,313,l),
(667,158,ls),
(667,116,o),
(667,90,o),
(697,90,cs),
(714,90,ls),
(740,90,o),
(753,110,o),
(753,152,cs),
(753,599,ls),
(753,622,o),
(746,633,o),
(732,633,cs),
(717,633,o),
(709,623,o),
(709,604,cs),
(709,499,ls),
(709,441,o),
(689,412,o),
(646,412,cs),
(565,412,ls),
(523,412,o),
(501,448,o),
(501,517,cs),
(501,721,l),
(589,721,l),
(589,550,ls),
(589,527,o),
(596,514,o),
(610,514,cs),
(625,514,o),
(631,527,o),
(631,551,cs),
(631,656,ls),
(631,699,o),
(649,721,o),
(684,721,cs),
(844,721,ls),
(895,721,o),
(921,682,o),
(921,604,cs),
(921,106,ls)
);
}
);
width = 952;
}
);
unicode = 3468;
}
{
glyphname = quoteright.003;
layers = (
{
layerId = m001;
shapes = (
{
closed = 1;
nodes = (
(188,105,o),
(192,88,o),
(211,88,cs),
(227,88,o),
(234,101,o),
(234,125,cs),
(234,318,l),
(357,318,l),
(357,133,ls),
(357,103,o),
(365,88,o),
(382,88,cs),
(397,88,o),
(404,102,o),
(404,128,cs),
(404,406,ls),
(404,440,o),
(395,456,o),
(374,456,cs),
(314,456,l),
(314,650,ls),
(314,698,o),
(342,721,o),
(395,721,cs),
(573,721,l),
(573,633,l),
(483,633,ls),
(465,633,o),
(457,626,o),
(457,614,cs),
(457,538,l),
(491,538,ls),
(546,538,o),
(573,494,o),
(573,408,cs),
(573,131,ls),
(573,43,o),
(541,-1,o),
(478,-1,cs),
(477,-1,o),
(476,-1,o),
(475,-1,cs),
(343,0,ls),
(324,0,o),
(308,14,o),
(293,39,c),
(283,14,o),
(268,0,o),
(250,0,cs),
(113,0,ls),
(52,0,o),
(20,38,o),
(20,116,cs),
(20,415,ls),
(20,476,o),
(54,539,o),
(103,539,cs),
(135,539,l),
(135,614,ls),
(135,626,o),
(127,633,o),
(112,633,cs),
(23,633,l),
(23,721,l),
(204,721,ls),
(252,721,o),
(276,697,o),
(276,649,cs),
(276,457,l),
(222,457,ls),
(199,457,o),
(188,441,o),
(188,407,cs),
(188,124,ls)
);
},
{
closed = 1;
nodes = (
(604,389,ls),
(604,440,o),
(649,490,o),
(705,490,cs),
(819,490,l),
(819,595,ls),
(819,621,o),
(804,633,o),
(776,633,cs),
(618,633,l),
(618,721,l),
(863,721,ls),
(923,721,o),
(974,682,o),
(974,623,cs),
(974,0,l),
(846,0,l),
(833,54,l),
(810,18,o),
(785,0,o),
(757,0,cs),
(691,0,ls),
(633,0,o),
(604,35,o),
(604,106,cs)
);
},
{
closed = 1;
nodes = (
(762,137,o),
(766,112,o),
(776,112,cs),
(788,112,o),
(802,127,o),
(814,158,c),
(814,403,l),
(789,403,ls),
(772,403,o),
(762,392,o),
(762,370,cs),
(762,188,ls)
);
}
);
width = 1009;
}
);
unicode = 3469;
}
{
glyphname = quotedblleft.004;
layers = (
{
layerId = m001;
shapes = (
{
closed = 1;
nodes = (
(188,105,o),
(192,88,o),
(211,88,cs),
(227,88,o),
(234,101,o),
(234,125,cs),
(234,318,l),
(357,318,l),
(357,133,ls),
(357,103,o),
(365,88,o),
(382,88,cs),
(397,88,o),
(404,102,o),
(404,128,cs),
(404,406,ls),
(404,440,o),
(395,456,o),
(374,456,cs),
(314,456,l),
(314,650,ls),
(314,698,o),
(342,721,o),
(395,721,cs),
(573,721,l),
(573,633,l),
(483,633,ls),
(465,633,o),
(457,626,o),
(457,614,cs),
(457,538,l),
(491,538,ls),
(546,538,o),
(573,494,o),
(573,408,cs),
(573,131,ls),
(573,43,o),
(541,-1,o),
(478,-1,cs),
(477,-1,o),
(476,-1,o),
(475,-1,cs),
(343,0,ls),
(324,0,o),
(308,14,o),
(293,39,c),
(283,14,o),
(268,0,o),
(250,0,cs),
(113,0,ls),
(52,0,o),
(20,38,o),
(20,116,cs),
(20,415,ls),
(20,476,o),
(54,539,o),
(103,539,cs),
(135,539,l),
(135,614,ls),
(135,626,o),
(127,633,o),
(112,633,cs),
(23,633,l),
(23,721,l),
(204,721,ls),
(252,721,o),
(276,697,o),
(276,649,cs),
(276,457,l),
(222,457,ls),
(199,457,o),
(188,441,o),
(188,407,cs),
(188,124,ls)
);
},
{
closed = 1;
nodes = (
(604,389,ls),
(604,440,o),
(649,490,o),
(705,490,cs),
(819,490,l),
(819,595,ls),
(819,621,o),
(804,633,o),
(776,633,cs),
(618,633,l),
(618,721,l),
(863,721,ls),
(923,721,o),
(974,682,o),
(974,623,cs),
(974,0,l),
(846,0,l),
(833,54,l),
(810,18,o),
(785,0,o),
(757,0,cs),
(691,0,ls),
(633,0,o),
(604,35,o),
(604,106,cs)
);
},
{
closed = 1;
nodes = (
(762,137,o),
(766,112,o),
(776,112,cs),
(788,112,o),
(802,127,o),
(814,158,c),
(814,403,l),
(789,403,ls),
(772,403,o),
(762,392,o),
(762,370,cs),
(762,188,ls)
);
},
{
closed = 1;
nodes = (
(1008,389,ls),
(1008,440,o),
(1053,490,o),
(1109,490,cs),
(1223,490,l),
(1223,595,ls),
(1223,621,o),
(1208,633,o),
(1180,633,cs),
(1022,633,l),
(1022,721,l),
(1267,721,ls),
(1327,721,o),
(1378,682,o),
(1378,623,cs),
(1378,0,l),
(1251,0,l),
(1237,54,l),
(1214,18,o),
(1189,0,o),
(1161,0,cs),
(1095,0,ls),
(1037,0,o),
(1008,35,o),
(1008,106,cs)
);
},
{
closed = 1;
nodes = (
(1166,137,o),
(1170,112,o),
(1180,112,cs),
(1192,112,o),
(1206,127,o),
(1218,158,c),
(1218,403,l),
(1193,403,ls),
(1176,403,o),
(1166,392,o),
(1166,370,cs),
(1166,188,ls)
);
}
);
width = 1413;
}
);
unicode = 3470;
}
{
glyphname = quotedblleft.005;
layers = (
{
layerId = m001;
shapes = (
{
closed = 1;
nodes = (
(482,357,ls),
(522,357,o),
(542,325,o),
(542,262,cs),
(542,211,l),
(606,211,l),
(606,487,ls),
(606,503,o),
(597,511,o),
(580,511,cs),
(528,511,ls),
(515,511,o),
(509,507,o),
(509,500,cs),
(509,492,l),
(542,492,l),
(542,427,l),
(470,427,ls),
(457,427,o),
(451,422,o),
(451,413,cs),
(451,357,l)
);
},
{
closed = 1;
nodes = (
(660.555,592,o),
(683,559.546,o),
(683,536,cs),
(683,61,ls),
(683,30,o),
(670,14,o),
(644,14,cs),
(531,14,ls),
(526,14,o),
(521,14,o),
(516,15,c),
(504,4,o),
(489,-1,o),
(470,-1,cs),
(232,0,ls),
(215,0,o),
(201,5,o),
(190,15,c),
(185,14,o),
(179,14,o),
(174,14,cs),
(61,14,ls),
(35,14,o),
(22,30,o),
(22,61,cs),
(22,536,ls),
(22,563,o),
(49,592,o),
(88,592,cs),
(208,592,ls),
(249,592,o),
(270,575,o),
(270,541,cs),
(270,492,l),
(286,492,ls),
(321,492,o),
(339,474,o),
(339,439,cs),
(339,297,l),
(309,297,ls),
(294,297,o),
(287,285,o),
(287,260,cs),
(287,104,ls),
(287,78,o),
(296,65,o),
(313,65,cs),
(392,65,ls),
(409,65,o),
(418,77,o),
(418,102,cs),
(418,259,ls),
(418,284,o),
(411,296,o),
(396,296,cs),
(360,296,l),
(360,440,ls),
(360,475,o),
(380,492,o),
(419,492,cs),
(435,492,l),
(435,541,ls),
(435,575,o),
(456,592,o),
(497,592,cs),
(617,592,ls)
);
},
{
closed = 1;
nodes = (
(164,211,l),
(164,265,ls),
(164,327,o),
(184,358,o),
(225,358,cs),
(256,358,l),
(256,413,ls),
(256,422,o),
(250,427,o),
(239,427,cs),
(166,427,l),
(166,492,l),
(196,492,l),
(196,500,ls),
(196,507,o),
(190,511,o),
(177,511,cs),
(125,511,ls),
(108,511,o),
(99,503,o),
(99,487,cs),
(99,211,l)
);
},
{
closed = 1;
nodes = (
(97,98,o),
(100,96,o),
(107,96,cs),
(147,96,ls),
(153,96,o),
(156,98,o),
(156,103,cs),
(156,128,ls),
(156,133,o),
(153,135,o),
(147,135,cs),
(106,135,ls),
(100,135,o),
(97,133,o),
(97,128,cs),
(97,102,ls)
);
},
{
closed = 1;
nodes = (
(549,98,o),
(552,96,o),
(558,96,cs),
(598,96,ls),
(605,96,o),
(608,98,o),
(608,102,cs),
(608,128,ls),
(608,133,o),
(605,135,o),
(599,135,cs),
(558,135,ls),
(552,135,o),
(549,133,o),
(549,128,cs),
(549,103,ls)
);
},
{
closed = 1;
nodes = (
(1022,62.417,o),
(1017.95,0,o),
(953,0,cs),
(777,0,ls),
(740,0,o),
(713,27,o),
(713,68,cs),
(713,230,l),
(835,230,l),
(835,116,ls),
(835,84.879,o),
(835,66,o),
(857,66,cs),
(870,66,ls),
(889,66,o),
(898,81,o),
(898,112,cs),
(898,440,ls),
(898,457,o),
(893,465,o),
(883,465,cs),
(872,465,o),
(866,458,o),
(866,444,cs),
(866,367,ls),
(866,324,o),
(851,303,o),
(820,303,cs),
(760,303,ls),
(729,303,o),
(713,329,o),
(713,380,cs),
(713,530,l),
(778,530,l),
(778,404,ls),
(778,387,o),
(783,378,o),
(793,378,cs),
(804,378,o),
(809,387,o),
(809,405,cs),
(809,482,ls),
(809,514,o),
(822,530,o),
(848,530,cs),
(965,530,ls),
(1003,530,o),
(1022,501,o),
(1022,444,cs),
(1022,78,ls)
);
}
);
width = 1050;
}
);
unicode = 3472;
}
{
glyphname = quotedblright.005;
layers = (
{
layerId = m001;
shapes = (
{
closed = 1;
nodes = (
(2,323,l),
(130,323,l),
(130,363,ls),
(130,376,o),
(121,382,o),
(102,382,cs),
(29,382,l),
(29,451,l),
(173,451,ls),
(217,451,o),
(233,440,o),
(233,396,cs),
(233,249,l),
(170,249,ls),
(154,249,o),
(146,243,o),
(146,232,cs),
(146,91,ls),
(146,74,o),
(158,65,o),
(182,65,cs),
(243,65,ls),
(267,65,o),
(279,75,o),
(279,96,cs),
(279,410,l),
(261,413,l),
(256,415,o),
(252,419,o),
(249,426,cs),
(204,537,ls),
(197,553,o),
(193,567,o),
(192,580,c),
(155,580,l),
(155,646,l),
(311,646,ls),
(363,646,o),
(401,617,o),
(401,566,cs),
(401,90,ls),
(401,29,o),
(378,-1,o),
(332,-1,cs),
(99,-1,ls),
(48,-1,o),
(23,32,o),
(23,97,cs),
(23,196,ls),
(23,221,o),
(33,239,o),
(53,250,c),
(2,250,l)
);
},
{
closed = 1;
nodes = (
(286,466,l),
(286,560,ls),
(286,573,o),
(279,580,o),
(266,580,cs),
(240,580,l)
);
}
);
width = 426;
}
);
unicode = 3473;
}
{
glyphname = bullet.003;
layers = (
{
layerId = m001;
shapes = (
{
closed = 1;
nodes = (
(2,309,l),
(130,309,l),
(130,349,ls),
(130,362,o),
(121,368,o),
(102,368,cs),
(29,368,l),
(29,437,l),
(173,437,ls),
(217,437,o),
(233,426,o),
(233,382,cs),
(233,235,l),
(170,235,ls),
(154,235,o),
(146,229,o),
(146,218,cs),
(146,91,ls),
(146,74,o),
(158,65,o),
(182,65,cs),
(243,65,ls),
(267,65,o),
(279,75,o),
(279,96,cs),
(279,396,l),
(261,399,l),
(256,401,o),
(252,405,o),
(249,412,cs),
(204,514,ls),
(198,528,o),
(194,542,o),
(192,557,c),
(155,557,l),
(155,623,l),
(285,623,l),
(285,709,l),
(401,709,l),
(401,90,ls),
(401,29,o),
(378,-1,o),
(332,-1,cs),
(99,-1,ls),
(48,-1,o),
(23,32,o),
(23,97,cs),
(23,182,ls),
(23,207,o),
(33,225,o),
(53,236,c),
(2,236,l)
);
},
{
closed = 1;
nodes = (
(286,452,l),
(286,537,ls),
(286,550,o),
(279,557,o),
(266,557,cs),
(240,557,l)
);
}
);
width = 428;
}
);
unicode = 3474;
}
{
glyphname = endash.003;
layers = (
{
layerId = m001;
shapes = (
{
closed = 1;
nodes = (
(15,437,ls),
(15,499,o),
(39,530,o),
(88,530,cs),
(314,530,l),
(314,465,l),
(158,465,ls),
(145,465,o),
(138,452,o),
(138,426,cs),
(138,104,ls),
(138,78,o),
(145,65,o),
(160,65,cs),
(177,65,ls),
(190,65,o),
(197,77,o),
(197,102,cs),
(197,297,ls),
(197,314,o),
(191,322,o),
(179,322,cs),
(161,322,l),
(161,396,l),
(261,396,ls),
(301,396,o),
(321,372,o),
(321,325,cs),
(321,96,ls),
(321,31,o),
(297,-1,o),
(249,-1,cs),
(83,0,ls),
(38,0,o),
(15,28,o),
(15,85,cs)
);
},
{
closed = 1;
nodes = (
(345,323,l),
(473,323,l),
(473,363,ls),
(473,376,o),
(464,382,o),
(445,382,cs),
(372,382,l),
(372,451,l),
(516,451,ls),
(560,451,o),
(576,440,o),
(576,396,cs),
(576,249,l),
(513,249,ls),
(497,249,o),
(489,243,o),
(489,232,cs),
(489,91,ls),
(489,74,o),
(501,65,o),
(525,65,cs),
(586,65,ls),
(610,65,o),
(622,75,o),
(622,96,cs),
(622,410,l),
(604,413,l),
(599,415,o),
(595,419,o),
(592,426,cs),
(547,537,ls),
(540,553,o),
(536,567,o),
(535,580,c),
(498,580,l),
(498,646,l),
(654,646,ls),
(706,646,o),
(744,617,o),
(744,566,cs),
(744,90,ls),
(744,29,o),
(721,-1,o),
(675,-1,cs),
(442,-1,ls),
(391,-1,o),
(366,32,o),
(366,97,cs),
(366,196,ls),
(366,221,o),
(376,239,o),
(396,250,c),
(345,250,l)
);
},
{
closed = 1;
nodes = (
(629,466,l),
(629,560,ls),
(629,573,o),
(622,580,o),
(609,580,cs),
(583,580,l)
);
}
);
width = 769;
}
);
unicode = 3475;
}
{
glyphname = quoteright.004;
layers = (
{
layerId = m001;
shapes = (
{
closed = 1;
nodes = (
(20,539,ls),
(20,595,o),
(56,644,o),
(109,644,cs),
(207,644,ls),
(254,644,o),
(279,627,o),
(279,593,cs),
(279,449,ls),
(279,425,o),
(286,412,o),
(298,412,cs),
(308,412,o),
(313,426,o),
(313,455,cs),
(313,635,l),
(363,635,l),
(363,384,ls),
(363,369,o),
(346,352,o),
(329,352,cs),
(261,352,ls),
(240,352,o),
(229,363,o),
(229,385,cs),
(229,523,ls),
(229,555,o),
(188,556,o),
(188,520,cs),
(188,124,ls),
(188,101,o),
(196,88,o),
(211,88,cs),
(226,88,o),
(234,101,o),
(234,125,cs),
(234,272,l),
(357,272,l),
(357,133,ls),
(357,103,o),
(363,88,o),
(377,88,cs),
(392,88,o),
(399,102,o),
(399,131,cs),
(399,663,ls),
(399,690,o),
(380,704,o),
(340,704,cs),
(20,704,l),
(20,799,l),
(101,799,l),
(72,808,o),
(57,823,o),
(57,844,cs),
(57,886,ls),
(57,909,o),
(86,936,o),
(122,936,cs),
(557,936,l),
(557,848,l),
(271,848,ls),
(242,848,o),
(229,840,o),
(229,823,cs),
(229,807,o),
(244,799,o),
(272,799,cs),
(442,799,ls),
(514,799,o),
(565,759,o),
(565,690,cs),
(565,122,ls),
(565,41,o),
(533,0,o),
(471,0,cs),
(343,0,ls),
(324,0,o),
(308,14,o),
(293,39,c),
(283,14,o),
(268,0,o),
(250,0,cs),
(124,0,ls),
(54,0,o),
(20,44,o),
(20,132,cs)
);
}
);
width = 596;
}
);
unicode = 3477;
}
{
glyphname = quotedblleft.006;
layers = (
{
layerId = m001;
shapes = (
{
closed = 1;
nodes = (
(15,448,ls),
(15,489,o),
(41,525,o),
(80,525,cs),
(152,525,ls),
(187,525,o),
(205,513,o),
(205,488,cs),
(205,381,ls),
(205,363,o),
(210,354,o),
(219,354,cs),
(226,354,o),
(230,364,o),
(230,385,cs),
(230,519,l),
(267,519,l),
(267,333,ls),
(267,322,o),
(254,310,o),
(242,310,cs),
(192,310,ls),
(176,310,o),
(168,318,o),
(168,334,cs),
(168,436,ls),
(168,460.151,o),
(138,460.382,o),
(138,434,cs),
(138,91,ls),
(138,74,o),
(144,65,o),
(155,65,cs),
(166,65,o),
(172,74,o),
(172,92,cs),
(172,234,l),
(262,234,l),
(262,98,ls),
(262,76,o),
(267,65,o),
(277,65,cs),
(288,65,o),
(293,75,o),
(293,96,cs),
(293,527,ls),
(293,560,o),
(279,576,o),
(251,576,cs),
(15,576,l),
(15,646,l),
(325,646,ls),
(377,646,o),
(415,617,o),
(415,566,cs),
(415,90,ls),
(415,30,o),
(392,0,o),
(346,0,cs),
(252,0,ls),
(238,0,o),
(226,10,o),
(215,29,c),
(208,10,o),
(197,0,o),
(184,0,cs),
(91,0,ls),
(40,0,o),
(15,32,o),
(15,97,cs)
);
},
{
closed = 1;
nodes = (
(757,62.417,o),
(752.946,0,o),
(688,0,cs),
(512,0,ls),
(475,0,o),
(448,27,o),
(448,68,cs),
(448,230,l),
(570,230,l),
(570,116,ls),
(570,84.879,o),
(570,66,o),
(592,66,cs),
(605,66,ls),
(624,66,o),
(633,81,o),
(633,112,cs),
(633,440,ls),
(633,457,o),
(628,465,o),
(618,465,cs),
(607,465,o),
(601,458,o),
(601,444,cs),
(601,367,ls),
(601,324,o),
(586,303,o),
(555,303,cs),
(495,303,ls),
(464,303,o),
(448,329,o),
(448,380,cs),
(448,530,l),
(513,530,l),
(513,404,ls),
(513,387,o),
(518,378,o),
(528,378,cs),
(539,378,o),
(544,387,o),
(544,405,cs),
(544,482,ls),
(544,514,o),
(557,530,o),
(583,530,cs),
(700,530,ls),
(738,530,o),
(757,501,o),
(757,444,cs),
(757,78,ls)
);
}
);
width = 781;
}
);
unicode = 3478;
}
{
glyphname = quoteright.005;
layers = (
{
layerId = m001;
shapes = (
{
closed = 1;
nodes = (
(135,298,l),
(135,79,ls),
(135,70,o),
(138,65,o),
(144,65,cs),
(151,65,o),
(154,75,o),
(154,94,cs),
(154,262,l),
(234,262,l),
(234,102,ls),
(234,77,o),
(237,65,o),
(243,65,cs),
(250,65,o),
(254,74,o),
(254,93,cs),
(254,385,l),
(112,298,l)
);
},
{
closed = 1;
nodes = (
(10,319,l),
(237,454,l),
(236,461,o),
(227,465,o),
(208,465,cs),
(26,465,l),
(26,530,l),
(287,530,ls),
(314,530,o),
(330,523,o),
(334,510,c),
(362,522,ls),
(375,527,o),
(389,530,o),
(404,530,cs),
(453,530,ls),
(492,530,o),
(511,500,o),
(511,440,cs),
(511,-1,l),
(389,-1,l),
(389,412,ls),
(389,450.857,o),
(383.857,447.918,o),
(370,440,cs),
(357,432,l),
(357,84,ls),
(357,28,o),
(336,0,o),
(295,0,cs),
(226,0,ls),
(211,0,o),
(201,9,o),
(194,26,c),
(185,9,o),
(175,0,o),
(162,0,cs),
(81,0,ls),
(49,0,o),
(19,30,o),
(19,77,cs),
(19,172,ls),
(19,215,o),
(24,241,o),
(35,250,c),
(10,250,l)
);
}
);
width = 535;
}
);
unicode = 3482;
}
{
glyphname = quotedblleft.008;
layers = (
{
layerId = m001;
shapes = (
{
closed = 1;
nodes = (
(373,210,o),
(389,173,o),
(401,173,cs),
(407,173,o),
(410,184,o),
(410,205,cs),
(410,743,ls),
(410,770,o),
(391,784,o),
(351,784,cs),
(20,784,l),
(20,879,l),
(453,879,ls),
(524,879,o),
(576,840,o),
(576,770,cs),
(576,122,ls),
(576,39,o),
(546,-1,o),
(487,-1,cs),
(433,-1,ls),
(380,-1,o),
(366,94,o),
(344,90,c),
(340,45,o),
(327,12,o),
(303,-11,c),
(216,-11,l),
(227,4,o),
(233,38,o),
(233,90,cs),
(233,572,ls),
(233,600,o),
(227,614,o),
(218,614,cs),
(208,614,ls),
(195,614,o),
(188,604,o),
(188,587,cs),
(188,-1,l),
(20,-1,l),
(20,610,ls),
(20,665,o),
(56,714,o),
(109,714,cs),
(256,714,ls),
(316,714,o),
(346,680,o),
(346,612,cs),
(346,205,l),
(350,208,o),
(352,210,o),
(357,210,cs)
);
}
);
width = 610;
}
);
unicode = 3483;
}
{
glyphname = quotedblright.009;
layers = (
{
guides = (
{
pos = (0,650);
}
);
layerId = m001;
shapes = (
{
closed = 1;
nodes = (
(45,445,o),
(19,451,o),
(19,505,cs),
(19,637,ls),
(19,689,o),
(42,714,o),
(87,714,cs),
(280,714,ls),
(340,714,o),
(362,699,o),
(362,640,cs),
(362,363,ls),
(362,321,o),
(342,301,o),
(302,301,cs),
(250,301,ls),
(234,301,o),
(203,279,o),
(203,256,cs),
(203,132,ls),
(203,103,o),
(211,88,o),
(226,88,cs),
(241,88,o),
(249,101,o),
(249,125,cs),
(249,245,l),
(371,245,l),
(371,133,ls),
(371,103,o),
(380,88,o),
(395,88,cs),
(410,88,o),
(416,103,o),
(416,133,cs),
(416,743,ls),
(416,774,o),
(396,791,o),
(355,791,cs),
(35,791,l),
(35,879,l),
(460,879,ls),
(531,879,o),
(582,840,o),
(582,770,cs),
(582,122,ls),
(582,35,o),
(563,0,o),
(508,0,cs),
(361,0,ls),
(337,0,o),
(320,14,o),
(308,39,c),
(295,14,o),
(280,0,o),
(260,0,cs),
(139,0,ls),
(69,0,o),
(35,44,o),
(35,132,cs),
(35,305,ls),
(35,343,o),
(71,382,o),
(124,382,cs),
(191,382,ls),
(211,382,o),
(222,392,o),
(222,410,cs),
(222,445,l),
(88,445,ls)
);
},
{
closed = 1;
nodes = (
(117,518,o),
(128,509,o),
(150,509,cs),
(197,509,ls),
(215,509,o),
(223,516,o),
(223,531,cs),
(223,591,ls),
(223,616,o),
(216,629,o),
(201,629,cs),
(146,629,ls),
(127,629,o),
(117,618,o),
(117,596,cs),
(117,536,ls)
);
}
);
width = 616;
}
);
unicode = 3486;
}
{
glyphname = bullet.005;
layers = (
{
layerId = m001;
shapes = (
{
closed = 1;
nodes = (
(36.953,530,o),
(15,481.395,o),
(15,449,cs),
(15,0,l),
(78,0,l),
(78,433,ls),
(78,449,o),
(91,465,o),
(104,465,cs),
(114,465,l),
(114,82,ls),
(114,27,o),
(134,0,o),
(174,0,cs),
(292,0,ls),
(333,0,o),
(353,28,o),
(353,84,cs),
(353,437,ls),
(353,456,o),
(357,465,o),
(365,465,cs),
(382,465,ls),
(387,465,o),
(390,457,o),
(390,440,cs),
(390,0,l),
(512,0,l),
(512,456,ls),
(512,505,o),
(489,530,o),
(443,530,cs),
(336,530,ls),
(291,530,o),
(268,500,o),
(268,439,cs),
(268,95,ls),
(268,75,o),
(264,65,o),
(255,65,cs),
(248,65,ls),
(239,65,o),
(235,74,o),
(235,91,cs),
(235,530,l),
(88,530,ls)
);
}
);
width = 535;
}
);
unicode = 3487;
}
{
glyphname = endash.005;
layers = (
{
layerId = m001;
shapes = (
{
closed = 1;
nodes = (
(1,517,l),
(166,517,l),
(166,600,ls),
(166,618,o),
(154,626,o),
(128,626,cs),
(29,626,l),
(29,714,l),
(225,714,ls),
(284,714,o),
(306,699,o),
(306,640,cs),
(306,429,l),
(235,429,ls),
(219,429,o),
(188,407,o),
(188,384,cs),
(188,132,ls),
(188,103,o),
(204,88,o),
(235,88,cs),
(318,88,ls),
(352,88,o),
(369,103,o),
(369,133,cs),
(369,743,ls),
(369,774,o),
(348,791,o),
(308,791,cs),
(20,791,l),
(20,879,l),
(412,879,ls),
(483,879,o),
(535,840,o),
(535,770,cs),
(535,122,ls),
(535,39,o),
(503,-1,o),
(441,-1,cs),
(124,-1,ls),
(54,-1,o),
(20,44,o),
(20,132,cs),
(20,352,ls),
(20,384,o),
(33,410,o),
(59,430,c),
(1,430,l)
);
}
);
width = 565;
}
);
unicode = 3488;
}
{
glyphname = quotedblright.010;
layers = (
{
layerId = m001;
shapes = (
{
closed = 1;
nodes = (
(309,406,l),
(309,108,ls),
(309,95,o),
(313,88,o),
(321,88,cs),
(331,88,o),
(335,102,o),
(335,128,cs),
(335,357,l),
(444,357,l),
(444,139,ls),
(444,105,o),
(448,88,o),
(456,88,cs),
(465,88,o),
(471,101,o),
(471,127,cs),
(471,524,l),
(278,406,l)
);
},
{
closed = 1;
nodes = (
(20,621,o),
(50,687,o),
(120,687,cs),
(148,687,l),
(150,710,o),
(167,721,o),
(203,721,cs),
(516,721,ls),
(552,721,o),
(574,712,o),
(580,694,c),
(618,710,ls),
(635,717,o),
(652,721,o),
(670,721,cs),
(916,721,ls),
(976,721,o),
(997,706,o),
(997,646,cs),
(997,427,l),
(842,427,ls),
(818,427,o),
(806,416,o),
(806,396,cs),
(806,127,ls),
(806,101,o),
(822,88,o),
(855,88,cs),
(997,88,l),
(997,0,l),
(932,0,ls),
(913,0,o),
(904,-11,o),
(904,-33,cs),
(904,-87,ls),
(904,-108,o),
(913,-117,o),
(934,-117,cs),
(1008,-117,l),
(1008,-205,l),
(821,-205,ls),
(765,-205,o),
(736,-180,o),
(736,-128,cs),
(736,-41,ls),
(736,-20,o),
(744,-7,o),
(761,0,c),
(733,0,ls),
(670,0,o),
(638,44,o),
(638,132,cs),
(638,414,ls),
(638,469,o),
(674,518,o),
(727,518,cs),
(857,518,l),
(857,607,ls),
(857,625,o),
(845,633,o),
(819,633,cs),
(733,633,ls),
(705,633,o),
(684,629,o),
(672,622,cs),
(611,588,l),
(611,114,ls),
(611,38,o),
(582,0,o),
(527,0,cs),
(433,0,ls),
(412,0,o),
(399,12,o),
(389,35,c),
(377,12,o),
(363,0,o),
(346,0,cs),
(235,0,ls),
(192,0,o),
(151,41,o),
(151,105,cs),
(151,234,ls),
(151,293,o),
(158,328,o),
(173,340,c),
(139,340,l),
(139,434,l),
(448,618,l),
(446,627,o),
(434,633,o),
(408,633,cs),
(317,633,ls),
(298,633,o),
(287,622,o),
(284,599,c),
(142,599,ls),
(124,599,o),
(106,577,o),
(106,555,cs),
(106,0,l),
(20,0,l),
(20,577,ls)
);
}
);
width = 1029;
}
);
unicode = 3492;
}
{
glyphname = quotedblright.011;
layers = (
{
layerId = m001;
shapes = (
{
closed = 1;
nodes = (
(319,529.594,o),
(362.319,530,o),
(363,530,cs),
(369,530,l),
(442,652,l),
(531,652,l),
(453,530,l),
(501,530,l),
(501,465,l),
(429,465,ls),
(416,465,o),
(410,460,o),
(410,451,cs),
(410,395,l),
(441,395,ls),
(481,395,o),
(501,363,o),
(501,300,cs),
(501,96,ls),
(501,31,o),
(477,-1,o),
(429,-1,cs),
(191,0,ls),
(146,0,o),
(123,28,o),
(123,85,cs),
(123,303,ls),
(123,365,o),
(143,396,o),
(184,396,cs),
(215,396,l),
(215,451,ls),
(215,460,o),
(209,465,o),
(198,465,cs),
(104,465,l),
(87,462,o),
(78,444,o),
(78,428,cs),
(78,0,l),
(15,0,l),
(15,444,ls),
(15,476.97,o),
(38.095,530,o),
(88,530,cs),
(245,530,o),
(245,530,o),
(245,530,cs),
(280,530,o),
(298,512,o),
(298,477,cs),
(298,335,l),
(268,335,ls),
(253,335,o),
(246,323,o),
(246,298,cs),
(246,104,ls),
(246,78,o),
(255,65,o),
(272,65,cs),
(351,65,ls),
(368,65,o),
(377,77,o),
(377,102,cs),
(377,297,ls),
(377,322,o),
(370,334,o),
(355,334,cs),
(319,334,l),
(319,478,ls)
);
}
);
width = 524;
}
);
unicode = 3494;
}
{
glyphname = bullet.006;
layers = (
{
layerId = m001;
shapes = (
{
closed = 1;
nodes = (
(20,610,ls),
(20,665,o),
(56,714,o),
(109,714,cs),
(301,714,l),
(301,614,l),
(220,614,ls),
(199,614,o),
(188,606,o),
(188,591,cs),
(188,124,ls),
(188,106,o),
(215,88,o),
(235,88,cs),
(327,88,ls),
(355,88,o),
(369,101,o),
(369,125,cs),
(369,743,ls),
(369,770,o),
(350,784,o),
(310,784,cs),
(20,784,l),
(20,879,l),
(412,879,ls),
(483,879,o),
(535,840,o),
(535,770,cs),
(535,122,ls),
(535,39,o),
(503,-1,o),
(441,-1,cs),
(124,-1,ls),
(54,-1,o),
(20,44,o),
(20,132,cs)
);
}
);
width = 570;
}
);
unicode = 3495;
}
{
glyphname = endash.006;
layers = (
{
layerId = m001;
shapes = (
{
closed = 1;
nodes = (
(408,634,l),
(408,762,ls),
(408,780,o),
(399,789,o),
(381,789,cs),
(346,789,l)
);
},
{
closed = 1;
nodes = (
(20,509,ls),
(20,565,o),
(56,614,o),
(109,614,cs),
(291,614,l),
(290,513,l),
(220,513,ls),
(199,513,o),
(188,505,o),
(188,490,cs),
(188,124,ls),
(188,101,o),
(196,88,o),
(211,88,cs),
(226,88,o),
(234,101,o),
(234,125,cs),
(234,318,l),
(357,318,l),
(357,133,ls),
(357,103,o),
(363,88,o),
(377,88,cs),
(392,88,o),
(399,102,o),
(399,131,cs),
(399,558,l),
(374,562,l),
(367,565,o),
(362,570,o),
(358,580,cs),
(297,731,ls),
(287,753,o),
(282,772,o),
(280,789,c),
(230,789,l),
(230,879,l),
(442,879,ls),
(513,879,o),
(565,840,o),
(565,770,cs),
(565,122,ls),
(565,41,o),
(533,0,o),
(471,0,cs),
(343,0,ls),
(324,0,o),
(308,14,o),
(293,39,c),
(283,14,o),
(268,0,o),
(250,0,cs),
(124,0,ls),
(54,0,o),
(20,44,o),
(20,132,cs)
);
}
);
width = 599;
}
);
unicode = 3496;
}
{
glyphname = quoteright.007;
layers = (
{
layerId = m001;
shapes = (
{
closed = 1;
nodes = (
(305,466,l),
(305,560,ls),
(305,573,o),
(298,580,o),
(285,580,cs),
(259,580,l)
);
},
{
closed = 1;
nodes = (
(2,323,l),
(127,323,l),
(127,363,ls),
(127,376,o),
(118,382,o),
(99,382,cs),
(26,382,l),
(26,451,l),
(170,451,ls),
(214,451,o),
(230,440,o),
(230,396,cs),
(230,249,l),
(184,249,ls),
(164,249,o),
(143,236,o),
(143,216,cs),
(143,91,ls),
(143,74,o),
(149,65,o),
(160,65,cs),
(171,65,o),
(177,74,o),
(177,92,cs),
(177,209,l),
(267,209,l),
(267,98,ls),
(267,76,o),
(272,65,o),
(282,65,cs),
(293,65,o),
(298,75,o),
(298,96,cs),
(298,410,l),
(280,413,l),
(275,415,o),
(271,419,o),
(268,426,cs),
(223,537,ls),
(216,553,o),
(212,567,o),
(211,580,c),
(174,580,l),
(174,646,l),
(330,646,ls),
(382,646,o),
(420,617,o),
(420,566,cs),
(420,90,ls),
(420,30,o),
(397,0,o),
(351,0,cs),
(257,0,ls),
(243,0,o),
(231,10,o),
(220,29,c),
(213,10,o),
(202,0,o),
(189,0,cs),
(96,0,ls),
(45,0,o),
(20,32,o),
(20,97,cs),
(20,183,ls),
(20,212,o),
(32,234,o),
(56,249,c),
(2,249,l)
);
}
);
width = 446;
}
);
unicode = 3498;
}
{
glyphname = quotedblright.012;
layers = (
{
layerId = m001;
shapes = (
{
closed = 1;
nodes = (
(36.953,525,o),
(15,476.395,o),
(15,444,cs),
(15,0,l),
(78,0,l),
(78,428,ls),
(78,444,o),
(91,460,o),
(104,460,cs),
(198,460,ls),
(217,460,o),
(226,454,o),
(226,441,cs),
(226,380,l),
(105,380,l),
(105,316,l),
(147,316,l),
(128,301,o),
(119,282,o),
(119,259,cs),
(119,97,ls),
(119,32,o),
(144,0,o),
(195,0,cs),
(284,0,ls),
(299,0,o),
(310,10,o),
(319,29,c),
(328,10,o),
(341,0,o),
(358,0,cs),
(466,0,ls),
(507,0,o),
(521,26,o),
(521,90,cs),
(521,566,ls),
(521,617,o),
(483,646,o),
(431,646,cs),
(119,646,l),
(119,581,l),
(354,581,ls),
(384,581,o),
(399,569,o),
(399,546,cs),
(399,98,ls),
(399,76,o),
(394,65,o),
(383,65,cs),
(372,65,o),
(366,76,o),
(366,98,cs),
(366,234,l),
(276,234,l),
(276,92,ls),
(276,74,o),
(270,65,o),
(259,65,cs),
(248,65,o),
(242,76,o),
(242,97,cs),
(242,282,ls),
(242,299,o),
(265,315,o),
(277,315,cs),
(329,315,l),
(329,470,ls),
(329,514,o),
(313,525,o),
(269,525,cs),
(88,525,ls)
);
}
);
width = 545;
}
);
unicode = 3500;
}
{
glyphname = quotedblleft.014;
layers = (
{
layerId = m001;
shapes = (
{
closed = 1;
nodes = (
(15,303,ls),
(15,365,o),
(35,396,o),
(76,396,cs),
(107,396,l),
(107,451,ls),
(107,460,o),
(101,465,o),
(90,465,cs),
(17,465,l),
(17,530,l),
(137,530,ls),
(172,530,o),
(190,512,o),
(190,477,cs),
(190,335,l),
(160,335,ls),
(145,335,o),
(138,323,o),
(138,298,cs),
(138,104,ls),
(138,78,o),
(147,65,o),
(164,65,cs),
(243,65,ls),
(260,65,o),
(269,77,o),
(269,102,cs),
(269,297,ls),
(269,322,o),
(262,334,o),
(247,334,cs),
(211,334,l),
(211,478,ls),
(211,513,o),
(231,530,o),
(270,530,cs),
(393,530,l),
(393,465,l),
(321,465,ls),
(308,465,o),
(302,460,o),
(302,451,cs),
(302,395,l),
(333,395,ls),
(373,395,o),
(393,363,o),
(393,300,cs),
(393,96,ls),
(393,31,o),
(369,-1,o),
(321,-1,cs),
(83,0,ls),
(38,0,o),
(15,28,o),
(15,85,cs)
);
}
);
width = 414;
}
);
unicode = 3508;
}
{
glyphname = quotedblright.014;
layers = (
{
layerId = m001;
shapes = (
{
closed = 1;
nodes = (
(15,246,ls),
(15,287,o),
(41,323,o),
(80,323,cs),
(122,323,l),
(122,363,ls),
(122,376,o),
(113,382,o),
(94,382,cs),
(21,382,l),
(21,451,l),
(165,451,ls),
(209,451,o),
(225,440,o),
(225,396,cs),
(225,249,l),
(162,249,ls),
(146,249,o),
(138,243,o),
(138,232,cs),
(138,91,ls),
(138,74,o),
(150,65,o),
(174,65,cs),
(235,65,ls),
(259,65,o),
(271,75,o),
(271,96,cs),
(271,410,l),
(253,413,l),
(248,415,o),
(244,419,o),
(241,426,cs),
(196,537,ls),
(189,553,o),
(185,567,o),
(184,580,c),
(147,580,l),
(147,646,l),
(303,646,ls),
(355,646,o),
(393,617,o),
(393,566,cs),
(393,90,ls),
(393,29,o),
(370,-1,o),
(324,-1,cs),
(91,-1,ls),
(40,-1,o),
(15,32,o),
(15,97,cs)
);
},
{
closed = 1;
nodes = (
(278,466,l),
(278,560,ls),
(278,573,o),
(271,580,o),
(258,580,cs),
(232,580,l)
);
}
);
width = 414;
}
);
unicode = 3509;
}
{
glyphname = quotedblleft.015;
layers = (
{
layerId = m001;
shapes = (
{
closed = 1;
nodes = (
(15,448,ls),
(15,489,o),
(41,525,o),
(80,525,cs),
(198,525,ls),
(242,525,o),
(264,500,o),
(264,450,cs),
(264,97,ls),
(264,76,o),
(269,65,o),
(279,65,cs),
(289,65,ls),
(297,65,o),
(301,76,o),
(301,97,cs),
(301,546,ls),
(301,566,o),
(287,576,o),
(258,576,cs),
(15,576,l),
(15,646,l),
(333,646,ls),
(385,646,o),
(423,617,o),
(423,566,cs),
(423,90,ls),
(423,29.954,o),
(400.713,-1.023,o),
(356.14,-1.023,cs),
(355.433,-1.023,o),
(354.719,-1.016,o),
(354,-1,cs),
(238,0,ls),
(193,1,o),
(171,28,o),
(171,82,cs),
(171,420,ls),
(171,441,o),
(167,451,o),
(160,451,cs),
(153,451,ls),
(143,451,o),
(138,444,o),
(138,431,cs),
(138,-1,l),
(15,-1,l)
);
}
);
width = 446;
}
);
unicode = 3510;
}
{
glyphname = endash.008;
layers = (
{
layerId = m001;
shapes = (
{
closed = 1;
nodes = (
(20,610,ls),
(20,665,o),
(56,714,o),
(109,714,cs),
(225,714,ls),
(272,714,o),
(297,698,o),
(297,664,cs),
(297,518,ls),
(297,494,o),
(303,482,o),
(316,482,cs),
(325,482,o),
(331,495,o),
(331,524,cs),
(331,706,l),
(396,706,l),
(396,453,ls),
(396,438,o),
(378,422,o),
(362,422,cs),
(261,422,ls),
(240,422,o),
(229,433,o),
(229,455,cs),
(229,593,ls),
(229,626,o),
(188,626,o),
(188,591,cs),
(188,124,ls),
(188,101,o),
(196,88,o),
(211,88,cs),
(237,88,o),
(249,94,o),
(249,106,cs),
(249,121,o),
(218,150,o),
(218,167,cs),
(218,324,ls),
(218,355,o),
(233,370,o),
(261,370,cs),
(354,370,ls),
(385,370,o),
(400,355,o),
(400,324,cs),
(400,167,ls),
(400,151,o),
(370,121,o),
(370,106,cs),
(370,94,o),
(384,88,o),
(410,88,cs),
(425,88,o),
(431,102,o),
(431,131,cs),
(431,717,ls),
(431,762,o),
(412,784,o),
(374,784,cs),
(20,784,l),
(20,879,l),
(475,879,ls),
(546,879,o),
(597,840,o),
(597,770,cs),
(597,122,ls),
(597,41,o),
(566,0,o),
(503,0,cs),
(376,0,ls),
(355,0,o),
(320,35,o),
(320,63,cs),
(320,125,ls),
(320,132,o),
(333,146,o),
(333,162,cs),
(333,245,ls),
(333,256,o),
(329,261,o),
(321,261,cs),
(302,261,ls),
(293,261,o),
(288,254,o),
(288,242,cs),
(288,162,ls),
(288,146,o),
(299,132,o),
(299,125,cs),
(299,63,ls),
(299,35,o),
(274,0,o),
(256,0,cs),
(124,0,ls),
(54,0,o),
(20,44,o),
(20,132,cs)
);
}
);
width = 629;
}
);
unicode = 3513;
}
{
glyphname = quoteright.009;
layers = (
{
layerId = m001;
shapes = (
{
closed = 1;
nodes = (
(188,104,o),
(197,88,o),
(231,88,cs),
(232,88,o),
(234,88,o),
(235,88,cs),
(329,88,o),
(329,88,o),
(329,88,cs),
(355,88,o),
(369,101,o),
(369,127,cs),
(369,592,ls),
(369,619,o),
(348,633,o),
(308,633,cs),
(227,633,ls),
(211,633,o),
(188,621,o),
(188,600,cs),
(188,121,ls)
);
},
{
closed = 1;
nodes = (
(20,615,ls),
(20,660,o),
(36,674,o),
(93,725,cs),
(283,894,l),
(475,894,l),
(286,721,l),
(412,721,ls),
(483,721,o),
(535,682,o),
(535,612,cs),
(535,122,ls),
(535,39,o),
(503,-1,o),
(441,-1,cs),
(124,-1,ls),
(54,-1,o),
(20,44,o),
(20,132,cs)
);
}
);
width = 562;
}
);
unicode = 3515;
}
{
glyphname = quotedblleft.016;
layers = (
{
layerId = m001;
shapes = (
{
closed = 1;
nodes = (
(15,439,ls),
(15,500,o),
(38,530,o),
(84,530,cs),
(337,530,ls),
(388,530,o),
(413,497,o),
(413,432,cs),
(413,80,ls),
(413,39,o),
(387,3,o),
(348,3,cs),
(224,3,ls),
(185,3,o),
(166,29,o),
(166,82,cs),
(166,390,l),
(259,390,l),
(259,111,ls),
(259,89,o),
(265,78,o),
(277,78,cs),
(286,78,o),
(290,87,o),
(290,104,cs),
(290,448,ls),
(290,459,o),
(280,465,o),
(260,465,cs),
(163,465,ls),
(146,465,o),
(137,458,o),
(137,445,cs),
(137,-18,ls),
(137,-38,o),
(151,-48,o),
(180,-48,cs),
(413,-48,l),
(413,-118,l),
(105,-118,ls),
(53,-118,o),
(15,-89,o),
(15,-38,cs)
);
}
);
width = 437;
}
);
unicode = 3517;
}
{
glyphname = quotedblleft.017;
layers = (
{
layerId = m001;
shapes = (
{
closed = 1;
nodes = (
(461,40.744,o),
(440.419,0,o),
(395,0,cs),
(272,0,l),
(272,231,ls),
(272,270,o),
(288,290,o),
(321,290,cs),
(340,290,l),
(339,440,ls),
(339,457,o),
(336,465,o),
(331,465,cs),
(266,465,ls),
(258,465,o),
(254,456,o),
(254,437,cs),
(254,84,ls),
(254,28,o),
(234,0,o),
(193,0,cs),
(75,0,ls),
(35,0,o),
(15,27,o),
(15,82,cs),
(15,530,l),
(136,530,l),
(136,91,ls),
(136,74,o),
(140,65,o),
(149,65,cs),
(156,65,ls),
(165,65,o),
(169,75,o),
(169,95,cs),
(169,439,ls),
(169,500,o),
(192,530,o),
(237,530,cs),
(392,530,ls),
(438,530,o),
(461,505,o),
(461,456,cs),
(461,77,ls)
);
},
{
closed = 1;
nodes = (
(330,65,ls),
(339,65,o),
(343,70,o),
(343,79,cs),
(343,238,l),
(332,238,ls),
(321,238,o),
(315,232,o),
(315,220,cs),
(315,65,l)
);
}
);
width = 483;
}
);
unicode = 3521;
}
{
glyphname = bullet.009;
layers = (
{
layerId = m001;
shapes = (
{
closed = 1;
nodes = (
(188,105,o),
(192,88,o),
(211,88,cs),
(227,88,o),
(234,101,o),
(234,125,cs),
(234,318,l),
(357,318,l),
(357,133,ls),
(357,103,o),
(365,88,o),
(382,88,cs),
(397,88,o),
(404,102,o),
(404,128,cs),
(404,406,ls),
(404,440,o),
(395,456,o),
(374,456,cs),
(314,456,l),
(314,650,ls),
(314,698,o),
(342,721,o),
(395,721,cs),
(573,721,l),
(573,633,l),
(483,633,ls),
(465,633,o),
(457,626,o),
(457,614,cs),
(457,538,l),
(491,538,ls),
(546,538,o),
(573,494,o),
(573,408,cs),
(573,131,ls),
(573,43,o),
(541,-1,o),
(478,-1,cs),
(477,-1,o),
(476,-1,o),
(475,-1,cs),
(343,0,ls),
(324,0,o),
(308,14,o),
(293,39,c),
(283,14,o),
(268,0,o),
(250,0,cs),
(113,0,ls),
(52,0,o),
(20,38,o),
(20,116,cs),
(20,378,ls),
(20,406,o),
(35,430,o),
(65,453,c),
(0,453,l),
(0,539,l),
(135,539,l),
(135,614,ls),
(135,626,o),
(127,633,o),
(112,633,cs),
(23,633,l),
(23,721,l),
(204,721,ls),
(252,721,o),
(276,697,o),
(276,649,cs),
(276,457,l),
(234,457,ls),
(207,457,o),
(188,429,o),
(188,407,cs),
(188,124,ls)
);
}
);
width = 604;
}
);
unicode = 3523;
}
{
glyphname = endash.009;
layers = (
{
layerId = m001;
shapes = (
{
closed = 1;
nodes = (
(20,37,o),
(48,0,o),
(102,0,cs),
(274,0,ls),
(329,0,o),
(357,38,o),
(357,114,cs),
(357,595,ls),
(357,621,o),
(362,633,o),
(373,633,cs),
(385,633,ls),
(392,633,o),
(396,622,o),
(396,599,cs),
(396,0,l),
(562,0,l),
(562,621,ls),
(562,687,o),
(531,721,o),
(468,721,cs),
(333,721,ls),
(272,721,o),
(241,680,o),
(241,597,cs),
(241,129,ls),
(241,102,o),
(235,88,o),
(223,88,cs),
(203,88,ls),
(191,88,o),
(185,101,o),
(185,124,cs),
(185,388,ls),
(185,426,o),
(191,445,o),
(203,445,cs),
(214,445,l),
(214,641,ls),
(214,694,o),
(189,721,o),
(140,721,cs),
(23,721,l),
(23,633,l),
(78,633,ls),
(99,633,o),
(110,626,o),
(110,612,cs),
(110,529,l),
(97,529,ls),
(46,529,o),
(20,491,o),
(20,415,cs),
(20,112,ls)
);
}
);
width = 599;
}
);
unicode = 3524;
}
{
glyphname = quotedblright.021;
layers = (
{
layerId = m001;
shapes = (
{
closed = 1;
nodes = (
(-68.131,598,o),
(-91.151,584.859,o),
(-105.446,584.859,cs),
(-113.685,584.859,o),
(-122.065,588.043,o),
(-131,594,c),
(-131,316,l),
(-163,325,l),
(-163,654,l),
(-133,654,l),
(-121.581,627.356,o),
(-68.576,637.435,o),
(-33,626,cs),
(4,614,o),
(23,588,o),
(23,549,cs),
(23,508,o),
(-15,475,o),
(-58,475,cs),
(-83,475,o),
(-108,486,o),
(-108,514,cs),
(-108,527.702,o),
(-103.025,547,o),
(-75,547,cs),
(-62,547,o),
(-53,538,o),
(-48,519,c),
(-30.25,525.762,o),
(-21.073,539.668,o),
(-21.073,560.114,cs),
(-21.073,581.029,o),
(-28.122,598,o),
(-57,598,cs)
);
}
);
width = 3;
}
);
unicode = 3530;
}
{
category = Mark;
glyphname = quotedblleft.022;
layers = (
{
layerId = m001;
shapes = (
{
closed = 1;
nodes = (
(131,0,ls),
(184,0,o),
(211,35,o),
(211,106,cs),
(211,627,ls),
(211,690,o),
(188,721,o),
(142,721,cs),
(1,721,l),
(1,633,l),
(23,633,ls),
(39,633,o),
(48,625,o),
(48,607,cs),
(48,128,ls),
(48,102,o),
(38,88,o),
(19,88,cs),
(1,88,l),
(1,0,l)
);
}
);
width = 243;
}
);
script = sinhala;
subCategory = Spacing;
unicode = 3535;
}
{
glyphname = quotedblright.022;
layers = (
{
layerId = m001;
shapes = (
{
closed = 1;
nodes = (
(5,324,ls),
(5,359,o),
(12,384,o),
(25,397,cs),
(92,465,l),
(6,465,l),
(6,530,l),
(182,530,l),
(182,471,l),
(140,418,ls),
(130,405,o),
(125,379,o),
(125,340,cs),
(125,86,ls),
(125,72,o),
(133,65,o),
(148,65,cs),
(182,65,l),
(182,-1,l),
(60,-1,ls),
(23,-1,o),
(5,18,o),
(5,55,cs)
);
}
);
width = 204;
}
);
unicode = 3536;
}
{
glyphname = quotedblleft.023;
layers = (
{
layerId = m001;
shapes = (
{
closed = 1;
nodes = (
(5,216,ls),
(5,251,o),
(12,275,o),
(25,289,cs),
(88,356,l),
(8,356,l),
(8,410,l),
(74,465,l),
(6,465,l),
(6,530,l),
(182,530,l),
(182,471,l),
(122,414,l),
(184,414,l),
(184,366,l),
(140,310,ls),
(130,297,o),
(125,271,o),
(125,232,cs),
(125,86,ls),
(125,72,o),
(133,65,o),
(148,65,cs),
(182,65,l),
(182,-1,l),
(60,-1,ls),
(23,-1,o),
(5,18,o),
(5,55,cs)
);
}
);
width = 205;
}
);
unicode = 3537;
}
{
glyphname = quotedblright.023;
layers = (
{
layerId = m001;
shapes = (
{
closed = 1;
nodes = (
(-396,585,ls),
(-396,625,o),
(-371,645,o),
(-322,645,cs),
(-100,645,ls),
(-51,645,o),
(-27,626,o),
(-27,588,cs),
(-27,543,l),
(-150,543,l),
(-150,571,ls),
(-150,582,o),
(-156,587,o),
(-169,587,cs),
(-253,587,ls),
(-265,587,o),
(-271,582,o),
(-271,573,cs),
(-271,543,l),
(-396,543,l)
);
}
);
width = 2;
}
);
unicode = 3538;
}
{
glyphname = bullet.012;
layers = (
{
layerId = m001;
shapes = (
{
closed = 1;
nodes = (
(-83,878,o),
(-37,875,o),
(-37,819,cs),
(-37,770,ls),
(-37,742,o),
(-57,728,o),
(-99,728,cs),
(-260,728,ls),
(-283,728,o),
(-294,740,o),
(-294,766,cs),
(-294,810,l),
(-352,810,ls),
(-370,810,o),
(-378,803,o),
(-378,789,cs),
(-378,739,l),
(-539,739,l),
(-539,796,ls),
(-539,851,o),
(-505,878,o),
(-438,878,cs),
(-133,878,ls)
);
},
{
closed = 1;
nodes = (
(-216,770,o),
(-212,767,o),
(-203,767,cs),
(-131,767,ls),
(-121,767,o),
(-117,770,o),
(-117,777,cs),
(-117,800,ls),
(-117,807,o),
(-121,811,o),
(-131,811,cs),
(-205,811,ls),
(-212,811,o),
(-216,807,o),
(-216,799,cs),
(-216,777,ls)
);
}
);
width = 2;
}
);
unicode = 3539;
}
{
glyphname = endash.012;
layers = (
{
layerId = m001;
shapes = (
{
closed = 1;
nodes = (
(-146,-62,l),
(-146,-1,l),
(-95,0,l),
(-68.185,1.577,o),
(-27.289,16.459,o),
(-25,92,c),
(-25,-130,l),
(-402,-130,l),
(-402,-62,l)
);
}
);
width = 2;
}
);
unicode = 3540;
}
{
glyphname = emdash.012;
layers = (
{
layerId = m001;
shapes = (
{
closed = 1;
nodes = (
(-411,-49,l),
(-412,-72,o),
(-407,-83,o),
(-392,-83,cs),
(-382,-83,o),
(-369,-80,o),
(-351,-73,cs),
(-288,-53,ls),
(-274,-49,o),
(-260,-46,o),
(-246,-46,cs),
(-220,-46,o),
(-204,-53,o),
(-199,-67,c),
(-199,-1,l),
(-129,0,l),
(-86,2,o),
(-34,35,o),
(-34,125,c),
(-34,-177,l),
(-177,-177,l),
(-184,-154,o),
(-205,-142,o),
(-242,-142,cs),
(-253,-142,o),
(-263,-143,o),
(-272,-146,cs),
(-423,-193,ls),
(-433,-196,o),
(-444,-197,o),
(-455,-197,cs),
(-505,-197,o),
(-548,-165,o),
(-548,-116,cs),
(-548,-49,l)
);
}
);
width = 2;
}
);
unicode = 3542;
}
{
glyphname = quotedblleft.024;
layers = (
{
layerId = m001;
shapes = (
{
closed = 1;
nodes = (
(15,286,ls),
(15,323,o),
(48,360,o),
(89,360,cs),
(173,360,l),
(173,437,ls),
(173,456,o),
(162,465,o),
(141,465,cs),
(25,465,l),
(25,530,l),
(205,530,ls),
(249,530,o),
(287,501,o),
(287,458,cs),
(287,0,l),
(193,0,l),
(183,40,l),
(166,13,o),
(148,0,o),
(127,0,cs),
(79,0,ls),
(36,0,o),
(15,26,o),
(15,78,cs)
);
},
{
closed = 1;
nodes = (
(131,101,o),
(134,82,o),
(141,82,cs),
(150,82,o),
(160,93,o),
(169,116,c),
(169,296,l),
(151,296,ls),
(138,296,o),
(131,288,o),
(131,272,cs),
(131,138,ls)
);
}
);
width = 308;
}
);
unicode = 3544;
}
{
glyphname = quotedblright.024;
layers = (
{
layerId = m001;
shapes = (
{
closed = 1;
nodes = (
(15,437,ls),
(15,499,o),
(39,530,o),
(88,530,cs),
(314,530,l),
(314,465,l),
(158,465,ls),
(145,465,o),
(138,452,o),
(138,426,cs),
(138,104,ls),
(138,78,o),
(145,65,o),
(160,65,cs),
(177,65,ls),
(190,65,o),
(197,77,o),
(197,102,cs),
(197,297,ls),
(197,314,o),
(191,322,o),
(179,322,cs),
(161,322,l),
(161,396,l),
(261,396,ls),
(301,396,o),
(321,372,o),
(321,325,cs),
(321,96,ls),
(321,31,o),
(297,-1,o),
(249,-1,cs),
(83,0,ls),
(38,0,o),
(15,28,o),
(15,85,cs)
);
}
);
width = 344;
}
);
unicode = 3545;
}
{
glyphname = quotedblright.025;
layers = (
{
layerId = m001;
shapes = (
{
closed = 1;
nodes = (
(20,595,ls),
(20,679,o),
(53,721,o),
(120,721,cs),
(427,721,l),
(427,633,l),
(215,633,ls),
(197,633,o),
(188,615,o),
(188,580,cs),
(188,142,ls),
(188,106,o),
(197,88,o),
(218,88,cs),
(241,88,ls),
(259,88,o),
(268,105,o),
(268,139,cs),
(268,404,ls),
(268,427,o),
(260,438,o),
(244,438,cs),
(219,438,l),
(219,539,l),
(355,539,ls),
(410,539,o),
(437,506,o),
(437,442,cs),
(437,131,ls),
(437,42,o),
(404,-1,o),
(339,-1,cs),
(113,0,ls),
(52,0,o),
(20,38,o),
(20,116,cs)
);
},
{
closed = 1;
nodes = (
(483,595,ls),
(483,679,o),
(516,721,o),
(582,721,cs),
(890,721,l),
(890,633,l),
(678,633,ls),
(660,633,o),
(650,615,o),
(650,580,cs),
(650,142,ls),
(650,106,o),
(660,88,o),
(680,88,cs),
(704,88,ls),
(721,88,o),
(731,105,o),
(731,139,cs),
(731,404,ls),
(731,427,o),
(723,438,o),
(706,438,cs),
(682,438,l),
(682,539,l),
(818,539,ls),
(872,539,o),
(899,506,o),
(899,442,cs),
(899,131,ls),
(899,42,o),
(867,-1,o),
(802,-1,cs),
(576,0,ls),
(514,0,o),
(483,38,o),
(483,116,cs)
);
}
);
width = 928;
}
);
unicode = 3547;
}
{
glyphname = quotedblright.026;
layers = (
{
layerId = m001;
shapes = (
{
closed = 1;
nodes = (
(15,286,ls),
(15,323,o),
(48,360,o),
(89,360,cs),
(173,360,l),
(173,437,ls),
(173,456,o),
(162,465,o),
(141,465,cs),
(25,465,l),
(25,530,l),
(205,530,ls),
(249,530,o),
(287,501,o),
(287,458,cs),
(287,0,l),
(193,0,l),
(183,40,l),
(166,13,o),
(148,0,o),
(127,0,cs),
(79,0,ls),
(36,0,o),
(15,26,o),
(15,78,cs)
);
},
{
closed = 1;
nodes = (
(131,101,o),
(134,82,o),
(141,82,cs),
(150,82,o),
(160,93,o),
(169,116,c),
(169,296,l),
(151,296,ls),
(138,296,o),
(131,288,o),
(131,272,cs),
(131,138,ls)
);
},
{
closed = 1;
nodes = (
(322,286,ls),
(322,323,o),
(355,360,o),
(396,360,cs),
(480,360,l),
(480,437,ls),
(480,456,o),
(469,465,o),
(448,465,cs),
(332,465,l),
(332,530,l),
(512,530,ls),
(556,530,o),
(594,501,o),
(594,458,cs),
(594,0,l),
(500,0,l),
(490,40,l),
(473,13,o),
(455,0,o),
(434,0,cs),
(386,0,ls),
(343,0,o),
(322,26,o),
(322,78,cs)
);
},
{
closed = 1;
nodes = (
(438,101,o),
(441,82,o),
(448,82,cs),
(457,82,o),
(467,93,o),
(476,116,c),
(476,296,l),
(458,296,ls),
(445,296,o),
(438,288,o),
(438,272,cs),
(438,138,ls)
);
}
);
width = 616;
}
);
unicode = 3570;
}
{
glyphname = quotedblleft.027;
layers = (
{
layerId = m001;
shapes = (
{
closed = 1;
nodes = (
(324,62.417,o),
(319.946,0,o),
(255,0,cs),
(79,0,ls),
(42,0,o),
(15,27,o),
(15,68,cs),
(15,230,l),
(137,230,l),
(137,116,ls),
(137,84.879,o),
(137,66,o),
(159,66,cs),
(172,66,ls),
(191,66,o),
(200,81,o),
(200,112,cs),
(200,440,ls),
(200,457,o),
(195,465,o),
(185,465,cs),
(174,465,o),
(168,458,o),
(168,444,cs),
(168,367,ls),
(168,324,o),
(153,303,o),
(122,303,cs),
(62,303,ls),
(31,303,o),
(15,329,o),
(15,380,cs),
(15,530,l),
(80,530,l),
(80,404,ls),
(80,387,o),
(85,378,o),
(95,378,cs),
(106,378,o),
(111,387,o),
(111,405,cs),
(111,482,ls),
(111,514,o),
(124,530,o),
(150,530,cs),
(267,530,ls),
(305,530,o),
(324,501,o),
(324,444,cs),
(324,78,ls)
);
}
);
width = 348;
}
);
unicode = 3571;
}
{
glyphname = quotedblright.027;
layers = (
{
layerId = m001;
shapes = (
{
closed = 1;
nodes = (
(127,92.19,o),
(107.529,124.039,o),
(79.355,124.039,cs),
(47.118,124.039,o),
(31,105.975,o),
(31,68,cs),
(31,25.29,o),
(74.281,-4.236,o),
(104.909,-4.236,cs),
(173.691,-4.236,o),
(282.291,90,o),
(303,90,cs),
(315,90,o),
(328,79,o),
(341,56,c),
(403,166,l),
(433,80,l),
(546,229,l),
(574,118,l),
(706,267,l),
(736,122,l),
(871,270,l),
(885,94,l),
(1043,243,l),
(1025,77,l),
(1181,180,l),
(1151,44,l),
(1300,136,l),
(1274,46,l),
(1285,53,o),
(1295,61,o),
(1305,68,cs),
(1307.87,69.724,o),
(1329.34,82.05,o),
(1355.53,82.05,cs),
(1399,82.05,o),
(1448.29,-1.645,o),
(1526,-4,cs),
(1530.74,-4.187,o),
(1535.34,-4.281,o),
(1539.8,-4.281,cs),
(1574.72,-4.281,o),
(1644.25,0.475,o),
(1644.25,65.358,cs),
(1644.25,93.885,o),
(1622.25,114.031,o),
(1593.94,114.031,cs),
(1569.96,114.031,o),
(1543,105.473,o),
(1543,67,cs),
(1543,52,o),
(1548,37,o),
(1558,22,c),
(1550,19,o),
(1542,18,o),
(1533,18,cs),
(1494,18,o),
(1452,45,o),
(1432,74,cs),
(1412,104,o),
(1391,119,o),
(1368,119,cs),
(1357,119,o),
(1346,115,o),
(1336,106,c),
(1368,206,l),
(1223,114,l),
(1257,256,l),
(1089,148,l),
(1113,337,l),
(941,178,l),
(927,368,l),
(780,200,l),
(750,349,l),
(614,192,l),
(584,313,l),
(459,146,l),
(425,244,l),
(347,106,l),
(340.045,119.136,o),
(328.911,125.705,o),
(314.52,125.705,cs),
(269.896,125.705,o),
(208.026,50.933,o),
(164,34,cs),
(142,25,o),
(129,21,o),
(125,21,cs),
(118,21,o),
(113,23,o),
(108,28,c),
(121,38,o),
(127,51,o),
(127,67,cs)
);
}
);
width = 1718;
}
);
unicode = 3572;
}
{
glyphname = emdash.015;
layers = (
{
layerId = m001;
shapes = (
{
closed = 1;
nodes = (
(0,636,l),
(22,636,l),
(22,-236,l),
(0,-236,l)
);
}
);
width = 27;
}
);
unicode = 8204;
}
{
glyphname = quoteright.016;
layers = (
{
layerId = m001;
shapes = (
{
closed = 1;
nodes = (
(69,774,l),
(-1,846,l),
(19,865,l),
(90,795,l),
(161,865,l),
(181,846,l),
(110,774,l),
(181,704,l),
(161,683,l),
(105,740,l),
(105,-321,l),
(75,-321,l),
(75,739,l),
(19,683,l),
(-1,704,l)
);
}
);
width = 194;
}
);
unicode = 8205;
}
{
glyphname = quoteleft;
layers = (
{
layerId = m001;
shapes = (
{
closed = 1;
nodes = (
(78,633,o),
(46,667,o),
(46,718,cs),
(46,772,o),
(70,834,o),
(120,906,c),
(264,906,l),
(219,833,o),
(196,780,o),
(196,748,cs),
(196,713,o),
(215,713,o),
(252,713,c),
(252,633,l),
(114,633,ls)
);
}
);
width = 322;
}
);
unicode = 8216;
}
{
glyphname = quoteright;
layers = (
{
layerId = m001;
shapes = (
{
closed = 1;
nodes = (
(171.567,666,o),
(198.321,647.03,o),
(198.321,603.092,cs),
(198.321,563.959,o),
(180.214,517.929,o),
(144,465,c),
(38,465,l),
(71,519,o),
(88,558,o),
(88,581,cs),
(88,607,o),
(74.038,607,o),
(47,607,c),
(47,666,l),
(148,666,ls)
);
}
);
width = 241;
}
);
unicode = 8217;
}
{
glyphname = quotedblleft;
layers = (
{
layerId = m001;
shapes = (
{
closed = 1;
nodes = (
(57.444,465,o),
(33.679,490.049,o),
(33.679,527.908,cs),
(33.679,567.041,o),
(51.786,613.071,o),
(88,666,c),
(194,666,l),
(161,612,o),
(144,573,o),
(144,550,cs),
(144,524,o),
(157.962,524,o),
(185,524,c),
(185,465,l),
(84,465,ls)
);
},
{
closed = 1;
nodes = (
(222.443,465,o),
(198.679,490.049,o),
(198.679,527.908,cs),
(198.679,567.041,o),
(216.786,613.071,o),
(253,666,c),
(359,666,l),
(326,612,o),
(309,573,o),
(309,550,cs),
(309,524,o),
(322.962,524,o),
(350,524,c),
(350,465,l),
(249,465,ls)
);
}
);
width = 393;
}
);
unicode = 8220;
}
{
glyphname = quotedblright;
layers = (
{
layerId = m001;
shapes = (
{
closed = 1;
nodes = (
(455,906,o),
(492,880,o),
(492,821,cs),
(492,767,o),
(467,705,o),
(418,633,c),
(274,633,l),
(318,706,o),
(342,759,o),
(342,791,cs),
(342,826,o),
(323,826,o),
(286,826,c),
(286,906,l),
(423,906,ls)
);
},
{
closed = 1;
nodes = (
(231,906,o),
(267,880,o),
(267,821,cs),
(267,767,o),
(243,705,o),
(193,633,c),
(49,633,l),
(94,706,o),
(117,759,o),
(117,791,cs),
(117,826,o),
(98,826,o),
(61,826,c),
(61,906,l),
(199,906,ls)
);
}
);
width = 540;
}
);
unicode = 8221;
}
{
glyphname = quotedblleft.030;
layers = (
{
layerId = m001;
shapes = (
{
closed = 1;
nodes = (
(535,543,o),
(546,554,o),
(567,554,cs),
(588,554,o),
(597,543,o),
(597,523,cs),
(597,502,o),
(588,491,o),
(567,491,cs),
(546,491,o),
(535,502,o),
(535,523,cs)
);
},
{
closed = 1;
nodes = (
(597,449,o),
(608,459,o),
(630,459,cs),
(650,459,o),
(660,449,o),
(660,429,cs),
(660,407,o),
(649,396,o),
(627,396,cs),
(607,396,o),
(597,407,o),
(597,429,cs)
);
},
{
closed = 1;
nodes = (
(441,606,o),
(452,616,o),
(472,616,cs),
(493,616,o),
(503,606,o),
(503,584,cs),
(503,563,o),
(493,554,o),
(472,554,cs),
(452,554,o),
(441,563,o),
(441,584,cs)
);
},
{
closed = 1;
nodes = (
(619,339,o),
(630,350,o),
(652,350,cs),
(672,350,o),
(682,339,o),
(682,318,cs),
(682,298,o),
(672,288,o),
(652,288,cs),
(630,288,o),
(619,298,o),
(619,318,cs)
);
},
{
closed = 1;
nodes = (
(332,627,o),
(342,638,o),
(362,638,cs),
(382,638,o),
(393,627,o),
(393,607,cs),
(393,585,o),
(382,574,o),
(362,574,cs),
(342,574,o),
(332,585,o),
(332,607,cs)
);
},
{
closed = 1;
nodes = (
(597,230,o),
(607,241,o),
(627,241,cs),
(649,241,o),
(660,230,o),
(660,208,cs),
(660,188,o),
(649,178,o),
(627,178,cs),
(607,178,o),
(597,188,o),
(597,208,cs)
);
},
{
closed = 1;
nodes = (
(222,606,o),
(233,616,o),
(253,616,cs),
(274,616,o),
(284,606,o),
(284,584,cs),
(284,563,o),
(274,554,o),
(253,554,cs),
(233,554,o),
(222,563,o),
(222,584,cs)
);
},
{
closed = 1;
nodes = (
(536,136,o),
(547,147,o),
(567,147,cs),
(588,147,o),
(597,136,o),
(597,114,cs),
(597,94,o),
(588,84,o),
(567,84,cs),
(547,84,o),
(536,94,o),
(536,114,cs)
);
},
{
closed = 1;
nodes = (
(128,543,o),
(139,554,o),
(159,554,cs),
(181,554,o),
(192,543,o),
(192,523,cs),
(192,502,o),
(181,491,o),
(159,491,cs),
(139,491,o),
(128,501,o),
(128,521,cs)
);
},
{
closed = 1;
nodes = (
(442,75,o),
(452,86,o),
(472,86,cs),
(493,86,o),
(503,75,o),
(503,53,cs),
(503,33,o),
(493,23,o),
(472,23,cs),
(452,23,o),
(442,33,o),
(442,53,cs)
);
},
{
closed = 1;
nodes = (
(67,449,o),
(76,459,o),
(97,459,cs),
(117,459,o),
(128,449,o),
(128,429,cs),
(128,407,o),
(118,396,o),
(99,396,cs),
(78,396,o),
(67,407,o),
(67,429,cs)
);
},
{
closed = 1;
nodes = (
(44,339,o),
(54,350,o),
(76,350,cs),
(97,350,o),
(106,339,o),
(106,318,cs),
(106,298,o),
(97,288,o),
(76,288,cs),
(54,288,o),
(44,298,o),
(44,318,cs)
);
},
{
closed = 1;
nodes = (
(332,52,o),
(342,63,o),
(362,63,cs),
(382,63,o),
(393,52,o),
(393,31,cs),
(393,11,o),
(382,0,o),
(362,0,cs),
(342,0,o),
(332,11,o),
(332,31,cs)
);
},
{
closed = 1;
nodes = (
(222,75,o),
(233,86,o),
(253,86,cs),
(274,86,o),
(284,76,o),
(284,56,cs),
(284,34,o),
(274,23,o),
(253,23,cs),
(233,23,o),
(222,33,o),
(222,53,cs)
);
},
{
closed = 1;
nodes = (
(67,230,o),
(76,241,o),
(97,241,cs),
(117,241,o),
(128,230,o),
(128,208,cs),
(128,188,o),
(117,178,o),
(97,178,cs),
(76,178,o),
(67,188,o),
(67,208,cs)
);
},
{
closed = 1;
nodes = (
(128,136,o),
(139,147,o),
(159,147,cs),
(181,147,o),
(192,136,o),
(192,114,cs),
(192,94,o),
(181,84,o),
(161,84,cs),
(139,84,o),
(128,94,o),
(128,114,cs)
);
}
);
width = 713;
}
);
unicode = 9676;
}
{
glyphname = EMPTY;
layers = (
{
layerId = m001;
shapes = (
{
closed = 1;
nodes = (
(3,769,l),
(11,769,l),
(11,759,l),
(3,759,l)
);
}
);
width = 14;
}
);
unicode = 58274;
}
{
glyphname = bullet.014;
layers = (
{
layerId = m001;
shapes = (
{
closed = 1;
nodes = (
(-281,-34,l),
(-281,-56,ls),
(-281,-67,o),
(-275,-73,o),
(-262,-73,cs),
(-169,-73,ls),
(-156,-73,o),
(-149,-67,o),
(-149,-54,cs),
(-149,-12,l),
(-25,-12,l),
(-25,-88,ls),
(-25,-113,o),
(-54,-137,o),
(-86,-137,cs),
(-356,-137,ls),
(-384,-137,o),
(-403,-115,o),
(-403,-87,cs),
(-403,-34,l)
);
}
);
width = 3;
}
);
}
{
glyphname = bullet.016;
layers = (
{
layerId = m001;
shapes = (
{
closed = 1;
nodes = (
(96,0,ls),
(135,0,o),
(155,26,o),
(155,78,cs),
(155,461,ls),
(155,507,o),
(138,530,o),
(104,530,cs),
(1,530,l),
(1,465,l),
(17,465,ls),
(29,465,o),
(35,459,o),
(35,446,cs),
(35,94,ls),
(35,75,o),
(28,65,o),
(14,65,cs),
(1,65,l),
(1,0,l)
);
}
);
width = 179;
}
);
}
{
glyphname = bullet.017;
layers = (
{
layerId = m001;
shapes = (
{
closed = 1;
nodes = (
(-61.127,645,o),
(-27,642.956,o),
(-27,602,cs),
(-27,566,ls),
(-27,545,o),
(-42,535,o),
(-73,535,cs),
(-191,535,ls),
(-208,535,o),
(-216,544,o),
(-216,563,cs),
(-216,595,l),
(-259,595,ls),
(-272,595,o),
(-278,590,o),
(-278,580,cs),
(-278,543,l),
(-396,543,l),
(-396,585,ls),
(-396,625,o),
(-371,645,o),
(-322,645,cs),
(-98,645,ls)
);
},
{
closed = 1;
nodes = (
(-159,566,o),
(-156,564,o),
(-149,564,cs),
(-96,564,ls),
(-89,564,o),
(-86,566,o),
(-86,571,cs),
(-86,588,ls),
(-86,593,o),
(-89,596,o),
(-96,596,cs),
(-151,596,ls),
(-156,596,o),
(-159,593,o),
(-159,587,cs),
(-159,571,ls)
);
}
);
width = 3;
}
);
}
{
glyphname = bullet.023;
layers = (
{
layerId = m001;
shapes = (
{
closed = 1;
nodes = (
(373,210,o),
(389,173,o),
(401,173,cs),
(407,173,o),
(410,184,o),
(410,205,cs),
(410,743,ls),
(410,770,o),
(391,784,o),
(351,784,cs),
(20,784,l),
(20,879,l),
(453,879,ls),
(524,879,o),
(576,840,o),
(576,770,cs),
(576,-177,l),
(433,-177,l),
(426,-154,o),
(404,-142,o),
(367,-142,cs),
(357,-142,o),
(347,-143,o),
(337,-146,cs),
(146,-193,ls),
(136,-196,o),
(125,-197,o),
(114,-197,cs),
(64,-197,o),
(20,-165,o),
(20,-116,cs),
(20,-49,l),
(158,-49,l),
(156,-72,o),
(162,-83,o),
(177,-83,cs),
(186,-83,o),
(203,-80,o),
(226,-75,cs),
(321,-53,ls),
(336,-49,o),
(350,-46,o),
(363,-46,cs),
(389,-46,o),
(406,-53,o),
(411,-67,c),
(411,4,l),
(372,29,o),
(364,94,o),
(344,90,c),
(340,45,o),
(327,12,o),
(303,-11,c),
(216,-11,l),
(227,4,o),
(233,38,o),
(233,90,cs),
(233,572,ls),
(233,600,o),
(227,614,o),
(218,614,cs),
(208,614,ls),
(195,614,o),
(188,604,o),
(188,587,cs),
(188,-1,l),
(20,-1,l),
(20,610,ls),
(20,665,o),
(56,714,o),
(109,714,cs),
(256,714,ls),
(316,714,o),
(346,680,o),
(346,612,cs),
(346,205,l),
(350,208,o),
(352,210,o),
(357,210,cs)
);
}
);
width = 607;
}
);
}
{
glyphname = bullet.024;
layers = (
{
layerId = m001;
shapes = (
{
closed = 1;
nodes = (
(15,27,o),
(35,0,o),
(75,0,cs),
(193,0,ls),
(234,0,o),
(254,28,o),
(254,84,cs),
(254,437,ls),
(254,456,o),
(258,465,o),
(266,465,cs),
(283,465,ls),
(288,465,o),
(291,457,o),
(291,440,cs),
(291,0,l),
(284,0,l),
(208,-56,ls),
(202,-61,o),
(199,-69,o),
(199,-80,cs),
(199,-107,o),
(217,-134,o),
(248,-134,cs),
(412,-134,l),
(412,-75,l),
(362,-75,ls),
(343,-75,o),
(334,-73,o),
(334,-68,cs),
(334,-66,o),
(336,-63,o),
(341,-59,cs),
(413,0,l),
(413,456,ls),
(413,505,o),
(390,530,o),
(344,530,cs),
(237,530,ls),
(192,530,o),
(169,500,o),
(169,439,cs),
(169,95,ls),
(169,75,o),
(165,65,o),
(156,65,cs),
(149,65,ls),
(140,65,o),
(136,74,o),
(136,91,cs),
(136,530,l),
(15,530,l),
(15,82,ls)
);
}
);
width = 438;
}
);
}
{
glyphname = bullet.026;
layers = (
{
layerId = m001;
shapes = (
{
closed = 1;
nodes = (
(86,381,o),
(94,374,o),
(110,374,cs),
(145,374,ls),
(158,374,o),
(164,379,o),
(164,390,cs),
(164,406,ls),
(164,421,o),
(159,428,o),
(148,428,cs),
(107,428,ls),
(93,428,o),
(86,422,o),
(86,410,cs),
(86,394,ls)
);
},
{
closed = 1;
nodes = (
(33.356,327,o),
(14,331.553,o),
(14,371,cs),
(14,434,ls),
(14,472,o),
(31,491,o),
(64,491,cs),
(206,491,ls),
(250,491,o),
(266,480,o),
(266,436,cs),
(266,267,ls),
(266,236,o),
(251,221,o),
(222,221,cs),
(184,221,ls),
(172,221,o),
(149,205,o),
(149,188,cs),
(149,97,ls),
(149,76,o),
(155,65,o),
(166,65,cs),
(177,65,o),
(183,74,o),
(183,92,cs),
(183,180,l),
(273,180,l),
(273,98,ls),
(273,76,o),
(279,65,o),
(290,65,cs),
(301,65,o),
(306,76,o),
(306,98,cs),
(306,487,ls),
(306,507,o),
(292,517,o),
(263,517,cs),
(15,517,l),
(15,587,l),
(74,587,l),
(53,594,o),
(42,605,o),
(42,620,cs),
(42,651,ls),
(42,668,o),
(63,688,o),
(90,688,cs),
(422,688,l),
(422,623,l),
(199,623,ls),
(178,623,o),
(168,617,o),
(168,605,cs),
(168,593,o),
(179,587,o),
(200,587,cs),
(338,587,ls),
(391,587,o),
(428,558,o),
(428,507,cs),
(428,90,ls),
(428,26,o),
(414,0,o),
(373,0,cs),
(265,0,ls),
(248,0,o),
(235,10,o),
(226,29,c),
(217,10,o),
(206,0,o),
(191,0,cs),
(102,0,ls),
(51,0,o),
(26,32,o),
(26,97,cs),
(26,224,ls),
(26,252,o),
(52,281,o),
(91,281,cs),
(140,281,ls),
(155,281,o),
(163,288,o),
(163,301,cs),
(163,327,l),
(65,327,ls)
);
}
);
width = 451;
}
);
}
{
glyphname = bullet.029;
layers = (
{
layerId = m001;
shapes = (
{
closed = 1;
nodes = (
(186,-46,l),
(186,-76,ls),
(186,-91,o),
(195,-99,o),
(212,-99,cs),
(339,-99,ls),
(357,-99,o),
(366,-91,o),
(366,-73,cs),
(366,-16,l),
(535,-16,l),
(535,-120,ls),
(535,-154,o),
(495,-186,o),
(452,-186,cs),
(84,-186,ls),
(46,-186,o),
(20,-156,o),
(20,-118,cs),
(20,-46,l)
);
},
{
closed = 1;
nodes = (
(1,459,l),
(166,459,l),
(166,542,ls),
(166,559,o),
(154,567,o),
(128,567,cs),
(29,567,l),
(29,656,l),
(225,656,ls),
(284,656,o),
(306,641,o),
(306,581,cs),
(306,370,l),
(235,370,ls),
(219,370,o),
(188,348,o),
(188,325,cs),
(188,132,ls),
(188,103,o),
(204,88,o),
(235,88,cs),
(318,88,ls),
(352,88,o),
(369,103,o),
(369,133,cs),
(369,663,ls),
(369,690,o),
(350,704,o),
(310,704,cs),
(20,704,l),
(20,799,l),
(101,799,l),
(72,808,o),
(57,823,o),
(57,844,cs),
(57,886,ls),
(57,909,o),
(86,936,o),
(122,936,cs),
(527,936,l),
(527,848,l),
(271,848,ls),
(242,848,o),
(229,840,o),
(229,823,cs),
(229,807,o),
(244,799,o),
(272,799,cs),
(412,799,ls),
(484,799,o),
(535,759,o),
(535,690,cs),
(535,122,ls),
(535,39,o),
(503,-1,o),
(441,-1,cs),
(124,-1,ls),
(54,-1,o),
(20,44,o),
(20,132,cs),
(20,294,ls),
(20,325,o),
(33,351,o),
(59,371,c),
(1,371,l)
);
}
);
width = 568;
}
);
}
{
glyphname = bullet.031;
layers = (
{
layerId = m001;
shapes = (
{
closed = 1;
nodes = (
(287,721,o),
(346,721,o),
(347,721,cs),
(355,721,l),
(455,887,l),
(576,887,l),
(469,721,l),
(535,721,l),
(535,633,l),
(437,633,ls),
(419,633,o),
(411,626,o),
(411,614,cs),
(411,538,l),
(453,538,ls),
(508,538,o),
(535,494,o),
(535,408,cs),
(535,131,ls),
(535,42,o),
(502,-1,o),
(437,-1,cs),
(113,0,ls),
(52,0,o),
(20,38,o),
(20,116,cs),
(20,412,ls),
(20,497,o),
(48,539,o),
(103,539,cs),
(146,539,l),
(146,614,ls),
(146,626,o),
(137,633,o),
(122,633,cs),
(23,633,l),
(23,721,l),
(186,721,ls),
(234,721,o),
(259,697,o),
(259,649,cs),
(259,456,l),
(218,456,ls),
(197,456,o),
(188,440,o),
(188,406,cs),
(188,142,ls),
(188,106,o),
(200,88,o),
(223,88,cs),
(331,88,ls),
(354,88,o),
(366,105,o),
(366,139,cs),
(366,404,ls),
(366,438,o),
(357,455,o),
(336,455,cs),
(287,455,l),
(287,650,ls)
);
},
{
closed = 1;
nodes = (
(24,940,ls),
(24,981,o),
(42,1002,o),
(76,1002,cs),
(310,1002,ls),
(348,1002,o),
(367,980,o),
(367,936,cs),
(367,744,l),
(290,744,l),
(290,883,ls),
(290,904,o),
(283,914,o),
(268,914,cs),
(174,914,ls),
(159,914,o),
(152,909,o),
(152,897,cs),
(152,879,o),
(151,866,o),
(151,857,cs),
(151,848,o),
(152,843,o),
(152,842,cs),
(152,830,o),
(161,825,o),
(176,825,cs),
(184,825,ls),
(191,825,o),
(193,831,o),
(193,846,cs),
(193,887,l),
(259,887,l),
(259,780,ls),
(259,754,o),
(248,740,o),
(225,740,cs),
(76,740,ls),
(42,740,o),
(24,761,o),
(24,803,cs)
);
}
);
width = 563;
}
);
}
{
glyphname = bullet.034;
layers = (
{
layerId = m001;
shapes = (
{
closed = 1;
nodes = (
(15,481.396,o),
(36.953,530,o),
(88,530,cs),
(235,530,l),
(235,91,ls),
(235,74,o),
(239,65,o),
(248,65,cs),
(255,65,ls),
(264,65,o),
(268,75,o),
(268,95,cs),
(268,439,ls),
(268,500,o),
(291,530,o),
(336,530,cs),
(589,530,ls),
(633,530,o),
(649,519,o),
(649,475,cs),
(649,314,l),
(535,314,ls),
(517,314,o),
(508,306,o),
(508,291,cs),
(508,93,ls),
(508,74,o),
(520,65,o),
(544,65,cs),
(649,65,l),
(649,0,l),
(601,0,ls),
(587,0,o),
(580,-8,o),
(580,-24,cs),
(580,-64,ls),
(580,-79,o),
(587,-86,o),
(602,-86,cs),
(657,-86,l),
(657,-151,l),
(519,-151,ls),
(478,-151,o),
(457,-132,o),
(457,-94,cs),
(457,-30,ls),
(457,-15,o),
(463,-5,o),
(475,0,c),
(455,0,ls),
(408,0,o),
(385,32,o),
(385,97,cs),
(385,304,ls),
(385,345,o),
(411,381,o),
(450,381,cs),
(546,381,l),
(546,445,ls),
(546,458,o),
(537,465,o),
(520,465,cs),
(379,465,ls),
(362,465,o),
(353,456,o),
(353,437,cs),
(353,84,ls),
(353,28,o),
(333,0,o),
(292,0,cs),
(174,0,ls),
(134,0,o),
(114,27,o),
(114,82,cs),
(114,465,l),
(104,465,ls),
(91,465,o),
(78,449,o),
(78,433,cs),
(78,0,l),
(15,0,l),
(15,449,ls)
);
},
{
closed = 1;
nodes = (
(280,585,ls),
(280,625,o),
(305,645,o),
(354,645,cs),
(576,645,ls),
(625,645,o),
(649,626,o),
(649,588,cs),
(649,543,l),
(526,543,l),
(526,571,ls),
(526,582,o),
(520,587,o),
(507,587,cs),
(423,587,ls),
(411,587,o),
(405,582,o),
(405,573,cs),
(405,543,l),
(280,543,l)
);
}
);
width = 674;
}
);
}
{
glyphname = bullet.035;
layers = (
{
layerId = m001;
shapes = (
{
closed = 1;
nodes = (
(427,721,o),
(486,721,o),
(487,721,cs),
(495,721,l),
(601,912,l),
(716,912,l),
(610,721,l),
(675,721,l),
(675,633,l),
(577,633,ls),
(559,633,o),
(551,626,o),
(551,614,cs),
(551,538,l),
(593,538,ls),
(648,538,o),
(675,494,o),
(675,408,cs),
(675,131,ls),
(675,42,o),
(642,-1,o),
(577,-1,cs),
(253,0,ls),
(192,0,o),
(161,38,o),
(161,116,cs),
(161,412,ls),
(161,497,o),
(188,539,o),
(244,539,cs),
(286,539,l),
(286,614,ls),
(286,626,o),
(279,633,o),
(265,633,cs),
(142,633,o),
(142,633,o),
(142,633,cs),
(124,633,o),
(106,611,o),
(106,589,cs),
(106,0,l),
(20,0,l),
(20,611,ls),
(20,655,o),
(50,721,o),
(120,721,cs),
(327,721,ls),
(374,721,o),
(399,697,o),
(399,649,cs),
(399,456,l),
(358,456,ls),
(337,456,o),
(328,440,o),
(328,406,cs),
(328,142,ls),
(328,106,o),
(340,88,o),
(363,88,cs),
(471,88,ls),
(494,88,o),
(506,105,o),
(506,139,cs),
(506,404,ls),
(506,438,o),
(497,455,o),
(476,455,cs),
(427,455,l),
(427,650,ls)
);
},
{
closed = 1;
nodes = (
(180,797,ls),
(180,852,o),
(214,879,o),
(280,879,cs),
(552,879,l),
(509,800,l),
(374,800,ls),
(358,800,o),
(350,793,o),
(350,781,cs),
(350,740,l),
(180,740,l)
);
}
);
width = 707;
}
);
}
{
glyphname = bullet.036;
layers = (
{
layerId = m001;
shapes = (
{
closed = 1;
nodes = (
(15,448,ls),
(15,489,o),
(41,525,o),
(80,525,cs),
(221,525,l),
(221,451,l),
(162,451,ls),
(146,451,o),
(138,445,o),
(138,434,cs),
(138,91,ls),
(138,78,o),
(158,65,o),
(173,65,cs),
(240,65,ls),
(261,65,o),
(271,74,o),
(271,92,cs),
(271,546,ls),
(271,566,o),
(257,576,o),
(228,576,cs),
(15,576,l),
(15,646,l),
(303,646,ls),
(355,646,o),
(393,617,o),
(393,566,cs),
(393,-130,l),
(16,-130,l),
(16,-62,l),
(272,-62,l),
(272,-1,l),
(91,-1,ls),
(40,-1,o),
(15,32,o),
(15,97,cs)
);
}
);
width = 420;
}
);
}
{
glyphname = bullet.037;
layers = (
{
layerId = m001;
shapes = (
{
closed = 1;
nodes = (
(15,374,ls),
(15,415,o),
(41,451,o),
(80,451,cs),
(214,451,l),
(213,377,l),
(162,377,ls),
(146,377,o),
(138,371,o),
(138,360,cs),
(138,91,ls),
(138,74,o),
(144,65,o),
(155,65,cs),
(166,65,o),
(172,74,o),
(172,92,cs),
(172,234,l),
(262,234,l),
(262,98,ls),
(262,76,o),
(267,65,o),
(277,65,cs),
(288,65,o),
(293,75,o),
(293,96,cs),
(293,410,l),
(275,413,l),
(270,415,o),
(266,419,o),
(263,426,cs),
(237,490,l),
(115,490,ls),
(72,490,o),
(51,509,o),
(51,548,cs),
(51,650,ls),
(51,694,o),
(73,716,o),
(117,716,cs),
(407,716,l),
(407,666,l),
(165,666,ls),
(150,666,o),
(143,659,o),
(143,644,cs),
(143,576,ls),
(143,556,o),
(149,546,o),
(161,546,cs),
(214,546,l),
(210,557,o),
(207,569,o),
(206,580,c),
(169,580,l),
(169,646,l),
(325,646,ls),
(377,646,o),
(415,617,o),
(415,566,cs),
(415,90,ls),
(415,30,o),
(392,0,o),
(346,0,cs),
(252,0,ls),
(238,0,o),
(226,10,o),
(215,29,c),
(208,10,o),
(197,0,o),
(184,0,cs),
(91,0,ls),
(40,0,o),
(15,32,o),
(15,97,cs)
);
},
{
closed = 1;
nodes = (
(300,466,l),
(300,560,ls),
(300,573,o),
(293,580,o),
(280,580,cs),
(254,580,l)
);
}
);
width = 440;
}
);
}
{
glyphname = bullet.038;
layers = (
{
layerId = m001;
shapes = (
{
closed = 1;
nodes = (
(1,490,l),
(166,490,l),
(166,550,ls),
(166,567,o),
(154,576,o),
(128,576,cs),
(29,576,l),
(29,664,l),
(225,664,ls),
(284,664,o),
(306,649,o),
(306,589,cs),
(306,401,l),
(235,401,ls),
(219,401,o),
(188,380,o),
(188,357,cs),
(188,132,ls),
(188,103,o),
(196,88,o),
(211,88,cs),
(226,88,o),
(234,101,o),
(234,125,cs),
(234,301,l),
(357,301,l),
(357,133,ls),
(357,103,o),
(365,88,o),
(380,88,cs),
(395,88,o),
(401,103,o),
(401,133,cs),
(401,663,ls),
(401,690,o),
(382,704,o),
(343,704,cs),
(108,704,ls),
(49,704,o),
(20,729,o),
(20,781,cs),
(20,864,ls),
(20,898,o),
(60,936,o),
(109,936,cs),
(559,936,l),
(559,848,l),
(234,848,ls),
(205,848,o),
(192,840,o),
(192,823,cs),
(192,807,o),
(207,799,o),
(235,799,cs),
(445,799,ls),
(517,799,o),
(567,759,o),
(567,690,cs),
(567,122,ls),
(567,35,o),
(548,0,o),
(493,0,cs),
(346,0,ls),
(323,0,o),
(305,14,o),
(293,39,c),
(280,14,o),
(265,0,o),
(245,0,cs),
(124,0,ls),
(54,0,o),
(20,44,o),
(20,132,cs),
(20,325,ls),
(20,357,o),
(33,382,o),
(59,403,c),
(1,403,l)
);
}
);
width = 601;
}
);
}
{
glyphname = bullet.039;
layers = (
{
layerId = m001;
shapes = (
{
closed = 1;
nodes = (
(137,-34,l),
(137,-56,ls),
(137,-67,o),
(143,-73,o),
(156,-73,cs),
(273,-73,ls),
(286,-73,o),
(293,-67,o),
(293,-54,cs),
(293,-12,l),
(417,-12,l),
(417,-88,ls),
(417,-113,o),
(388,-137,o),
(356,-137,cs),
(62,-137,ls),
(34,-137,o),
(15,-115,o),
(15,-87,cs),
(15,-34,l)
);
},
{
closed = 1;
nodes = (
(1,360,l),
(122,360,l),
(122,404,ls),
(122,417,o),
(113,423,o),
(94,423,cs),
(21,423,l),
(21,488,l),
(165,488,ls),
(209,488,o),
(225,477,o),
(225,433,cs),
(225,295,l),
(173,295,ls),
(161,295,o),
(138,279,o),
(138,262,cs),
(138,97,ls),
(138,76,o),
(144,65,o),
(155,65,cs),
(166,65,o),
(172,74,o),
(172,92,cs),
(172,221,l),
(262,221,l),
(262,98,ls),
(262,76,o),
(268,65,o),
(279,65,cs),
(290,65,o),
(295,76,o),
(295,98,cs),
(295,487,ls),
(295,507,o),
(281,517,o),
(252,517,cs),
(79,517,ls),
(36,517,o),
(15,536,o),
(15,574,cs),
(15,635,ls),
(15,660,o),
(44,688,o),
(80,688,cs),
(349,688,ls),
(394,688,o),
(416,670,o),
(416,633,cs),
(416,608,ls),
(416,591,o),
(406,578,o),
(387,570,c),
(407,555,o),
(417,534,o),
(417,507,cs),
(417,90,ls),
(417,26,o),
(403,0,o),
(362,0,cs),
(254,0,ls),
(237,0,o),
(224,10,o),
(215,29,c),
(206,10,o),
(195,0,o),
(180,0,cs),
(91,0,ls),
(40,0,o),
(15,32,o),
(15,97,cs),
(15,239,ls),
(15,262,o),
(24,281,o),
(43,296,c),
(1,296,l)
);
},
{
closed = 1;
nodes = (
(131,593,o),
(139,587,o),
(155,587,cs),
(216,587,l),
(207,589,o),
(202,596,o),
(202,607,cs),
(202,623,l),
(158,623,ls),
(140,623,o),
(131,617,o),
(131,605,cs)
);
},
{
closed = 1;
nodes = (
(276,601,o),
(282,597,o),
(295,597,cs),
(300,597,ls),
(313,597,o),
(319,601,o),
(319,610,cs),
(319,616,ls),
(319,628,o),
(312,634,o),
(299,634,cs),
(295,634,ls),
(282,634,o),
(276,628,o),
(276,616,cs),
(276,610,ls)
);
}
);
width = 441;
}
);
}
{
glyphname = bullet.043;
layers = (
{
layerId = m001;
shapes = (
{
closed = 1;
nodes = (
(184,362,l),
(184,108,ls),
(184,95,o),
(189,88,o),
(201,88,cs),
(223,88,ls),
(234,88,o),
(240,101,o),
(240,127,cs),
(240,464,l),
(150,362,l)
);
},
{
closed = 1;
nodes = (
(14,399,l),
(231,607,l),
(233,625,o),
(220,633,o),
(196,633,cs),
(27,633,l),
(27,721,l),
(284,721,ls),
(323,721,o),
(344,712,o),
(350,693,c),
(378,710,ls),
(391,717,o),
(404,721,o),
(422,721,cs),
(497,721,ls),
(558,721,o),
(589,680,o),
(589,599,cs),
(589,-1,l),
(423,-1,l),
(423,559,ls),
(423,593,o),
(421,619,o),
(397,596,cs),
(374,573,l),
(374,114,ls),
(374,38,o),
(347,0,o),
(293,0,cs),
(110,-1,ls),
(67,-1,o),
(26,41,o),
(26,105,cs),
(26,196,ls),
(26,248,o),
(33,279,o),
(48,291,c),
(14,291,l)
);
},
{
closed = 1;
nodes = (
(140,940,ls),
(140,981,o),
(158,1002,o),
(192,1002,cs),
(426,1002,ls),
(464,1002,o),
(483,980,o),
(483,936,cs),
(483,744,l),
(406,744,l),
(406,883,ls),
(406,904,o),
(399,914,o),
(384,914,cs),
(290,914,ls),
(275,914,o),
(268,909,o),
(268,897,cs),
(267,879,o),
(267,866,o),
(267,857,cs),
(267,848,o),
(267,843,o),
(268,842,cs),
(268,830,o),
(276,825,o),
(291,825,cs),
(299,825,ls),
(306,825,o),
(309,831,o),
(309,846,cs),
(309,887,l),
(374,887,l),
(374,780,ls),
(374,754,o),
(363,740,o),
(340,740,cs),
(192,740,ls),
(158,740,o),
(140,761,o),
(140,803,cs)
);
}
);
width = 625;
}
);
}
{
glyphname = bullet.045;
layers = (
{
layerId = m001;
shapes = (
{
closed = 1;
nodes = (
(20,465,ls),
(20,521,o),
(56,570,o),
(109,570,cs),
(282,570,l),
(282,469,l),
(220,469,ls),
(199,469,o),
(188,461,o),
(188,446,cs),
(188,124,ls),
(188,101,o),
(204,88,o),
(237,88,cs),
(320,88,ls),
(352,88,o),
(369,102,o),
(369,131,cs),
(369,514,l),
(344,518,l),
(337,521,o),
(332,527,o),
(328,536,cs),
(267,687,ls),
(257,709,o),
(252,728,o),
(250,746,c),
(200,746,l),
(200,836,l),
(377,836,l),
(377,951,l),
(535,951,l),
(535,122,ls),
(535,39,o),
(503,-1,o),
(441,-1,cs),
(124,-1,ls),
(54,-1,o),
(20,44,o),
(20,132,cs)
);
},
{
closed = 1;
nodes = (
(378,591,l),
(378,719,ls),
(378,736,o),
(369,746,o),
(351,746,cs),
(316,746,l)
);
}
);
width = 566;
}
);
}
{
glyphname = bullet.047;
layers = (
{
layerId = m001;
shapes = (
{
closed = 1;
nodes = (
(117.21,-67,o),
(139.009,-48,o),
(155,-48,cs),
(165,-48,o),
(173,-53,o),
(179,-62,c),
(179,0,l),
(85,0,ls),
(38,0,o),
(15,32,o),
(15,97,cs),
(15,304,ls),
(15,345,o),
(41,381,o),
(80,381,cs),
(176,381,l),
(176,446,ls),
(176,459,o),
(167,465,o),
(148,465,cs),
(38,465,l),
(38,530,l),
(219,530,ls),
(263,530,o),
(279,519,o),
(279,475,cs),
(279,314,l),
(165,314,ls),
(147,314,o),
(138,306,o),
(138,291,cs),
(138,93,ls),
(138,74,o),
(150,65,o),
(174,65,cs),
(279,65,l),
(279,-130,l),
(198,-130,l),
(193,-117,o),
(185,-111,o),
(172,-111,cs),
(163,-111,o),
(151,-114,o),
(136,-121,cs),
(102,-136,ls),
(91,-141,o),
(81,-143,o),
(71,-143,cs),
(39,-143,o),
(14,-120,o),
(14,-85,cs),
(14,-36,l),
(85,-36,l),
(84,-57,o),
(90,-67,o),
(103,-67,cs)
);
}
);
width = 306;
}
);
}
{
glyphname = bullet.048;
layers = (
{
layerId = m001;
shapes = (
{
closed = 1;
nodes = (
(15,304,ls),
(15,345,o),
(41,381,o),
(80,381,cs),
(176,381,l),
(176,446,ls),
(176,459,o),
(167,465,o),
(148,465,cs),
(38,465,l),
(38,530,l),
(219,530,ls),
(263,530,o),
(279,519,o),
(279,475,cs),
(279,314,l),
(165,314,ls),
(147,314,o),
(138,306,o),
(138,291,cs),
(138,93,ls),
(138,74,o),
(150,65,o),
(174,65,cs),
(279,65,l),
(279,-98,ls),
(279,-139,o),
(254,-160,o),
(204,-160,cs),
(86,-160,ls),
(39,-160,o),
(16,-139,o),
(16,-96,cs),
(16,-24,l),
(120,-24,l),
(120,-64,ls),
(120,-80,o),
(125,-88,o),
(136,-88,cs),
(154,-88,ls),
(164.206,-88,o),
(170.108,-77.67,o),
(170.108,-57.009,cs),
(170.108,-55.402,o),
(170.072,-53.732,o),
(170,-52,cs),
(169,0,l),
(85,0,ls),
(38,0,o),
(15,32,o),
(15,97,cs)
);
},
{
closed = 1;
nodes = (
(262.185,645,o),
(280,638.118,o),
(280,608,cs),
(280,568,ls),
(280,551,o),
(269,543,o),
(248,543,cs),
(142,543,ls),
(131,543,o),
(126,550,o),
(126,565,cs),
(126,587,l),
(105,587,ls),
(93,587,o),
(87,582,o),
(87,573,cs),
(87,543,l),
(15,543,l),
(15,585,ls),
(15,625,o),
(36,645,o),
(78,645,cs),
(223,645,ls)
);
},
{
closed = 1;
nodes = (
(177,577,o),
(180,575,o),
(187,575,cs),
(222,575,ls),
(229,575,o),
(232,577,o),
(232,582,cs),
(232,593,ls),
(232,598,o),
(229,601,o),
(222,601,cs),
(185,601,ls),
(180,601,o),
(177,598,o),
(177,592,cs),
(177,582,ls)
);
}
);
width = 306;
}
);
}
{
glyphname = bullet.049;
layers = (
{
layerId = m001;
shapes = (
{
closed = 1;
nodes = (
(107,887,o),
(97,907,o),
(97,925,cs),
(97,1022,ls),
(97,1045,o),
(121,1074,o),
(154,1074,cs),
(448,1074,ls),
(469,1074,o),
(495,1044,o),
(495,1012,cs),
(495,895,l),
(384,895,l),
(384,976,ls),
(384,993,o),
(377,1002,o),
(365,1002,cs),
(274,1002,ls),
(260,1002,o),
(253,996,o),
(253,985,cs),
(253,950,ls),
(253,940,o),
(257,935,o),
(265,935,cs),
(279,935,ls),
(286,935,o),
(290,940,o),
(290,953,cs),
(290,980,l),
(357,980,l),
(357,909,ls),
(357,894,o),
(351,883,o),
(340,879,c),
(442,879,ls),
(513,879,o),
(565,840,o),
(565,770,cs),
(565,122,ls),
(565,41,o),
(533,0,o),
(471,0,cs),
(343,0,ls),
(324,0,o),
(308,14,o),
(293,39,c),
(283,14,o),
(268,0,o),
(250,0,cs),
(124,0,ls),
(54,0,o),
(20,44,o),
(20,132,cs),
(20,610,ls),
(20,665,o),
(56,714,o),
(109,714,cs),
(290,714,l),
(290,614,l),
(220,614,ls),
(199,614,o),
(188,606,o),
(188,591,cs),
(188,124,ls),
(188,101,o),
(196,88,o),
(211,88,cs),
(226,88,o),
(234,101,o),
(234,125,cs),
(234,318,l),
(357,318,l),
(357,133,ls),
(357,103,o),
(363,88,o),
(377,88,cs),
(392,88,o),
(399,102,o),
(399,131,cs),
(399,717,ls),
(399,762,o),
(380,784,o),
(342,784,cs),
(20,784,l),
(20,879,l),
(120,879,l)
);
}
);
width = 601;
}
);
}
{
glyphname = bullet.050;
layers = (
{
background = {
shapes = (
{
closed = 1;
nodes = (
(94,-101,o),
(114,-110,q),
(136,-116,o),
(180,-124,q),
(253,-134,o),
(252,-134,q),
(304,-134,o),
(336,-126,o),
(341,-96,q),
(349,-47,o),
(349,-21,q),
(349,-12,l),
(345,-8,o),
(343,-4,q),
(333,20,o),
(329,96,q),
(325,177,o),
(295,180,q),
(268,183,o),
(229,108,o),
(211,72,q),
(182,22,o),
(149,4,q),
(128,-8,o),
(102,-8,q),
(89,-8,o),
(77,-4,q),
(52,4,o),
(39,18,q),
(15,44,o),
(15,74,q),
(15,88,o),
(32,92,q),
(67,101,o),
(69,103,q),
(92,113,o),
(101,140,q),
(106,155,o),
(106,167,q),
(106,191,o),
(79,220,q),
(66,234,o),
(42,234,q),
(25,234,o),
(9,226,q),
(0,242,o),
(0,261,q),
(0,304,o),
(37,326,q),
(52,335,o),
(71,335,q),
(108,335,o),
(133,310,q),
(177,266,o),
(177,204,q),
(223,303,o),
(305,303,q),
(319,303,o),
(333,300,q),
(372,290,o),
(413,245,o),
(427,200,q),
(438,163,o),
(439,84,q),
(441,-8,l),
(439,-9,o),
(437,-10,q),
(441,-33,o),
(441,-67,q),
(441,-142,o),
(429,-182,q),
(425,-194,o),
(407,-200,q),
(374,-210,o),
(240,-210,q),
(108,-210,o),
(78,-198,q),
(70,-179,o),
(69,-145,q),
(69,-114,o),
(74,-100,q)
);
}
);
};
layerId = m001;
shapes = (
{
closed = 1;
nodes = (
(302,-62,l),
(302,-1,l),
(303,-1,l),
(303,403,ls),
(303,431.033,o),
(301.131,445.05,o),
(297.393,445.05,cs),
(295.137,445.05,o),
(292.401,442.401,o),
(284,434,c),
(271,414,l),
(271,80,ls),
(271,27,o),
(252,0,o),
(213,0,cs),
(77,-1,ls),
(36,-1,o),
(15,26,o),
(15,81,cs),
(15,385,l),
(109,385,l),
(109,321,l),
(170,404,l),
(170.062,406.543,o),
(170.093,409.005,o),
(170.093,411.386,cs),
(170.093,447.404,o),
(162.946,465,o),
(147,465,cs),
(16,465,l),
(16,530,l),
(194,530,ls),
(207,530,o),
(220,520,o),
(231,499,c),
(249,519,ls),
(256,526,o),
(267,530,o),
(282,530,cs),
(354,530,ls),
(394,530,o),
(423,493,o),
(423,440,cs),
(423,-130,l),
(15,-130,l),
(15,-62,l)
);
},
{
closed = 1;
nodes = (
(135,69,o),
(139,65,o),
(147,65,cs),
(164,65,ls),
(172,65,o),
(176,75,o),
(176,94,cs),
(176,294,l),
(135,231,l),
(135,78,ls)
);
}
);
width = 449;
}
);
}
{
glyphname = bullet.051;
layers = (
{
layerId = m001;
shapes = (
{
closed = 1;
nodes = (
(15,26,o),
(36,-1,o),
(77,-1,cs),
(213,0,ls),
(252,0,o),
(271,27,o),
(271,80,cs),
(271,414,l),
(290,446,o),
(312.92,465,o),
(338,465,cs),
(443,465,o),
(443,465,o),
(443,465,cs),
(462,465,o),
(471,459,o),
(471,446,cs),
(471,381,l),
(375,381,ls),
(336,381,o),
(310,345,o),
(310,304,cs),
(310,97,ls),
(310,32,o),
(333,0,o),
(380,0,cs),
(400,0,l),
(388,-5,o),
(382,-15,o),
(382,-30,cs),
(382,-94,ls),
(382,-132,o),
(403,-151,o),
(444,-151,cs),
(582,-151,l),
(582,-86,l),
(527,-86,ls),
(512,-86,o),
(505,-79,o),
(505,-64,cs),
(505,-24,ls),
(505,-8,o),
(512,0,o),
(526,0,cs),
(574,0,l),
(574,65,l),
(469,65,ls),
(445,65,o),
(433,74,o),
(433,93,cs),
(433,291,ls),
(433,306,o),
(442,314,o),
(460,314,cs),
(574,314,l),
(574,475,ls),
(574,519,o),
(558,530,o),
(514,530,cs),
(299,530,ls),
(277,530,o),
(260,524,o),
(247,513,cs),
(231,499,l),
(220,520,o),
(207,530,o),
(194,530,cs),
(16,530,l),
(16,465,l),
(147,465,ls),
(162.946,465,o),
(170.093,447.404,o),
(170.093,411.386,cs),
(170.093,409.005,o),
(170.062,406.543,o),
(170,404,c),
(109,321,l),
(109,385,l),
(15,385,l),
(15,81,ls)
);
},
{
closed = 1;
nodes = (
(135,231,l),
(176,294,l),
(176,94,ls),
(176,75,o),
(172,65,o),
(164,65,cs),
(147,65,ls),
(139,65,o),
(135,69,o),
(135,78,cs)
);
},
{
closed = 1;
nodes = (
(574,638.12,o),
(556.182,645,o),
(517,645,cs),
(372,645,ls),
(330,645,o),
(309,625,o),
(309,585,cs),
(309,543,l),
(381,543,l),
(381,573,ls),
(381,582,o),
(387,587,o),
(399,587,cs),
(420,587,l),
(420,565,ls),
(420,550,o),
(425,543,o),
(436,543,cs),
(542,543,ls),
(563,543,o),
(574,551,o),
(574,568,cs),
(574,608,ls)
);
},
{
closed = 1;
nodes = (
(471,592,ls),
(471,598,o),
(474,601,o),
(479,601,cs),
(516,601,ls),
(523,601,o),
(526,598,o),
(526,593,cs),
(526,582,ls),
(526,577,o),
(523,575,o),
(516,575,cs),
(481,575,ls),
(474,575,o),
(471,577,o),
(471,582,cs)
);
}
);
width = 600;
}
);
}
{
glyphname = bullet.052;
layers = (
{
layerId = m001;
shapes = (
{
closed = 1;
nodes = (
(20,524,l),
(148,524,l),
(148,437,l),
(231,524,l),
(231,528,o),
(231,533,o),
(231,537,cs),
(231,600,o),
(222,633,o),
(200,633,cs),
(22,633,l),
(22,721,l),
(264,721,l),
(320,720,o),
(354,684,o),
(366,615,c),
(363,625,o),
(386,630,o),
(434,630,cs),
(693,630,l),
(693,529,l),
(623,529,ls),
(601,529,o),
(591,521,o),
(591,506,cs),
(591,124,ls),
(591,101,o),
(599,88,o),
(614,88,cs),
(629,88,o),
(637,101,o),
(637,125,cs),
(637,318,l),
(759,318,l),
(759,133,ls),
(759,103,o),
(766,88,o),
(780,88,cs),
(795,88,o),
(802,102,o),
(802,131,cs),
(802,663,ls),
(802,690,o),
(782,704,o),
(743,704,cs),
(503,704,ls),
(450,704,o),
(425,724,o),
(425,765,cs),
(425,875,ls),
(425,906,o),
(456,936,o),
(501,936,cs),
(875,936,ls),
(936,936,o),
(966,912,o),
(966,861,cs),
(966,827,ls),
(966,804,o),
(953,787,o),
(927,776,c),
(954,755,o),
(968,727,o),
(968,690,cs),
(968,122,ls),
(968,41,o),
(936,0,o),
(874,0,cs),
(746,0,ls),
(727,0,o),
(710,14,o),
(695,39,c),
(686,14,o),
(671,0,o),
(653,0,cs),
(527,0,ls),
(457,0,o),
(423,44,o),
(423,132,cs),
(423,524,l),
(403,517,o),
(385,499,o),
(369,472,c),
(369,109,ls),
(369,37,o),
(343,0,o),
(290,0,cs),
(105,-1,ls),
(49,-1,o),
(20,35,o),
(20,110,cs)
);
},
{
closed = 1;
nodes = (
(184,94,o),
(189,88,o),
(200,88,cs),
(223,88,ls),
(234,88,o),
(240,102,o),
(240,128,cs),
(240,380,l),
(184,314,l),
(184,106,ls)
);
},
{
closed = 1;
nodes = (
(573,803,o),
(576,799,o),
(615,799,cs),
(694,799,l),
(682,802,o),
(675,811,o),
(675,826,cs),
(675,848,l),
(614,848,ls),
(576,848,o),
(573,845,o),
(573,823,cs)
);
},
{
closed = 1;
nodes = (
(776,818,o),
(784,812,o),
(802,812,cs),
(808,812,ls),
(826,812,o),
(834,818,o),
(834,830,cs),
(834,838,ls),
(834,855,o),
(825,863,o),
(807,863,cs),
(802,863,ls),
(784,863,o),
(776,855,o),
(776,838,cs),
(776,830,ls)
);
}
);
width = 1004;
}
);
}
{
glyphname = bullet.054;
layers = (
{
layerId = m001;
shapes = (
{
closed = 1;
nodes = (
(15,402.396,o),
(36.953,451,o),
(88,451,cs),
(320,451,l),
(319,377,l),
(268,377,ls),
(252,377,o),
(244,371,o),
(244,360,cs),
(244,91,ls),
(244,74,o),
(250,65,o),
(261,65,cs),
(272,65,o),
(278,74,o),
(278,92,cs),
(278,234,l),
(368,234,l),
(368,98,ls),
(368,76,o),
(373,65,o),
(383,65,cs),
(394,65,o),
(399,75,o),
(399,96,cs),
(399,410,l),
(381,413,l),
(376,415,o),
(372,419,o),
(369,426,cs),
(324,537,ls),
(317,553,o),
(313,567,o),
(312,580,c),
(275,580,l),
(275,646,l),
(431,646,ls),
(483,646,o),
(521,617,o),
(521,566,cs),
(521,-130,l),
(416,-130,l),
(411,-113,o),
(395,-104,o),
(368,-104,cs),
(360,-104,o),
(353,-105,o),
(346,-107,cs),
(213,-142,ls),
(206,-144,o),
(198,-145,o),
(190,-145,cs),
(153,-145,o),
(121,-121,o),
(121,-85,cs),
(121,-36,l),
(222,-36,l),
(221,-53,o),
(225,-61,o),
(236,-61,cs),
(243,-61,o),
(256,-58,o),
(276,-53,cs),
(334,-39,ls),
(345,-36,o),
(355,-34,o),
(365,-34,cs),
(384,-34,o),
(396,-39,o),
(400,-49,c),
(400,-1,l),
(358,0,ls),
(344,0,o),
(332,10,o),
(321,29,c),
(314,10,o),
(303,0,o),
(290,0,cs),
(197,0,ls),
(146,0,o),
(121,32,o),
(121,97,cs),
(121,386,l),
(104,386,ls),
(91,386,o),
(78,370,o),
(78,354,cs),
(78,0,l),
(15,0,l),
(15,370,ls)
);
},
{
closed = 1;
nodes = (
(406,466,l),
(406,560,ls),
(406,573,o),
(399,580,o),
(386,580,cs),
(360,580,l)
);
}
);
width = 544;
}
);
}
{
glyphname = bullet.055;
layers = (
{
layerId = m001;
shapes = (
{
closed = 1;
nodes = (
(15,476.396,o),
(36.953,525,o),
(88,525,cs),
(283,525,ls),
(327,525,o),
(343,514,o),
(343,470,cs),
(343,314,l),
(280,314,ls),
(264,314,o),
(256,308,o),
(256,297,cs),
(256,91,ls),
(256,74,o),
(268,65,o),
(292,65,cs),
(353,65,ls),
(377,65,o),
(389,75,o),
(389,96,cs),
(389,547,ls),
(389,570,o),
(375,581,o),
(346,581,cs),
(133,581,l),
(133,646,l),
(421,646,ls),
(473,646,o),
(511,617,o),
(511,566,cs),
(511,90,ls),
(511,29,o),
(488,-1,o),
(442,-1,cs),
(209,-1,ls),
(158,-1,o),
(133,32,o),
(133,97,cs),
(133,304,ls),
(133,345,o),
(159,381,o),
(198,381,cs),
(240,381,l),
(240,441,ls),
(240,454,o),
(231,460,o),
(212,460,cs),
(104,460,ls),
(91,460,o),
(78,444,o),
(78,428,cs),
(78,0,l),
(15,0,l),
(15,444,ls)
);
}
);
width = 537;
}
);
}
{
glyphname = bullet.057;
layers = (
{
layerId = m001;
shapes = (
{
closed = 1;
nodes = (
(15,227,ls),
(15,268,o),
(41,304,o),
(80,304,cs),
(122,304,l),
(122,344,ls),
(122,357,o),
(113,363,o),
(94,363,cs),
(21,363,l),
(21,432,l),
(165,432,ls),
(209,432,o),
(225,421,o),
(225,377,cs),
(225,230,l),
(162,230,ls),
(146,230,o),
(138,224,o),
(138,213,cs),
(138,91,ls),
(138,74,o),
(150,65,o),
(174,65,cs),
(235,65,ls),
(259,65,o),
(271,75,o),
(271,96,cs),
(271,391,l),
(253,394,l),
(248,396,o),
(244,400,o),
(241,407,cs),
(196,518,ls),
(189,534,o),
(185,548,o),
(184,561,c),
(147,561,l),
(147,627,l),
(277,627,l),
(277,697,l),
(393,697,l),
(393,90,ls),
(393,29,o),
(370,-1,o),
(324,-1,cs),
(91,-1,ls),
(40,-1,o),
(15,32,o),
(15,97,cs)
);
},
{
closed = 1;
nodes = (
(278,447,l),
(278,541,ls),
(278,554,o),
(271,561,o),
(258,561,cs),
(232,561,l)
);
}
);
width = 419;
}
);
}
{
glyphname = bullet.058;
layers = (
{
layerId = m001;
shapes = (
{
closed = 1;
nodes = (
(15,396,ls),
(15,437,o),
(41,473,o),
(80,473,cs),
(198,473,ls),
(242,473,o),
(264,448,o),
(264,398,cs),
(264,97,ls),
(264,76,o),
(269,65,o),
(279,65,cs),
(289,65,ls),
(297,65,o),
(301,76,o),
(301,97,cs),
(301,487,ls),
(301,507,o),
(287,517,o),
(258,517,cs),
(15,517,l),
(15,587,l),
(74,587,l),
(53,594,o),
(42,605,o),
(42,620,cs),
(42,651,ls),
(42,668,o),
(63,688,o),
(90,688,cs),
(417,688,l),
(417,623,l),
(199,623,ls),
(178,623,o),
(168,617,o),
(168,605,cs),
(168,593,o),
(179,587,o),
(200,587,cs),
(333,587,ls),
(386,587,o),
(423,558,o),
(423,507,cs),
(423,90,ls),
(423,29.954,o),
(400.713,-1.023,o),
(356.14,-1.023,cs),
(355.433,-1.023,o),
(354.719,-1.016,o),
(354,-1,cs),
(238,0,ls),
(193,1,o),
(171,28,o),
(171,82,cs),
(171,368,ls),
(171,389,o),
(167,399,o),
(160,399,cs),
(153,399,ls),
(143,399,o),
(138,392,o),
(138,379,cs),
(138,-1,l),
(15,-1,l)
);
}
);
width = 447;
}
);
}
{
glyphname = bullet.059;
layers = (
{
layerId = m001;
shapes = (
{
closed = 1;
nodes = (
(186,-46,l),
(186,-76,ls),
(186,-91,o),
(195,-99,o),
(212,-99,cs),
(380,-99,ls),
(397,-99,o),
(407,-91,o),
(407,-73,cs),
(407,-16,l),
(576,-16,l),
(576,-120,ls),
(576,-154,o),
(536,-186,o),
(493,-186,cs),
(84,-186,ls),
(46,-186,o),
(20,-156,o),
(20,-118,cs),
(20,-46,l)
);
},
{
closed = 1;
nodes = (
(20,539,ls),
(20,595,o),
(56,644,o),
(109,644,cs),
(269,644,ls),
(329,644,o),
(359,610,o),
(359,542,cs),
(359,132,ls),
(359,103,o),
(366,88,o),
(380,88,cs),
(393,88,ls),
(404,88,o),
(410,103,o),
(410,132,cs),
(410,663,ls),
(410,690,o),
(391,704,o),
(351,704,cs),
(101,704,ls),
(48,704,o),
(22,724,o),
(22,765,cs),
(22,875,ls),
(22,906,o),
(53,936,o),
(98,936,cs),
(567,936,l),
(567,848,l),
(230,848,ls),
(192,848,o),
(188,845,o),
(188,823,cs),
(188,803,o),
(192,799,o),
(231,799,cs),
(453,799,ls),
(525,799,o),
(576,759,o),
(576,690,cs),
(576,122,ls),
(576,41,o),
(545,-1,o),
(485,-1,cs),
(484,-1,o),
(483,-1,o),
(482,-1,cs),
(324,0,ls),
(263,1,o),
(233,38,o),
(233,112,cs),
(233,501,ls),
(233,529,o),
(227,543,o),
(218,543,cs),
(208,543,ls),
(195,543,o),
(188,533,o),
(188,516,cs),
(188,-1,l),
(20,-1,l)
);
}
);
width = 610;
}
);
}
{
glyphname = bullet.060;
layers = (
{
layerId = m001;
shapes = (
{
closed = 1;
nodes = (
(49,325,l),
(30,312,o),
(20,294,o),
(20,273,cs),
(20,82,ls),
(20,27,o),
(40,0,o),
(80,0,cs),
(206,0,ls),
(247,0,o),
(267,28,o),
(267,84,cs),
(267,437,ls),
(267,456,o),
(271,465,o),
(279,465,cs),
(288,465,ls),
(293,465,o),
(296,457,o),
(296,440,cs),
(296,0,l),
(418,0,l),
(418,456,ls),
(418,505,o),
(395,530,o),
(349,530,cs),
(250,530,ls),
(205,530,o),
(182,500,o),
(182,439,cs),
(182,95,ls),
(182,75,o),
(178,65,o),
(169,65,cs),
(154,65,ls),
(145,65,o),
(141,74,o),
(141,91,cs),
(141,280,ls),
(141,311,o),
(146,327,o),
(157,327,cs),
(162,327,l),
(162,471,ls),
(162,510,o),
(144,530,o),
(108,530,cs),
(22,530,l),
(22,465,l),
(62,465,ls),
(78,465,o),
(86,460,o),
(86,450,cs),
(86,389,l),
(2,389,l),
(2,325,l)
);
},
{
closed = 1;
nodes = (
(142,-34,l),
(142,-56,ls),
(142,-67,o),
(148,-73,o),
(161,-73,cs),
(274,-73,ls),
(287,-73,o),
(294,-67,o),
(294,-54,cs),
(294,-12,l),
(418,-12,l),
(418,-88,ls),
(418,-113,o),
(389,-137,o),
(357,-137,cs),
(67,-137,ls),
(39,-137,o),
(20,-115,o),
(20,-87,cs),
(20,-34,l)
);
}
);
width = 443;
}
);
}
{
glyphname = bullet.061;
layers = (
{
layerId = m001;
shapes = (
{
closed = 1;
nodes = (
(73.762,652.158,o),
(66,666.18,o),
(66,680,cs),
(66,751,ls),
(66,768,o),
(84,789,o),
(108,789,cs),
(324,789,ls),
(340,789,o),
(359,767,o),
(359,744,cs),
(359,658,l),
(277,658,l),
(277,717,ls),
(277,730,o),
(272,736,o),
(263,736,cs),
(196,736,ls),
(186,736,o),
(181,732,o),
(181,724,cs),
(181,698,ls),
(181,691,o),
(184,687,o),
(190,687,cs),
(200,687,ls),
(205,687,o),
(208,691,o),
(208,700,cs),
(208,720,l),
(257,720,l),
(257,668,ls),
(257,657,o),
(253,649,o),
(245,646,c),
(333,646,ls),
(385,646,o),
(423,617,o),
(423,566,cs),
(423,90,ls),
(423,29,o),
(400,-1,o),
(354,-1,cs),
(91,-1,ls),
(40,-1,o),
(15,32,o),
(15,97,cs),
(15,448,ls),
(15,489,o),
(41,525,o),
(80,525,cs),
(208,525,ls),
(248,525,o),
(268,503,o),
(268,458,cs),
(268,187,ls),
(268,154,o),
(251,137,o),
(218,137,cs),
(138,137,l),
(138,91,ls),
(138,78,o),
(158,65,o),
(173,65,cs),
(270,65,ls),
(291,65,o),
(301,74,o),
(301,92,cs),
(301,546,ls),
(301,566,o),
(287,576,o),
(258,576,cs),
(15,576,l),
(15,646,l),
(83,646,l)
);
},
{
closed = 1;
nodes = (
(158,206,ls),
(167,206,o),
(171,214,o),
(171,231,cs),
(171,420,ls),
(171,441,o),
(167,451,o),
(160,451,cs),
(153,451,ls),
(143,451,o),
(138,444,o),
(138,431,cs),
(138,206,l)
);
}
);
width = 447;
}
);
}
{
glyphname = bullet.063;
layers = (
{
layerId = m001;
shapes = (
{
closed = 1;
nodes = (
(138,80.786,o),
(140.085,64.942,o),
(153.022,64.942,cs),
(161.378,64.942,o),
(166,76.924,o),
(166,100,cs),
(166,276,l),
(260,276,l),
(260,102,ls),
(260,77,o),
(265,65,o),
(275,65,cs),
(283,65,o),
(287,75,o),
(287,94,cs),
(287,291,ls),
(287,316,o),
(280,328,o),
(265,328,cs),
(177,328,l),
(177,468,ls),
(177,509,o),
(197,530,o),
(236,530,cs),
(408,530,l),
(408,465,l),
(311,465,ls),
(298,465,o),
(292,460,o),
(292,451,cs),
(292,395,l),
(351,395,ls),
(391,395,o),
(411,363,o),
(411,300,cs),
(411,96,ls),
(411,31.956,o),
(387.701,-1.022,o),
(341.103,-1.022,cs),
(340.407,-1.022,o),
(339.706,-1.015,o),
(339,-1,cs),
(252,0,ls),
(237,0,o),
(225,11,o),
(216,33,c),
(206,11,o),
(194,0,o),
(181,0,cs),
(83,0,ls),
(38,0,o),
(15,28,o),
(15,85,cs),
(15,530,l),
(138,530,l),
(138,91,ls)
);
},
{
closed = 1;
nodes = (
(373.873,645,o),
(408,642.956,o),
(408,602,cs),
(408,566,ls),
(408,545,o),
(393,535,o),
(362,535,cs),
(244,535,ls),
(227,535,o),
(219,544,o),
(219,563,cs),
(219,595,l),
(152,595,ls),
(139,595,o),
(133,590,o),
(133,580,cs),
(133,543,l),
(15,543,l),
(15,585,ls),
(15,625,o),
(40,645,o),
(89,645,cs),
(337,645,ls)
);
},
{
closed = 1;
nodes = (
(276,566,o),
(279,564,o),
(286,564,cs),
(339,564,ls),
(346,564,o),
(349,566,o),
(349,571,cs),
(349,588,ls),
(349,593,o),
(346,596,o),
(339,596,cs),
(284,596,ls),
(279,596,o),
(276,593,o),
(276,587,cs),
(276,571,ls)
);
}
);
width = 433;
}
);
}
{
glyphname = bullet.064;
layers = (
{
layerId = m001;
shapes = (
{
closed = 1;
nodes = (
(15,678,l),
(126,678,l),
(126,559,l),
(208,657,l),
(349,657,l),
(245,530,l),
(303,530,ls),
(355,530,o),
(393,501,o),
(393,450,cs),
(393,90,ls),
(393,29,o),
(370,-1,o),
(324,-1,cs),
(91,-1,ls),
(40,-1,o),
(15,32,o),
(15,97,cs)
);
},
{
closed = 1;
nodes = (
(138,76.509,o),
(144.462,64.942,o),
(169.806,64.942,cs),
(170.839,64.942,o),
(171.903,65,o),
(173,65,cs),
(242,65,o),
(242,65,o),
(242,65,cs),
(261,65,o),
(271,74,o),
(271,93,cs),
(271,435,ls),
(271,455,o),
(256,465,o),
(226,465,cs),
(167,465,ls),
(155,465,o),
(138,456,o),
(138,441,cs),
(138,89,ls)
);
}
);
width = 416;
}
);
}
{
glyphname = bullet.065;
layers = (
{
layerId = m001;
shapes = (
{
closed = 1;
nodes = (
(20,597,ls),
(20,680,o),
(52,721,o),
(114,721,cs),
(459,721,ls),
(528,721,o),
(562,676,o),
(562,588,cs),
(562,109,ls),
(562,53,o),
(527,4,o),
(474,4,cs),
(305,4,ls),
(252,4,o),
(226,39,o),
(226,112,cs),
(226,531,l),
(352,531,l),
(352,151,ls),
(352,121,o),
(361,106,o),
(377,106,cs),
(389,106,o),
(395,118,o),
(395,142,cs),
(395,610,ls),
(395,625,o),
(381,633,o),
(354,633,cs),
(222,633,ls),
(199,633,o),
(186,623,o),
(186,606,cs),
(186,-24,ls),
(186,-52,o),
(205,-65,o),
(245,-65,cs),
(562,-65,l),
(562,-161,l),
(143,-161,ls),
(72,-161,o),
(20,-121,o),
(20,-52,cs)
);
},
{
closed = 1;
nodes = (
(20,796,ls),
(20,851,o),
(54,878,o),
(121,878,cs),
(463,878,ls),
(529,878,o),
(562,852,o),
(562,800,cs),
(562,739,l),
(395,739,l),
(395,777,ls),
(395,792,o),
(386,799,o),
(369,799,cs),
(215,799,ls),
(199,799,o),
(191,792,o),
(191,780,cs),
(191,739,l),
(20,739,l)
);
}
);
width = 594;
}
);
}
{
glyphname = bullet.066;
layers = (
{
layerId = m001;
shapes = (
{
closed = 1;
nodes = (
(15,249,ls),
(15,290,o),
(41,326,o),
(80,326,cs),
(122,326,l),
(122,386,ls),
(122,399,o),
(113,405,o),
(94,405,cs),
(21,405,l),
(21,470,l),
(165,470,ls),
(209,470,o),
(225,459,o),
(225,415,cs),
(225,259,l),
(162,259,ls),
(146,259,o),
(138,253,o),
(138,242,cs),
(138,91,ls),
(138,74,o),
(150,65,o),
(174,65,cs),
(235,65,ls),
(259,65,o),
(271,75,o),
(271,96,cs),
(271,487,ls),
(271,507,o),
(257,517,o),
(228,517,cs),
(74,517,ls),
(35,517,o),
(16,532,o),
(16,562,cs),
(16,643,ls),
(16,666,o),
(39,688,o),
(72,688,cs),
(325,688,ls),
(370,688,o),
(392,670,o),
(392,633,cs),
(392,608,ls),
(392,591,o),
(382,578,o),
(363,570,c),
(383,555,o),
(393,534,o),
(393,507,cs),
(393,90,ls),
(393,29,o),
(370,-1,o),
(324,-1,cs),
(91,-1,ls),
(40,-1,o),
(15,32,o),
(15,97,cs)
);
},
{
closed = 1;
nodes = (
(125,590,o),
(127,587,o),
(156,587,cs),
(192,587,l),
(183,589,o),
(178,596,o),
(178,607,cs),
(178,623,l),
(155,623,ls),
(127,623,o),
(125,621,o),
(125,605,cs)
);
},
{
closed = 1;
nodes = (
(252,601,o),
(258,597,o),
(271,597,cs),
(276,597,ls),
(289,597,o),
(295,601,o),
(295,610,cs),
(295,616,ls),
(295,628,o),
(288,634,o),
(275,634,cs),
(271,634,ls),
(258,634,o),
(252,628,o),
(252,616,cs),
(252,610,ls)
);
}
);
width = 419;
}
);
}
{
glyphname = bullet.067;
layers = (
{
layerId = m001;
shapes = (
{
closed = 1;
nodes = (
(627,55,o),
(599,0,o),
(538,0,cs),
(370,0,l),
(370,314,ls),
(370,367,o),
(392,395,o),
(437,395,cs),
(463,395,l),
(461,599,ls),
(461,622,o),
(457,633,o),
(450,633,cs),
(362,633,ls),
(351,633,o),
(346,621,o),
(346,595,cs),
(346,114,ls),
(346,38,o),
(318,0,o),
(263,0,cs),
(102,0,ls),
(48,0,o),
(20,37,o),
(20,112,cs),
(20,721,l),
(185,721,l),
(185,124,ls),
(185,101,o),
(191,88,o),
(203,88,cs),
(212,88,ls),
(225,88,o),
(230,102,o),
(230,129,cs),
(230,597,ls),
(230,680,o),
(261,721,o),
(323,721,cs),
(469,721,l),
(469,929,l),
(627,929,l),
(627,105,ls)
);
},
{
closed = 1;
nodes = (
(449,88,ls),
(461,88,o),
(467,95,o),
(467,108,cs),
(467,324,l),
(452,324,ls),
(437,324,o),
(429,316,o),
(429,299,cs),
(429,88,l)
);
}
);
width = 657;
}
);
}
{
glyphname = bullet.069;
layers = (
{
layerId = m001;
shapes = (
{
closed = 1;
nodes = (
(492,721,o),
(536,690,o),
(536,642,cs),
(536,582,ls),
(536,542,o),
(527,514,o),
(506,502,c),
(525,495,o),
(535,463,o),
(535,407,cs),
(535,131,ls),
(535,42,o),
(502,-1,o),
(437,-1,cs),
(113,0,ls),
(52,0,o),
(20,38,o),
(20,116,cs),
(20,412,ls),
(20,497,o),
(48,539,o),
(103,539,cs),
(146,539,l),
(146,614,ls),
(146,626,o),
(137,633,o),
(122,633,cs),
(23,633,l),
(23,721,l),
(186,721,ls),
(234,721,o),
(259,697,o),
(259,649,cs),
(259,459,l),
(218,459,ls),
(197,459,o),
(188,442,o),
(188,408,cs),
(188,124,ls),
(188,101,o),
(195,88,o),
(207,88,cs),
(347,88,ls),
(359,88,o),
(366,102,o),
(366,128,cs),
(366,381,l),
(342,369,o),
(329,340,o),
(329,294,cs),
(330,250,o),
(330,214,o),
(330,188,cs),
(330,161,o),
(330,143,o),
(329,133,c),
(218,133,l),
(218,335,ls),
(218,377,o),
(244,397,o),
(323,457,c),
(287,457,l),
(287,650,ls),
(287,698,o),
(314,721,o),
(367,721,cs),
(452,721,ls)
);
},
{
closed = 1;
nodes = (
(393,554,o),
(407,552,o),
(414,548,c),
(425,555,o),
(438,559,o),
(438,581,cs),
(438,619,ls),
(438,629,o),
(433,634,o),
(423,634,cs),
(386,634,ls),
(377,634,o),
(373,629,o),
(373,618,cs),
(373,554,l)
);
},
{
closed = 1;
nodes = (
(98,940,ls),
(98,981,o),
(116,1002,o),
(150,1002,cs),
(384,1002,ls),
(422,1002,o),
(441,980,o),
(441,936,cs),
(441,744,l),
(363,744,l),
(363,883,ls),
(363,904,o),
(357,914,o),
(342,914,cs),
(248,914,ls),
(233,914,o),
(226,909,o),
(226,897,cs),
(225,879,o),
(225,866,o),
(225,857,cs),
(225,848,o),
(225,843,o),
(226,842,cs),
(226,830,o),
(234,825,o),
(249,825,cs),
(257,825,ls),
(264,825,o),
(267,831,o),
(267,846,cs),
(267,887,l),
(332,887,l),
(332,780,ls),
(332,754,o),
(321,740,o),
(298,740,cs),
(150,740,ls),
(116,740,o),
(98,761,o),
(98,803,cs)
);
}
);
width = 566;
}
);
}
{
glyphname = bullet.071;
layers = (
{
layerId = m001;
shapes = (
{
closed = 1;
nodes = (
(20,37,o),
(48,0,o),
(102,0,cs),
(274,0,ls),
(329,0,o),
(357,38,o),
(357,114,cs),
(357,595,ls),
(357,621,o),
(362,633,o),
(373,633,cs),
(385,633,ls),
(392,633,o),
(396,622,o),
(396,599,cs),
(396,0,l),
(562,0,l),
(562,621,ls),
(562,687,o),
(531,721,o),
(468,721,cs),
(333,721,ls),
(272,721,o),
(241,680,o),
(241,597,cs),
(241,129,ls),
(241,102,o),
(235,88,o),
(223,88,cs),
(203,88,ls),
(191,88,o),
(185,101,o),
(185,124,cs),
(185,388,ls),
(185,426,o),
(191,445,o),
(203,445,cs),
(214,445,l),
(214,641,ls),
(214,694,o),
(189,721,o),
(140,721,cs),
(23,721,l),
(23,633,l),
(78,633,ls),
(99,633,o),
(110,626,o),
(110,612,cs),
(110,529,l),
(97,529,ls),
(46,529,o),
(20,491,o),
(20,415,cs),
(20,112,ls)
);
},
{
closed = 1;
nodes = (
(125,940,ls),
(125,981,o),
(143,1002,o),
(177,1002,cs),
(411,1002,ls),
(449,1002,o),
(468,980,o),
(468,936,cs),
(468,744,l),
(391,744,l),
(391,883,ls),
(391,904,o),
(384,914,o),
(369,914,cs),
(275,914,ls),
(260,914,o),
(253,909,o),
(253,897,cs),
(252,879,o),
(252,866,o),
(252,857,cs),
(252,848,o),
(252,843,o),
(253,842,cs),
(253,830,o),
(261,825,o),
(276,825,cs),
(284,825,ls),
(291,825,o),
(294,831,o),
(294,846,cs),
(294,887,l),
(359,887,l),
(359,780,ls),
(359,754,o),
(348,740,o),
(325,740,cs),
(177,740,ls),
(143,740,o),
(125,761,o),
(125,803,cs)
);
}
);
width = 593;
}
);
}
{
glyphname = bullet.072;
layers = (
{
layerId = m001;
shapes = (
{
closed = 1;
nodes = (
(375,466,l),
(375,560,ls),
(375,573,o),
(368,580,o),
(355,580,cs),
(329,580,l)
);
},
{
closed = 1;
nodes = (
(15,476.396,o),
(36.953,525,o),
(88,525,cs),
(148,525,ls),
(184,525,o),
(202,510,o),
(202,480,cs),
(202,451,l),
(262,451,ls),
(306,451,o),
(322,440,o),
(322,396,cs),
(322,249,l),
(259,249,ls),
(243,249,o),
(235,243,o),
(235,232,cs),
(235,91,ls),
(235,74,o),
(247,65,o),
(271,65,cs),
(332,65,ls),
(356,65,o),
(368,75,o),
(368,96,cs),
(368,410,l),
(350,413,l),
(345,415,o),
(341,419,o),
(338,426,cs),
(293,537,ls),
(286,553,o),
(282,567,o),
(281,580,c),
(244,580,l),
(244,646,l),
(400,646,ls),
(452,646,o),
(490,617,o),
(490,566,cs),
(490,90,ls),
(490,29,o),
(467,-1,o),
(421,-1,cs),
(188,-1,ls),
(137,-1,o),
(112,32,o),
(112,97,cs),
(112,246,ls),
(112,287,o),
(138,323,o),
(177,323,cs),
(219,323,l),
(219,363,ls),
(219,376,o),
(210,382,o),
(191,382,cs),
(118,382,l),
(118,460,l),
(104,460,ls),
(91,460,o),
(78,444,o),
(78,428,cs),
(78,0,l),
(15,0,l),
(15,444,ls)
);
},
{
closed = 1;
nodes = (
(521,216,ls),
(521,251,o),
(528,275,o),
(541,289,cs),
(604,356,l),
(524,356,l),
(524,410,l),
(590,465,l),
(522,465,l),
(522,530,l),
(698,530,l),
(698,471,l),
(638,414,l),
(700,414,l),
(700,366,l),
(656,310,ls),
(646,297,o),
(641,271,o),
(641,232,cs),
(641,86,ls),
(641,72,o),
(649,65,o),
(664,65,cs),
(698,65,l),
(698,-1,l),
(576,-1,ls),
(539,-1,o),
(521,18,o),
(521,55,cs)
);
}
);
width = 726;
}
);
}
{
glyphname = bullet.073;
layers = (
{
layerId = m001;
shapes = (
{
closed = 1;
nodes = (
(20,610,ls),
(20,665,o),
(56,714,o),
(109,714,cs),
(301,714,l),
(301,614,l),
(220,614,ls),
(199,614,o),
(188,606,o),
(188,591,cs),
(188,124,ls),
(188,106,o),
(215,88,o),
(235,88,cs),
(327,88,ls),
(355,88,o),
(369,101,o),
(369,125,cs),
(369,743,ls),
(369,770,o),
(350,784,o),
(310,784,cs),
(20,784,l),
(20,879,l),
(412,879,ls),
(483,879,o),
(535,840,o),
(535,770,cs),
(535,122,ls),
(535,39,o),
(503,-1,o),
(441,-1,cs),
(124,-1,ls),
(54,-1,o),
(20,44,o),
(20,132,cs)
);
},
{
closed = 1;
nodes = (
(570,721,l),
(724,721,ls),
(758,721,o),
(774,704,o),
(774,668,cs),
(774,161,l),
(778,127,o),
(791,109,o),
(812,109,cs),
(834,109,o),
(845,122,o),
(845,151,cs),
(845,406,ls),
(845,438,o),
(836,455,o),
(818,455,cs),
(799,455,l),
(799,640,ls),
(799,694,o),
(819,721,o),
(861,721,cs),
(1014,721,l),
(1014,633,l),
(954,633,ls),
(934,633,o),
(923,623,o),
(923,604,cs),
(923,536,l),
(948,536,ls),
(992,536,o),
(1014,509,o),
(1014,455,cs),
(1014,120,ls),
(1014,50,o),
(974,0,o),
(925,0,cs),
(853,0,ls),
(815,0,o),
(784,15,o),
(761,46,c),
(754,24,o),
(742,10,o),
(724,0,c),
(580,0,l),
(597,31,o),
(606,67,o),
(606,106,cs),
(606,595,ls),
(606,621,o),
(601,633,o),
(592,633,cs),
(570,633,l)
);
}
);
width = 1041;
}
);
}
{
glyphname = bullet.076;
layers = (
{
layerId = m001;
shapes = (
{
closed = 1;
nodes = (
(188,105,o),
(192,88,o),
(211,88,cs),
(227,88,o),
(234,101,o),
(234,125,cs),
(234,318,l),
(357,318,l),
(357,133,ls),
(357,103,o),
(365,88,o),
(382,88,cs),
(397,88,o),
(404,102,o),
(404,128,cs),
(404,406,ls),
(404,440,o),
(395,456,o),
(374,456,cs),
(314,456,l),
(314,650,ls),
(314,698,o),
(342,721,o),
(395,721,cs),
(573,721,l),
(573,633,l),
(483,633,ls),
(465,633,o),
(457,626,o),
(457,614,cs),
(457,538,l),
(491,538,ls),
(546,538,o),
(573,494,o),
(573,408,cs),
(573,131,ls),
(573,43,o),
(541,-1,o),
(478,-1,cs),
(477,-1,o),
(476,-1,o),
(475,-1,cs),
(343,0,ls),
(324,0,o),
(308,14,o),
(293,39,c),
(283,14,o),
(268,0,o),
(250,0,cs),
(113,0,ls),
(52,0,o),
(20,38,o),
(20,116,cs),
(20,378,ls),
(20,406,o),
(35,430,o),
(65,453,c),
(0,453,l),
(0,539,l),
(135,539,l),
(135,614,ls),
(135,626,o),
(127,633,o),
(112,633,cs),
(23,633,l),
(23,721,l),
(204,721,ls),
(252,721,o),
(276,697,o),
(276,649,cs),
(276,457,l),
(234,457,ls),
(207,457,o),
(188,429,o),
(188,407,cs),
(188,124,ls)
);
},
{
closed = 1;
nodes = (
(618,721,l),
(772,721,ls),
(806,721,o),
(822,704,o),
(822,668,cs),
(822,161,l),
(826,127,o),
(838,109,o),
(860,109,cs),
(882,109,o),
(893,122,o),
(893,151,cs),
(893,406,ls),
(893,438,o),
(883,455,o),
(865,455,cs),
(846,455,l),
(846,640,ls),
(846,694,o),
(867,721,o),
(909,721,cs),
(1061,721,l),
(1061,633,l),
(1002,633,ls),
(981,633,o),
(970,623,o),
(970,604,cs),
(970,536,l),
(996,536,ls),
(1040,536,o),
(1061,509,o),
(1061,455,cs),
(1061,120,ls),
(1061,50,o),
(1022,0,o),
(973,0,cs),
(901,0,ls),
(863,0,o),
(831,15,o),
(808,46,c),
(802,24,o),
(789,10,o),
(772,0,c),
(627,0,l),
(645,31,o),
(653,67,o),
(653,106,cs),
(653,595,ls),
(653,621,o),
(649,633,o),
(640,633,cs),
(618,633,l)
);
}
);
width = 1093;
}
);
}
{
glyphname = bullet.077;
layers = (
{
layerId = m001;
shapes = (
{
closed = 1;
nodes = (
(20,524,l),
(148,524,l),
(148,437,l),
(231,550,l),
(231,553,o),
(231,557,o),
(231,560,cs),
(231,609,o),
(222,633,o),
(200,633,cs),
(22,633,l),
(22,721,l),
(264,721,ls),
(282,721,o),
(299,708,o),
(314,679,c),
(336,698,ls),
(354,713,o),
(377,721,o),
(407,721,cs),
(517,721,ls),
(551,721,o),
(584,706,o),
(615,678,cs),
(684,614,l),
(686,612,l),
(684,612,l),
(684,513,l),
(623,513,ls),
(601,513,o),
(591,505,o),
(591,490,cs),
(591,124,ls),
(591,101,o),
(607,88,o),
(640,88,cs),
(723,88,ls),
(755,88,o),
(772,102,o),
(772,131,cs),
(772,558,l),
(747,562,l),
(740,565,o),
(735,570,o),
(731,580,cs),
(670,731,ls),
(660,753,o),
(655,772,o),
(653,789,c),
(603,789,l),
(603,879,l),
(815,879,ls),
(886,879,o),
(938,840,o),
(938,770,cs),
(938,122,ls),
(938,39,o),
(906,-1,o),
(844,-1,cs),
(527,-1,ls),
(457,-1,o),
(423,44,o),
(423,132,cs),
(423,509,ls),
(423,565,o),
(459,614,o),
(512,614,cs),
(520,614,l),
(501,620,o),
(483,624,o),
(466,624,cs),
(426,624,o),
(394,604,o),
(369,563,c),
(369,109,ls),
(369,37,o),
(343,0,o),
(290,0,cs),
(105,-1,ls),
(49,-1,o),
(20,35,o),
(20,110,cs)
);
},
{
closed = 1;
nodes = (
(184,94,o),
(189,88,o),
(200,88,cs),
(223,88,ls),
(234,88,o),
(240,102,o),
(240,128,cs),
(240,400,l),
(184,314,l),
(184,106,ls)
);
},
{
closed = 1;
nodes = (
(781,634,l),
(781,762,ls),
(781,780,o),
(772,789,o),
(754,789,cs),
(719,789,l)
);
}
);
width = 971;
}
);
}
{
glyphname = bullet.080;
layers = (
{
layerId = m001;
shapes = (
{
closed = 1;
nodes = (
(753,88,o),
(746,100,o),
(746,124,cs),
(746,407,ls),
(746,429,o),
(765,457,o),
(792,457,cs),
(834,457,l),
(834,649,ls),
(834,697,o),
(810,721,o),
(762,721,cs),
(581,721,l),
(581,633,l),
(670,633,ls),
(684,633,o),
(693,626,o),
(693,614,cs),
(693,539,l),
(562,539,l),
(562,621,ls),
(562,687,o),
(531,721,o),
(468,721,cs),
(323,721,ls),
(261,721,o),
(230,680,o),
(230,597,cs),
(230,129,ls),
(230,102,o),
(225,88,o),
(212,88,cs),
(203,88,ls),
(191,88,o),
(185,101,o),
(185,124,cs),
(185,721,l),
(20,721,l),
(20,112,ls),
(20,37,o),
(48,0,o),
(102,0,cs),
(263,0,ls),
(318,0,o),
(346,38,o),
(346,114,cs),
(346,595,ls),
(346,621,o),
(351,633,o),
(362,633,cs),
(385,633,ls),
(392,633,o),
(396,622,o),
(396,599,cs),
(396,0,l),
(562,0,l),
(562,453,l),
(623,453,l),
(593,430,o),
(578,406,o),
(578,378,cs),
(578,116,ls),
(578,38,o),
(610,0,o),
(671,0,cs),
(780,0,ls),
(813,0,o),
(843,35,o),
(851,53,c),
(857,33,o),
(893,0,o),
(927,0,cs),
(1033,0,ls),
(1098,0,o),
(1131,44,o),
(1131,131,cs),
(1131,408,ls),
(1131,494,o),
(1104,538,o),
(1049,538,cs),
(1015,538,l),
(1015,614,ls),
(1015,626,o),
(1023,633,o),
(1041,633,cs),
(1131,633,l),
(1131,721,l),
(953,721,ls),
(899,721,o),
(872,698,o),
(872,650,cs),
(872,456,l),
(932,456,ls),
(953,456,o),
(962,440,o),
(962,406,cs),
(962,128,ls),
(962,102,o),
(955,88,o),
(940,88,cs),
(917,88,o),
(916,97,o),
(916,131,cs),
(916,147,o),
(934,192,o),
(934,220,cs),
(934,331,ls),
(934,365,o),
(909,395,o),
(880,395,cs),
(827,395,ls),
(799,395,o),
(776,362,o),
(776,329,cs),
(776,222,ls),
(776,195,o),
(789,151,o),
(789,128,cs),
(789,102,o),
(782,88,o),
(768,88,cs)
);
},
{
closed = 1;
nodes = (
(829,272,ls),
(829,287,o),
(834,295,o),
(844,295,cs),
(867,295,ls),
(876,295,o),
(880,288,o),
(880,274,cs),
(880,246,ls),
(880,201,o),
(857,171,o),
(852,121,c),
(851,148,o),
(829,211,o),
(829,245,cs)
);
}
);
width = 1157;
}
);
}
{
glyphname = bullet.081;
layers = (
{
layerId = m001;
shapes = (
{
closed = 1;
nodes = (
(287,721,o),
(346,721,o),
(347,721,cs),
(355,721,l),
(455,887,l),
(576,887,l),
(469,721,l),
(535,721,l),
(535,633,l),
(437,633,ls),
(419,633,o),
(411,626,o),
(411,614,cs),
(411,538,l),
(453,538,ls),
(501,538,o),
(528,503,o),
(533,435,c),
(840,618,l),
(838,627,o),
(826,633,o),
(800,633,cs),
(552,633,l),
(552,721,l),
(908,721,ls),
(944,721,o),
(966,712,o),
(972,694,c),
(1010,710,ls),
(1027,717,o),
(1046,721,o),
(1067,721,cs),
(1212,721,ls),
(1276,721,o),
(1309,695,o),
(1309,645,cs),
(1309,559,ls),
(1309,518,o),
(1293,498,o),
(1259,498,cs),
(1240,498,ls),
(1218,498,o),
(1207,490,o),
(1207,475,cs),
(1207,124,ls),
(1207,101,o),
(1215,88,o),
(1230,88,cs),
(1245,88,o),
(1253,101,o),
(1253,125,cs),
(1253,318,l),
(1376,318,l),
(1376,133,ls),
(1376,103,o),
(1383,88,o),
(1396,88,cs),
(1411,88,o),
(1418,102,o),
(1418,131,cs),
(1418,717,ls),
(1418,762,o),
(1399,784,o),
(1361,784,cs),
(1040,784,l),
(1040,879,l),
(1461,879,ls),
(1532,879,o),
(1584,840,o),
(1584,770,cs),
(1584,122,ls),
(1584,41,o),
(1553,0,o),
(1490,0,cs),
(1362,0,ls),
(1343,0,o),
(1327,14,o),
(1312,39,c),
(1302,14,o),
(1287,0,o),
(1270,0,cs),
(1143,0,ls),
(1074,0,o),
(1040,44,o),
(1040,132,cs),
(1040,494,ls),
(1040,550,o),
(1075,599,o),
(1128,599,cs),
(1180,599,ls),
(1192,599,o),
(1199,604,o),
(1199,615,cs),
(1199,627,o),
(1192,633,o),
(1178,633,cs),
(1114,633,ls),
(1091,633,o),
(1053,618,o),
(1003,588,c),
(1003,114,ls),
(1003,38,o),
(974,0,o),
(919,0,cs),
(825,0,ls),
(804,0,o),
(791,12,o),
(781,35,c),
(769,12,o),
(755,0,o),
(738,0,cs),
(627,0,ls),
(584,0,o),
(543,41,o),
(543,105,cs),
(543,234,ls),
(543,293,o),
(550,328,o),
(565,340,c),
(535,340,l),
(535,131,ls),
(535,42,o),
(502,-1,o),
(437,-1,cs),
(113,0,ls),
(52,0,o),
(20,38,o),
(20,116,cs),
(20,412,ls),
(20,497,o),
(48,539,o),
(103,539,cs),
(146,539,l),
(146,614,ls),
(146,626,o),
(137,633,o),
(122,633,cs),
(23,633,l),
(23,721,l),
(186,721,ls),
(234,721,o),
(259,697,o),
(259,649,cs),
(259,456,l),
(218,456,ls),
(197,456,o),
(188,440,o),
(188,406,cs),
(188,142,ls),
(188,106,o),
(200,88,o),
(223,88,cs),
(331,88,ls),
(354,88,o),
(366,105,o),
(366,139,cs),
(366,404,ls),
(366,438,o),
(357,455,o),
(336,455,cs),
(287,455,l),
(287,650,ls)
);
},
{
closed = 1;
nodes = (
(701,406,l),
(701,108,ls),
(701,95,o),
(705,88,o),
(713,88,cs),
(723,88,o),
(727,102,o),
(727,128,cs),
(727,357,l),
(836,357,l),
(836,139,ls),
(836,105,o),
(840,88,o),
(848,88,cs),
(857,88,o),
(863,101,o),
(863,127,cs),
(863,524,l),
(670,406,l)
);
}
);
width = 1613;
}
);
}
{
glyphname = bullet.082;
layers = (
{
layerId = m001;
shapes = (
{
closed = 1;
nodes = (
(411.009,17.083,o),
(396.173,0,o),
(362,0,cs),
(254,0,ls),
(237,0,o),
(224,10,o),
(215,29,c),
(206,10,o),
(195,0,o),
(180,0,cs),
(91,0,ls),
(40,0,o),
(15,32,o),
(15,97,cs),
(15,259,ls),
(15,282,o),
(24,301,o),
(43,316,c),
(1,316,l),
(1,380,l),
(122,380,l),
(122,441,ls),
(122,454,o),
(113,460,o),
(94,460,cs),
(21,460,l),
(21,525,l),
(165,525,ls),
(209,525,o),
(225,514,o),
(225,470,cs),
(225,315,l),
(173,315,ls),
(161,315,o),
(138,299,o),
(138,282,cs),
(138,97,ls),
(138,76,o),
(144,65,o),
(155,65,cs),
(166,65,o),
(172,74,o),
(172,92,cs),
(172,234,l),
(262,234,l),
(262,98,ls),
(262,76,o),
(268,65,o),
(279,65,cs),
(290,65,o),
(295,76,o),
(295,98,cs),
(295,546,ls),
(295,569,o),
(280,581,o),
(250,581,cs),
(15,581,l),
(15,646,l),
(327,646,ls),
(379,646,o),
(417,617,o),
(417,566,cs),
(417,380,l),
(520,380,l),
(520,441,ls),
(520,454,o),
(511,460,o),
(492,460,cs),
(419,460,l),
(419,525,l),
(563,525,ls),
(607,525,o),
(623,514,o),
(623,470,cs),
(623,315,l),
(571,315,ls),
(559,315,o),
(536,299,o),
(536,282,cs),
(536,97,ls),
(536,76,o),
(542,65,o),
(553,65,cs),
(564,65,o),
(570,74,o),
(570,92,cs),
(570,234,l),
(660,234,l),
(660,98,ls),
(660,76,o),
(666,65,o),
(677,65,cs),
(688,65,o),
(693,76,o),
(693,98,cs),
(693,546,ls),
(693,569,o),
(678,581,o),
(648,581,cs),
(435,581,l),
(435,646,l),
(725,646,ls),
(777,646,o),
(815,617,o),
(815,566,cs),
(815,90,ls),
(815,26,o),
(801,0,o),
(760,0,cs),
(652,0,ls),
(635,0,o),
(622,10,o),
(613,29,c),
(604,10,o),
(593,0,o),
(578,0,cs),
(489,0,ls),
(448,0,o),
(424,21,o),
(416,62,c)
);
},
{
closed = 1;
nodes = (
(421,296,o),
(429,307,o),
(441,316,c),
(417,316,l),
(417,283,l)
);
}
);
width = 838;
}
);
}
{
glyphname = bullet.083;
layers = (
{
layerId = m001;
shapes = (
{
closed = 1;
nodes = (
(279.73,351.191,o),
(295.735,381,o),
(332,381,cs),
(428,381,l),
(428,446,ls),
(428,459,o),
(419,465,o),
(400,465,cs),
(290,465,l),
(290,530,l),
(471,530,ls),
(515,530,o),
(531,519,o),
(531,475,cs),
(531,314,l),
(417,314,ls),
(399,314,o),
(390,306,o),
(390,291,cs),
(390,93,ls),
(390,74,o),
(402,65,o),
(426,65,cs),
(531,65,l),
(531,0,l),
(483,0,ls),
(469,0,o),
(462,-8,o),
(462,-24,cs),
(462,-64,ls),
(462,-79,o),
(469,-86,o),
(484,-86,cs),
(539,-86,l),
(539,-151,l),
(401,-151,ls),
(360,-151,o),
(339,-132,o),
(339,-94,cs),
(339,-30,ls),
(339,-15,o),
(345,-5,o),
(357,0,c),
(337,0,ls),
(310,0,o),
(290,11,o),
(279,33,c),
(279,0,l),
(231,0,ls),
(217,0,o),
(210,-8,o),
(210,-24,cs),
(210,-64,ls),
(210,-79,o),
(217,-86,o),
(232,-86,cs),
(287,-86,l),
(287,-151,l),
(149,-151,ls),
(108,-151,o),
(87,-132,o),
(87,-94,cs),
(87,-30,ls),
(87,-15,o),
(93,-5,o),
(105,0,c),
(85,0,ls),
(38,0,o),
(15,32,o),
(15,97,cs),
(15,304,ls),
(15,345,o),
(41,381,o),
(80,381,cs),
(176,381,l),
(176,446,ls),
(176,459,o),
(167,465,o),
(148,465,cs),
(38,465,l),
(38,530,l),
(219,530,ls),
(263,530,o),
(279,519,o),
(279,475,cs),
(279,349,l)
);
},
{
closed = 1;
nodes = (
(138,74,o),
(150,65,o),
(174,65,cs),
(269,65,l),
(268,74,o),
(267,85,o),
(267,97,cs),
(267,314,o),
(267,314,o),
(267,314,c),
(165,314,ls),
(147,314,o),
(138,306,o),
(138,291,cs),
(138,93,ls)
);
}
);
width = 556;
}
);
}
{
glyphname = bullet.084;
layers = (
{
layerId = m001;
shapes = (
{
closed = 1;
nodes = (
(536,399,o),
(558,440,o),
(607,440,cs),
(664,440,l),
(664,494,ls),
(664,512,o),
(652,520,o),
(626,520,cs),
(527,520,l),
(527,614,l),
(723,614,ls),
(782,614,o),
(804,599,o),
(804,539,cs),
(804,339,l),
(719,339,ls),
(697,339,o),
(686,331,o),
(686,316,cs),
(686,124,ls),
(686,101,o),
(702,88,o),
(735,88,cs),
(818,88,ls),
(851,88,o),
(867,102,o),
(867,131,cs),
(867,558,l),
(842,562,l),
(836,565,o),
(830,570,o),
(826,580,cs),
(765,731,ls),
(755,753,o),
(750,772,o),
(748,789,c),
(698,789,l),
(698,879,l),
(910,879,ls),
(981,879,o),
(1033,840,o),
(1033,770,cs),
(1033,122,ls),
(1033,39,o),
(1002,-1,o),
(939,-1,cs),
(622,-1,ls),
(573,-1,o),
(542,20,o),
(527,65,c),
(513,20,o),
(483,-1,o),
(437,-1,cs),
(113,0,ls),
(52,0,o),
(20,38,o),
(20,116,cs),
(20,412,ls),
(20,497,o),
(48,539,o),
(103,539,cs),
(146,539,l),
(146,614,ls),
(146,626,o),
(137,633,o),
(122,633,cs),
(23,633,l),
(23,721,l),
(186,721,ls),
(234,721,o),
(259,697,o),
(259,649,cs),
(259,456,l),
(218,456,ls),
(197,456,o),
(188,440,o),
(188,406,cs),
(188,142,ls),
(188,106,o),
(200,88,o),
(223,88,cs),
(331,88,ls),
(354,88,o),
(366,105,o),
(366,139,cs),
(366,404,ls),
(366,438,o),
(357,455,o),
(336,455,cs),
(287,455,l),
(287,650,ls),
(287,698,o),
(314,721,o),
(367,721,cs),
(535,721,l),
(535,633,l),
(437,633,ls),
(419,633,o),
(411,626,o),
(411,614,cs),
(411,538,l),
(453,538,ls),
(508,538,o),
(535,494,o),
(535,408,cs),
(535,396,l)
);
},
{
closed = 1;
nodes = (
(876,634,l),
(876,762,ls),
(876,780,o),
(867,789,o),
(849,789,cs),
(814,789,l)
);
}
);
width = 1064;
}
);
}
{
glyphname = bullet.085;
layers = (
{
layerId = m001;
shapes = (
{
closed = 1;
nodes = (
(20,44,o),
(54,-1,o),
(124,-1,cs),
(482,-1,ls),
(525,-1,o),
(554,19,o),
(567,60,c),
(578,20,o),
(604,0,o),
(644,0,cs),
(815,0,ls),
(871,0,o),
(898,38,o),
(898,114,cs),
(898,595,ls),
(898,621,o),
(904,633,o),
(914,633,cs),
(927,633,ls),
(934,633,o),
(938,622,o),
(938,599,cs),
(938,0,l),
(1104,0,l),
(1104,621,ls),
(1104,687,o),
(1072,721,o),
(1010,721,cs),
(875,721,ls),
(814,721,o),
(782,680,o),
(782,597,cs),
(782,129,ls),
(782,102,o),
(777,88,o),
(765,88,cs),
(744,88,ls),
(732,88,o),
(727,101,o),
(727,124,cs),
(727,388,ls),
(727,426,o),
(732,445,o),
(744,445,cs),
(755,445,l),
(755,641,ls),
(755,694,o),
(731,721,o),
(682,721,cs),
(576,721,l),
(576,770,ls),
(576,840,o),
(524,879,o),
(453,879,cs),
(20,879,l),
(20,784,l),
(351,784,ls),
(391,784,o),
(410,770,o),
(410,743,cs),
(410,125,ls),
(410,101,o),
(396,88,o),
(367,88,cs),
(235,88,ls),
(215,88,o),
(188,106,o),
(188,124,cs),
(188,186,l),
(297,186,ls),
(342,186,o),
(365,210,o),
(365,254,cs),
(365,623,ls),
(365,684,o),
(337,714,o),
(283,714,cs),
(109,714,ls),
(56,714,o),
(20,665,o),
(20,610,cs),
(20,132,ls)
);
},
{
closed = 1;
nodes = (
(188,587,ls),
(188,604,o),
(195,614,o),
(208,614,cs),
(218,614,ls),
(227,614,o),
(233,600,o),
(233,572,cs),
(233,314,ls),
(233,291,o),
(227,280,o),
(215,280,cs),
(188,280,l)
);
},
{
closed = 1;
nodes = (
(576,633,l),
(619,633,ls),
(641,633,o),
(652,626,o),
(652,612,cs),
(652,529,l),
(638,529,ls),
(608,529,o),
(588,517,o),
(576,491,c)
);
}
);
width = 1135;
}
);
}
{
glyphname = bullet.086;
layers = (
{
layerId = m001;
shapes = (
{
closed = 1;
nodes = (
(551,77.171,o),
(554.236,64.925,o),
(567.898,64.925,cs),
(579.585,64.925,o),
(585,73.95,o),
(585,92,cs),
(585,234,l),
(675,234,l),
(675,98,ls),
(675,76,o),
(681,65,o),
(694,65,cs),
(705,65,o),
(710,75,o),
(710,94,cs),
(710,298,ls),
(710,323,o),
(703,335,o),
(688,335,cs),
(644,335,l),
(644,478,ls),
(644,513,o),
(664,530,o),
(703,530,cs),
(834,530,l),
(834,465,l),
(768,465,ls),
(755,465,o),
(749,460,o),
(749,451,cs),
(749,395,l),
(774,395,ls),
(814,395,o),
(834,363,o),
(834,300,cs),
(834,96,ls),
(834,31.956,o),
(810.701,-1.022,o),
(764.103,-1.022,cs),
(763.407,-1.022,o),
(762.706,-1.015,o),
(762,-1,cs),
(665,0,ls),
(651,0,o),
(639,10,o),
(628,29,c),
(621,10,o),
(610,0,o),
(597,0,cs),
(496,0,ls),
(451,0,o),
(428,28,o),
(428,85,cs),
(428,278,ls),
(428,298,o),
(439,316,o),
(461,333,c),
(418,333,l),
(420,323,o),
(421,312,o),
(421,300,cs),
(421,96,ls),
(421,31.956,o),
(397.701,-1.022,o),
(351.103,-1.022,cs),
(350.407,-1.022,o),
(349.706,-1.015,o),
(349,-1,cs),
(252,0,ls),
(238,0,o),
(226,10,o),
(215,29,c),
(208,10,o),
(197,0,o),
(184,0,cs),
(83,0,ls),
(38,0,o),
(15,28,o),
(15,85,cs),
(15,278,ls),
(15,298,o),
(26,316,o),
(48,333,c),
(0,333,l),
(0,396,l),
(99,396,l),
(99,451,ls),
(99,460,o),
(93,465,o),
(82,465,cs),
(17,465,l),
(17,530,l),
(150,530,ls),
(185,530,o),
(203,512,o),
(203,477,cs),
(203,336,l),
(172,336,ls),
(152,336,o),
(138,315,o),
(138,299,cs),
(138,91,ls),
(138,77.171,o),
(141.236,64.925,o),
(154.898,64.925,cs),
(166.585,64.925,o),
(172,73.95,o),
(172,92,cs),
(172,234,l),
(262,234,l),
(262,98,ls),
(262,76,o),
(268,65,o),
(281,65,cs),
(292,65,o),
(297,75,o),
(297,94,cs),
(297,298,ls),
(297,323,o),
(290,335,o),
(275,335,cs),
(231,335,l),
(231,478,ls),
(231,513,o),
(251,530,o),
(290,530,cs),
(421,530,l),
(421,465,l),
(355,465,ls),
(342,465,o),
(336,460,o),
(336,451,cs),
(336,395,l),
(361,395,ls),
(386,395,o),
(404,382,o),
(413,356,c),
(413,396,l),
(512,396,l),
(512,451,ls),
(512,460,o),
(506,465,o),
(495,465,cs),
(430,465,l),
(430,530,l),
(563,530,ls),
(598,530,o),
(616,512,o),
(616,477,cs),
(616,336,l),
(585,336,ls),
(565,336,o),
(551,315,o),
(551,299,cs),
(551,91,ls)
);
}
);
width = 855;
}
);
}
{
glyphname = bullet.101;
layers = (
{
layerId = m001;
shapes = (
{
closed = 1;
nodes = (
(15,414.396,o),
(36.953,463,o),
(88,463,cs),
(322,463,o),
(322,463,o),
(322,463,c),
(322,389,l),
(271,389,ls),
(255,389,o),
(247,383,o),
(247,372,cs),
(247,91,ls),
(247,74,o),
(253,65,o),
(264,65,cs),
(275,65,o),
(281,74,o),
(281,92,cs),
(281,234,l),
(371,234,l),
(371,98,ls),
(371,76,o),
(376,65,o),
(386,65,cs),
(397,65,o),
(402,75,o),
(402,96,cs),
(402,487,ls),
(402,507,o),
(388,517,o),
(359,517,cs),
(183,517,ls),
(144,517,o),
(125,532,o),
(125,562,cs),
(125,643,ls),
(125,666,o),
(148,688,o),
(181,688,cs),
(456,688,ls),
(501,688,o),
(523,670,o),
(523,633,cs),
(523,608,ls),
(523,591,o),
(513,578,o),
(494,570,c),
(514,555,o),
(524,534,o),
(524,507,cs),
(524,90,ls),
(524,30,o),
(501,0,o),
(455,0,cs),
(361,0,ls),
(347,0,o),
(335,10,o),
(324,29,c),
(317,10,o),
(306,0,o),
(293,0,cs),
(200,0,ls),
(149,0,o),
(124,32,o),
(124,97,cs),
(124,398,o),
(124,398,o),
(124,398,c),
(104,398,ls),
(91,398,o),
(78,382,o),
(78,366,cs),
(78,0,l),
(15,0,l),
(15,382,ls)
);
},
{
closed = 1;
nodes = (
(234,590,o),
(236,587,o),
(265,587,cs),
(323,587,l),
(314,589,o),
(309,596,o),
(309,607,cs),
(309,623,l),
(264,623,ls),
(236,623,o),
(234,621,o),
(234,605,cs)
);
},
{
closed = 1;
nodes = (
(383,601,o),
(389,597,o),
(402,597,cs),
(407,597,ls),
(420,597,o),
(426,601,o),
(426,610,cs),
(426,616,ls),
(426,628,o),
(419,634,o),
(406,634,cs),
(402,634,ls),
(389,634,o),
(383,628,o),
(383,616,cs),
(383,610,ls)
);
}
);
width = 549;
}
);
}
{
glyphname = bullet.102;
layers = (
{
layerId = m001;
shapes = (
{
closed = 1;
nodes = (
(15,476.396,o),
(36.953,525,o),
(88,525,cs),
(321,525,l),
(321,451,l),
(270,451,ls),
(254,451,o),
(246,445,o),
(246,434,cs),
(246,91,ls),
(246,74,o),
(252,65,o),
(263,65,cs),
(274,65,o),
(280,74,o),
(280,92,cs),
(280,234,l),
(370,234,l),
(370,98,ls),
(370,76,o),
(375,65,o),
(385,65,cs),
(396,65,o),
(401,75,o),
(401,96,cs),
(401,527,ls),
(401,560,o),
(387,576,o),
(359,576,cs),
(123,576,l),
(123,646,l),
(433,646,ls),
(485,646,o),
(523,617,o),
(523,566,cs),
(523,-130,l),
(123,-130,l),
(123,-62,l),
(402,-62,l),
(402,-1,l),
(360,0,ls),
(346,0,o),
(334,10,o),
(323,29,c),
(316,10,o),
(305,0,o),
(292,0,cs),
(199,0,ls),
(148,0,o),
(123,32,o),
(123,97,cs),
(123,460,o),
(123,460,o),
(123,460,c),
(104,460,ls),
(91,460,o),
(78,444,o),
(78,428,cs),
(78,0,l),
(15,0,l),
(15,444,ls)
);
}
);
width = 547;
}
);
}
{
glyphname = bullet.103;
layers = (
{
layerId = m001;
shapes = (
{
closed = 1;
nodes = (
(15,421.396,o),
(36.953,470,o),
(88,470,cs),
(271,470,ls),
(315,470,o),
(331,459,o),
(331,415,cs),
(331,259,l),
(268,259,ls),
(252,259,o),
(244,253,o),
(244,242,cs),
(244,91,ls),
(244,74,o),
(256,65,o),
(280,65,cs),
(341,65,ls),
(365,65,o),
(377,75,o),
(377,96,cs),
(377,487,ls),
(377,507,o),
(363,517,o),
(334,517,cs),
(180,517,ls),
(141,517,o),
(122,532,o),
(122,562,cs),
(122,643,ls),
(122,666,o),
(145,688,o),
(178,688,cs),
(431,688,ls),
(476,688,o),
(498,670,o),
(498,633,cs),
(498,608,ls),
(498,591,o),
(488,578,o),
(469,570,c),
(489,555,o),
(499,534,o),
(499,507,cs),
(499,90,ls),
(499,29,o),
(476,-1,o),
(430,-1,cs),
(197,-1,ls),
(146,-1,o),
(121,32,o),
(121,97,cs),
(121,249,ls),
(121,290,o),
(147,326,o),
(186,326,cs),
(228,326,l),
(228,386,ls),
(228,399,o),
(219,405,o),
(200,405,cs),
(104,405,ls),
(91,405,o),
(78,389,o),
(78,373,cs),
(78,0,l),
(15,0,l),
(15,389,ls)
);
},
{
closed = 1;
nodes = (
(231,590,o),
(233,587,o),
(262,587,cs),
(298,587,l),
(289,589,o),
(284,596,o),
(284,607,cs),
(284,623,l),
(261,623,ls),
(233,623,o),
(231,621,o),
(231,605,cs)
);
},
{
closed = 1;
nodes = (
(358,601,o),
(364,597,o),
(377,597,cs),
(382,597,ls),
(395,597,o),
(401,601,o),
(401,610,cs),
(401,616,ls),
(401,628,o),
(394,634,o),
(381,634,cs),
(377,634,ls),
(364,634,o),
(358,628,o),
(358,616,cs),
(358,610,ls)
);
}
);
width = 524;
}
);
}
{
glyphname = bullet.110;
layers = (
{
layerId = m001;
shapes = (
{
closed = 1;
nodes = (
(545,587,o),
(564,614,o),
(606,614,cs),
(788,614,l),
(787,513,l),
(717,513,ls),
(695,513,o),
(684,505,o),
(684,490,cs),
(684,124,ls),
(684,101,o),
(693,88,o),
(708,88,cs),
(723,88,o),
(731,101,o),
(731,125,cs),
(731,318,l),
(853,318,l),
(853,133,ls),
(853,103,o),
(860,88,o),
(874,88,cs),
(889,88,o),
(895,102,o),
(895,131,cs),
(895,558,l),
(871,562,l),
(864,565,o),
(859,570,o),
(855,580,cs),
(793,731,ls),
(784,753,o),
(778,772,o),
(777,789,c),
(727,789,l),
(727,879,l),
(939,879,ls),
(1010,879,o),
(1061,840,o),
(1061,770,cs),
(1061,122,ls),
(1061,41,o),
(1030,0,o),
(968,0,cs),
(840,0,ls),
(821,0,o),
(804,14,o),
(789,39,c),
(780,14,o),
(765,0,o),
(747,0,cs),
(621,0,ls),
(573,0,o),
(542,20,o),
(527,61,c),
(514,19,o),
(486,-1,o),
(441,-1,cs),
(124,-1,ls),
(54,-1,o),
(20,44,o),
(20,132,cs),
(20,610,ls),
(20,665,o),
(56,714,o),
(109,714,cs),
(301,714,l),
(301,614,l),
(220,614,ls),
(199,614,o),
(188,606,o),
(188,591,cs),
(188,124,ls),
(188,108,o),
(196,88,o),
(227,88,cs),
(229,88,o),
(232,88,o),
(235,88,cs),
(327,88,o),
(327,88,o),
(327,88,cs),
(355,88,o),
(369,101,o),
(369,125,cs),
(369,743,ls),
(369,770,o),
(350,784,o),
(310,784,cs),
(20,784,l),
(20,879,l),
(412,879,ls),
(483,879,o),
(535,840,o),
(535,770,cs),
(535,573,l)
);
},
{
closed = 1;
nodes = (
(905,634,l),
(905,762,ls),
(905,780,o),
(895,789,o),
(878,789,cs),
(842,789,l)
);
}
);
width = 1091;
}
);
}
{
glyphname = bullet.111;
layers = (
{
layerId = m001;
shapes = (
{
closed = 1;
nodes = (
(273.954,154,o),
(286.083,127,o),
(295,127,cs),
(299,127,o),
(301,135,o),
(301,151,cs),
(301,546,ls),
(301,566,o),
(287,576,o),
(258,576,cs),
(15,576,l),
(15,646,l),
(333,646,ls),
(385,646,o),
(423,617,o),
(423,566,cs),
(423,90,ls),
(423,29,o),
(401,-1,o),
(358,-1,cs),
(318,-1,ls),
(279.296,-1,o),
(268.784,69.157,o),
(253,66,c),
(250,33,o),
(240,9,o),
(223,-8,c),
(159,-8,l),
(167,3,o),
(171,28,o),
(171,66,cs),
(171,420,ls),
(171,441,o),
(167,451,o),
(160,451,cs),
(153,451,ls),
(143,451,o),
(138,444,o),
(138,431,cs),
(138,-1,l),
(15,-1,l),
(15,448,ls),
(15,489,o),
(41,525,o),
(80,525,cs),
(188,525,ls),
(232,525,o),
(254,500,o),
(254,450,cs),
(254,151,l),
(257,153,o),
(259,154,o),
(262,154,cs)
);
},
{
closed = 1;
nodes = (
(655,-62,l),
(655,-1,l),
(658,0,l),
(630,0,o),
(607,11,o),
(590,34,c),
(585,18,o),
(576,7,o),
(563,0,c),
(457,0,l),
(470,23,o),
(476,49,o),
(476,78,cs),
(476,437,ls),
(476,456,o),
(473,465,o),
(466,465,cs),
(450,465,l),
(450,530,l),
(563,530,ls),
(588,530,o),
(600,517,o),
(600,491,cs),
(600,118,l),
(603,93,o),
(612,80,o),
(628,80,cs),
(644,80,o),
(652,90,o),
(652,111,cs),
(652,298,ls),
(652,322,o),
(645,334,o),
(632,334,cs),
(618,334,l),
(618,470,ls),
(618,510,o),
(633,530,o),
(664,530,cs),
(776,530,l),
(776,465,l),
(732,465,ls),
(717,465,o),
(709,458,o),
(709,444,cs),
(709,394,l),
(728,394,ls),
(760,394,o),
(776,374,o),
(776,334,cs),
(776,-130,l),
(399,-130,l),
(399,-62,l)
);
}
);
width = 800;
}
);
}
{
glyphname = bullet.112;
layers = (
{
layerId = m001;
shapes = (
{
closed = 1;
nodes = (
(273.954,154,o),
(286.083,127,o),
(295,127,cs),
(299,127,o),
(301,135,o),
(301,151,cs),
(301,546,ls),
(301,566,o),
(287,576,o),
(258,576,cs),
(15,576,l),
(15,646,l),
(333,646,ls),
(385,646,o),
(423,617,o),
(423,566,cs),
(423,90,ls),
(423,29,o),
(401,-1,o),
(358,-1,cs),
(318,-1,ls),
(279.296,-1,o),
(268.784,69.157,o),
(253,66,c),
(250,33,o),
(240,9,o),
(223,-8,c),
(159,-8,l),
(167,3,o),
(171,28,o),
(171,66,cs),
(171,420,ls),
(171,441,o),
(167,451,o),
(160,451,cs),
(153,451,ls),
(143,451,o),
(138,444,o),
(138,431,cs),
(138,-1,l),
(15,-1,l),
(15,448,ls),
(15,489,o),
(41,525,o),
(80,525,cs),
(188,525,ls),
(232,525,o),
(254,500,o),
(254,450,cs),
(254,151,l),
(257,153,o),
(259,154,o),
(262,154,cs)
);
},
{
closed = 1;
nodes = (
(499,-36,l),
(498,-53,o),
(502,-61,o),
(513,-61,cs),
(520,-61,o),
(530,-59,o),
(543,-54,cs),
(589,-39,ls),
(600,-36,o),
(610,-34,o),
(620,-34,cs),
(639,-34,o),
(651,-39,o),
(655,-49,c),
(655,-1,l),
(658,0,l),
(630,0,o),
(607,11,o),
(590,34,c),
(585,18,o),
(576,7,o),
(563,0,c),
(457,0,l),
(470,23,o),
(476,49,o),
(476,78,cs),
(476,437,ls),
(476,456,o),
(473,465,o),
(466,465,cs),
(450,465,l),
(450,530,l),
(563,530,ls),
(588,530,o),
(600,517,o),
(600,491,cs),
(600,118,l),
(603,93,o),
(612,80,o),
(628,80,cs),
(644,80,o),
(652,90,o),
(652,111,cs),
(652,298,ls),
(652,322,o),
(645,334,o),
(632,334,cs),
(618,334,l),
(618,470,ls),
(618,510,o),
(633,530,o),
(664,530,cs),
(776,530,l),
(776,465,l),
(732,465,ls),
(717,465,o),
(709,458,o),
(709,444,cs),
(709,394,l),
(728,394,ls),
(760,394,o),
(776,374,o),
(776,334,cs),
(776,-130,l),
(671,-130,l),
(666,-113,o),
(650,-104,o),
(623,-104,cs),
(615,-104,o),
(608,-105,o),
(601,-107,cs),
(490,-142,ls),
(483,-144,o),
(475,-145,o),
(467,-145,cs),
(430,-145,o),
(398,-121,o),
(398,-85,cs),
(398,-36,l)
);
}
);
width = 801;
}
);
}
{
glyphname = bullet.117;
layers = (
{
layerId = m001;
shapes = (
{
closed = 1;
nodes = (
(279,182,o),
(209,184,o),
(209,243,cs),
(209,253,o),
(212,266,o),
(216,280,cs),
(271,457,l),
(271,650,ls),
(271,698,o),
(288,721,o),
(323,721,cs),
(374,721,l),
(435,895,l),
(531,895,l),
(467,721,l),
(486,721,ls),
(512,721,o),
(535,694,o),
(535,665,cs),
(535,131,ls),
(535,42,o),
(502,-1,o),
(437,-1,cs),
(113,0,ls),
(52,0,o),
(20,38,o),
(20,116,cs),
(20,412,ls),
(20,497,o),
(48,539,o),
(103,539,cs),
(120,539,l),
(120,614,ls),
(120,626,o),
(112,633,o),
(97,633,cs),
(23,633,l),
(23,721,l),
(161,721,ls),
(208,721,o),
(233,697,o),
(233,649,cs),
(233,456,l),
(218,456,ls),
(197,456,o),
(188,440,o),
(188,406,cs),
(188,142,ls),
(188,106,o),
(200,88,o),
(223,88,cs),
(331,88,ls),
(354,88,o),
(366,105,o),
(366,139,cs),
(366,182,l),
(286,182,ls)
);
},
{
closed = 1;
nodes = (
(640,-49,l),
(638,-72,o),
(644,-83,o),
(659,-83,cs),
(668,-83,o),
(682,-80,o),
(699,-73,cs),
(762,-53,ls),
(777,-49,o),
(791,-46,o),
(804,-46,cs),
(830,-46,o),
(846,-53,o),
(852,-67,c),
(852,-1,l),
(856,0,l),
(818,0,o),
(787,15,o),
(763,46,c),
(757,24,o),
(744,10,o),
(727,0,c),
(582,0,l),
(600,31,o),
(608,67,o),
(608,106,cs),
(608,595,ls),
(608,621,o),
(604,633,o),
(595,633,cs),
(573,633,l),
(573,721,l),
(727,721,ls),
(761,721,o),
(777,704,o),
(777,668,cs),
(777,161,l),
(781,127,o),
(793,109,o),
(815,109,cs),
(837,109,o),
(848,122,o),
(848,151,cs),
(848,406,ls),
(848,438,o),
(838,455,o),
(821,455,cs),
(802,455,l),
(802,640,ls),
(802,694,o),
(822,721,o),
(864,721,cs),
(1017,721,l),
(1017,633,l),
(957,633,ls),
(936,633,o),
(925,623,o),
(925,604,cs),
(925,536,l),
(951,536,ls),
(995,536,o),
(1017,509,o),
(1017,455,cs),
(1017,-177,l),
(874,-177,l),
(867,-154,o),
(845,-142,o),
(808,-142,cs),
(797,-142,o),
(788,-143,o),
(778,-146,cs),
(627,-193,ls),
(618,-196,o),
(607,-197,o),
(596,-197,cs),
(546,-197,o),
(502,-165,o),
(502,-116,cs),
(502,-49,l)
);
},
{
closed = 1;
nodes = (
(320,288,o),
(333,280,o),
(361,280,cs),
(395,280,ls),
(422,280,o),
(435,298,o),
(435,332,cs),
(435,429,ls),
(435,446,o),
(426,455,o),
(406,455,cs),
(367,455,l),
(324,327,ls),
(321,317,o),
(320,310,o),
(320,303,cs)
);
},
{
closed = 1;
nodes = (
(453,535,l),
(453,616,ls),
(453,627,o),
(449,633,o),
(440,633,cs),
(431,633,l),
(396,535,l)
);
}
);
width = 1052;
}
);
}
{
glyphname = bullet.121;
layers = (
{
layerId = m001;
shapes = (
{
closed = 1;
nodes = (
(637,-49,l),
(635,-72,o),
(641,-83,o),
(656,-83,cs),
(665,-83,o),
(679,-80,o),
(697,-73,cs),
(759,-53,ls),
(774,-49,o),
(788,-46,o),
(802,-46,cs),
(827,-46,o),
(844,-53,o),
(849,-67,c),
(849,-1,l),
(853,0,l),
(815,0,o),
(784,15,o),
(761,46,c),
(754,24,o),
(742,10,o),
(724,0,c),
(580,0,l),
(597,31,o),
(606,67,o),
(606,106,cs),
(606,595,ls),
(606,621,o),
(601,633,o),
(592,633,cs),
(570,633,l),
(570,721,l),
(724,721,ls),
(758,721,o),
(774,704,o),
(774,668,cs),
(774,161,l),
(778,127,o),
(791,109,o),
(812,109,cs),
(834,109,o),
(845,122,o),
(845,151,cs),
(845,406,ls),
(845,438,o),
(836,455,o),
(818,455,cs),
(799,455,l),
(799,640,ls),
(799,694,o),
(819,721,o),
(861,721,cs),
(1014,721,l),
(1014,633,l),
(954,633,ls),
(934,633,o),
(923,623,o),
(923,604,cs),
(923,536,l),
(948,536,ls),
(992,536,o),
(1014,509,o),
(1014,455,cs),
(1014,-177,l),
(871,-177,l),
(864,-154,o),
(842,-142,o),
(806,-142,cs),
(795,-142,o),
(785,-143,o),
(776,-146,cs),
(625,-193,ls),
(615,-196,o),
(604,-197,o),
(593,-197,cs),
(543,-197,o),
(499,-165,o),
(499,-116,cs),
(499,-49,l)
);
},
{
closed = 1;
nodes = (
(20,610,ls),
(20,665,o),
(56,714,o),
(109,714,cs),
(301,714,l),
(301,614,l),
(220,614,ls),
(199,614,o),
(188,606,o),
(188,591,cs),
(188,124,ls),
(188,106,o),
(215,88,o),
(235,88,cs),
(327,88,ls),
(355,88,o),
(369,101,o),
(369,125,cs),
(369,743,ls),
(369,770,o),
(350,784,o),
(310,784,cs),
(20,784,l),
(20,879,l),
(412,879,ls),
(483,879,o),
(535,840,o),
(535,770,cs),
(535,122,ls),
(535,39,o),
(503,-1,o),
(441,-1,cs),
(124,-1,ls),
(54,-1,o),
(20,44,o),
(20,132,cs)
);
}
);
width = 1047;
}
);
}
{
glyphname = bullet.122;
layers = (
{
layerId = m001;
shapes = (
{
closed = 1;
nodes = (
(15,374,ls),
(15,415,o),
(41,451,o),
(80,451,cs),
(214,451,l),
(213,377,l),
(162,377,ls),
(146,377,o),
(138,371,o),
(138,360,cs),
(138,91,ls),
(138,74,o),
(144,65,o),
(155,65,cs),
(166,65,o),
(172,74,o),
(172,92,cs),
(172,234,l),
(262,234,l),
(262,98,ls),
(262,76,o),
(267,65,o),
(277,65,cs),
(288,65,o),
(293,75,o),
(293,96,cs),
(293,410,l),
(275,413,l),
(270,415,o),
(266,419,o),
(263,426,cs),
(218,537,ls),
(211,553,o),
(207,567,o),
(206,580,c),
(169,580,l),
(169,646,l),
(325,646,ls),
(377,646,o),
(415,617,o),
(415,566,cs),
(415,90,ls),
(415,30,o),
(392,0,o),
(346,0,cs),
(252,0,ls),
(238,0,o),
(226,10,o),
(215,29,c),
(208,10,o),
(197,0,o),
(184,0,cs),
(91,0,ls),
(40,0,o),
(15,32,o),
(15,97,cs)
);
},
{
closed = 1;
nodes = (
(654,-62,l),
(654,-1,l),
(657,0,l),
(629,0,o),
(606,11,o),
(589,34,c),
(584,18,o),
(575,7,o),
(562,0,c),
(456,0,l),
(469,23,o),
(475,49,o),
(475,78,cs),
(475,437,ls),
(475,456,o),
(472,465,o),
(465,465,cs),
(449,465,l),
(449,530,l),
(562,530,ls),
(587,530,o),
(599,517,o),
(599,491,cs),
(599,118,l),
(602,93,o),
(611,80,o),
(627,80,cs),
(643,80,o),
(651,90,o),
(651,111,cs),
(651,298,ls),
(651,322,o),
(644,334,o),
(631,334,cs),
(617,334,l),
(617,470,ls),
(617,510,o),
(632,530,o),
(663,530,cs),
(775,530,l),
(775,465,l),
(731,465,ls),
(716,465,o),
(708,458,o),
(708,444,cs),
(708,394,l),
(727,394,ls),
(759,394,o),
(775,374,o),
(775,334,cs),
(775,-130,l),
(398,-130,l),
(398,-62,l)
);
},
{
closed = 1;
nodes = (
(300,466,l),
(300,560,ls),
(300,573,o),
(293,580,o),
(280,580,cs),
(254,580,l)
);
}
);
width = 800;
}
);
}
{
glyphname = bullet.126;
layers = (
{
layerId = m001;
shapes = (
{
closed = 1;
nodes = (
(14,399,l),
(231,607,l),
(233,625,o),
(220,633,o),
(196,633,cs),
(27,633,l),
(27,721,l),
(284,721,ls),
(323,721,o),
(344,712,o),
(350,693,c),
(378,710,ls),
(391,717,o),
(404,721,o),
(422,721,cs),
(497,721,ls),
(558,721,o),
(589,680,o),
(589,599,cs),
(589,-1,l),
(423,-1,l),
(423,559,ls),
(423,593,o),
(421,619,o),
(397,596,cs),
(374,573,l),
(374,114,ls),
(374,38,o),
(347,0,o),
(293,0,cs),
(110,-1,ls),
(67,-1,o),
(26,41,o),
(26,105,cs),
(26,196,ls),
(26,248,o),
(33,279,o),
(48,291,c),
(14,291,l)
);
},
{
closed = 1;
nodes = (
(906,-84,l),
(906,-1,l),
(910,0,l),
(872,0,o),
(841,15,o),
(818,46,c),
(811,24,o),
(799,10,o),
(781,0,c),
(637,0,l),
(655,31,o),
(663,67,o),
(663,106,cs),
(663,595,ls),
(663,621,o),
(659,633,o),
(649,633,cs),
(627,633,l),
(627,721,l),
(781,721,ls),
(815,721,o),
(831,704,o),
(831,668,cs),
(831,161,l),
(836,127,o),
(848,109,o),
(870,109,cs),
(891,109,o),
(902,122,o),
(902,151,cs),
(902,406,ls),
(902,438,o),
(893,455,o),
(875,455,cs),
(856,455,l),
(856,640,ls),
(856,694,o),
(876,721,o),
(919,721,cs),
(1071,721,l),
(1071,633,l),
(1011,633,ls),
(991,633,o),
(980,623,o),
(980,604,cs),
(980,536,l),
(1006,536,ls),
(1049,536,o),
(1071,509,o),
(1071,455,cs),
(1071,-177,l),
(558,-177,l),
(558,-84,l)
);
},
{
closed = 1;
nodes = (
(184,362,l),
(184,108,ls),
(184,95,o),
(189,88,o),
(201,88,cs),
(223,88,ls),
(234,88,o),
(240,101,o),
(240,127,cs),
(240,464,l),
(150,362,l)
);
}
);
width = 1107;
}
);
}
{
glyphname = bullet.127;
layers = (
{
layerId = m001;
shapes = (
{
closed = 1;
nodes = (
(15,448,ls),
(15,489,o),
(41,525,o),
(80,525,cs),
(213,525,l),
(213,451,l),
(162,451,ls),
(146,451,o),
(138,445,o),
(138,434,cs),
(138,91,ls),
(138,74,o),
(144,65,o),
(155,65,cs),
(166,65,o),
(172,74,o),
(172,92,cs),
(172,234,l),
(262,234,l),
(262,98,ls),
(262,76,o),
(267,65,o),
(277,65,cs),
(288,65,o),
(293,75,o),
(293,96,cs),
(293,527,ls),
(293,560,o),
(279,576,o),
(251,576,cs),
(15,576,l),
(15,646,l),
(325,646,ls),
(377,646,o),
(415,617,o),
(415,566,cs),
(415,90,ls),
(415,30,o),
(392,0,o),
(346,0,cs),
(252,0,ls),
(238,0,o),
(226,10,o),
(215,29,c),
(208,10,o),
(197,0,o),
(184,0,cs),
(91,0,ls),
(40,0,o),
(15,32,o),
(15,97,cs)
);
},
{
closed = 1;
nodes = (
(653,-62,l),
(653,-1,l),
(656,0,l),
(628,0,o),
(605,11,o),
(588,34,c),
(583,18,o),
(574,7,o),
(561,0,c),
(455,0,l),
(468,23,o),
(474,49,o),
(474,78,cs),
(474,437,ls),
(474,456,o),
(471,465,o),
(464,465,cs),
(448,465,l),
(448,530,l),
(561,530,ls),
(586,530,o),
(598,517,o),
(598,491,cs),
(598,118,l),
(601,93,o),
(610,80,o),
(626,80,cs),
(642,80,o),
(650,90,o),
(650,111,cs),
(650,298,ls),
(650,322,o),
(643,334,o),
(630,334,cs),
(616,334,l),
(616,470,ls),
(616,510,o),
(631,530,o),
(662,530,cs),
(774,530,l),
(774,465,l),
(730,465,ls),
(715,465,o),
(707,458,o),
(707,444,cs),
(707,394,l),
(726,394,ls),
(758,394,o),
(774,374,o),
(774,334,cs),
(774,-130,l),
(397,-130,l),
(397,-62,l)
);
}
);
width = 799;
}
);
}
{
glyphname = bullet.128;
layers = (
{
layerId = m001;
shapes = (
{
closed = 1;
nodes = (
(15,448,ls),
(15,489,o),
(41,525,o),
(80,525,cs),
(213,525,l),
(213,451,l),
(162,451,ls),
(146,451,o),
(138,445,o),
(138,434,cs),
(138,91,ls),
(138,74,o),
(144,65,o),
(155,65,cs),
(166,65,o),
(172,74,o),
(172,92,cs),
(172,234,l),
(262,234,l),
(262,98,ls),
(262,76,o),
(267,65,o),
(277,65,cs),
(288,65,o),
(293,75,o),
(293,96,cs),
(293,527,ls),
(293,560,o),
(279,576,o),
(251,576,cs),
(15,576,l),
(15,646,l),
(325,646,ls),
(377,646,o),
(415,617,o),
(415,566,cs),
(415,90,ls),
(415,30,o),
(392,0,o),
(346,0,cs),
(252,0,ls),
(238,0,o),
(226,10,o),
(215,29,c),
(208,10,o),
(197,0,o),
(184,0,cs),
(91,0,ls),
(40,0,o),
(15,32,o),
(15,97,cs)
);
},
{
closed = 1;
nodes = (
(497,-36,l),
(496,-53,o),
(500,-61,o),
(511,-61,cs),
(518,-61,o),
(528,-59,o),
(541,-54,cs),
(587,-39,ls),
(598,-36,o),
(608,-34,o),
(618,-34,cs),
(637,-34,o),
(649,-39,o),
(653,-49,c),
(653,-1,l),
(656,0,l),
(628,0,o),
(605,11,o),
(588,34,c),
(583,18,o),
(574,7,o),
(561,0,c),
(455,0,l),
(468,23,o),
(474,49,o),
(474,78,cs),
(474,437,ls),
(474,456,o),
(471,465,o),
(464,465,cs),
(448,465,l),
(448,530,l),
(561,530,ls),
(586,530,o),
(598,517,o),
(598,491,cs),
(598,118,l),
(601,93,o),
(610,80,o),
(626,80,cs),
(642,80,o),
(650,90,o),
(650,111,cs),
(650,298,ls),
(650,322,o),
(643,334,o),
(630,334,cs),
(616,334,l),
(616,470,ls),
(616,510,o),
(631,530,o),
(662,530,cs),
(774,530,l),
(774,465,l),
(730,465,ls),
(715,465,o),
(707,458,o),
(707,444,cs),
(707,394,l),
(726,394,ls),
(758,394,o),
(774,374,o),
(774,334,cs),
(774,-130,l),
(669,-130,l),
(664,-113,o),
(648,-104,o),
(621,-104,cs),
(613,-104,o),
(606,-105,o),
(599,-107,cs),
(488,-142,ls),
(481,-144,o),
(473,-145,o),
(465,-145,cs),
(428,-145,o),
(396,-121,o),
(396,-85,cs),
(396,-36,l)
);
}
);
width = 800;
}
);
}
{
glyphname = bullet.133;
layers = (
{
layerId = m001;
shapes = (
{
closed = 1;
nodes = (
(679,-49,l),
(678,-72,o),
(683,-83,o),
(698,-83,cs),
(708,-83,o),
(721,-80,o),
(739,-73,cs),
(802,-53,ls),
(816,-49,o),
(830,-46,o),
(844,-46,cs),
(870,-46,o),
(886,-53,o),
(891,-67,c),
(891,-1,l),
(895,0,l),
(857,0,o),
(826,15,o),
(803,46,c),
(796,24,o),
(784,10,o),
(766,0,c),
(622,0,l),
(640,31,o),
(648,67,o),
(648,106,cs),
(648,595,ls),
(648,621,o),
(644,633,o),
(634,633,cs),
(612,633,l),
(612,721,l),
(766,721,ls),
(800,721,o),
(816,704,o),
(816,668,cs),
(816,161,l),
(821,127,o),
(833,109,o),
(855,109,cs),
(876,109,o),
(887,122,o),
(887,151,cs),
(887,406,ls),
(887,438,o),
(878,455,o),
(860,455,cs),
(841,455,l),
(841,640,ls),
(841,694,o),
(861,721,o),
(904,721,cs),
(1056,721,l),
(1056,633,l),
(996,633,ls),
(976,633,o),
(965,623,o),
(965,604,cs),
(965,536,l),
(991,536,ls),
(1034,536,o),
(1056,509,o),
(1056,455,cs),
(1056,-177,l),
(913,-177,l),
(906,-154,o),
(885,-142,o),
(848,-142,cs),
(837,-142,o),
(827,-143,o),
(818,-146,cs),
(667,-193,ls),
(657,-196,o),
(646,-197,o),
(635,-197,cs),
(585,-197,o),
(542,-165,o),
(542,-116,cs),
(542,-49,l)
);
},
{
closed = 1;
nodes = (
(67,442,l),
(41,425,o),
(27,400,o),
(27,371,cs),
(27,112,ls),
(27,37,o),
(54,0,o),
(109,0,cs),
(280,0,ls),
(336,0,o),
(363,38,o),
(363,114,cs),
(363,595,ls),
(363,621,o),
(369,633,o),
(380,633,cs),
(392,633,ls),
(399,633,o),
(403,622,o),
(403,599,cs),
(403,0,l),
(569,0,l),
(569,621,ls),
(569,687,o),
(538,721,o),
(475,721,cs),
(340,721,ls),
(279,721,o),
(248,680,o),
(248,597,cs),
(248,129,ls),
(248,102,o),
(242,88,o),
(230,88,cs),
(210,88,ls),
(197,88,o),
(192,101,o),
(192,124,cs),
(192,381,ls),
(192,423,o),
(199,445,o),
(214,445,cs),
(220,445,l),
(220,641,ls),
(220,694,o),
(196,721,o),
(147,721,cs),
(30,721,l),
(30,633,l),
(84,633,ls),
(106,633,o),
(117,626,o),
(117,612,cs),
(117,529,l),
(3,529,l),
(3,442,l)
);
}
);
width = 1089;
}
);
}
{
glyphname = bullet.134;
layers = (
{
layerId = m001;
shapes = (
{
closed = 1;
nodes = (
(15,448,ls),
(15,489,o),
(41,525,o),
(80,525,cs),
(208,525,ls),
(248,525,o),
(268,503,o),
(268,458,cs),
(268,187,ls),
(268,154,o),
(251,137,o),
(218,137,cs),
(138,137,l),
(138,91,ls),
(138,78,o),
(158,65,o),
(173,65,cs),
(270,65,ls),
(291,65,o),
(301,74,o),
(301,92,cs),
(301,546,ls),
(301,566,o),
(287,576,o),
(258,576,cs),
(15,576,l),
(15,646,l),
(333,646,ls),
(385,646,o),
(423,617,o),
(423,566,cs),
(423,90,ls),
(423,29,o),
(400,-1,o),
(354,-1,cs),
(91,-1,ls),
(40,-1,o),
(15,32,o),
(15,97,cs)
);
},
{
closed = 1;
nodes = (
(660,-62,l),
(660,-1,l),
(663,0,l),
(635,0,o),
(612,11,o),
(595,34,c),
(590,18,o),
(581,7,o),
(568,0,c),
(462,0,l),
(475,23,o),
(481,49,o),
(481,78,cs),
(481,437,ls),
(481,456,o),
(478,465,o),
(471,465,cs),
(455,465,l),
(455,530,l),
(568,530,ls),
(593,530,o),
(605,517,o),
(605,491,cs),
(605,118,l),
(608,93,o),
(617,80,o),
(633,80,cs),
(649,80,o),
(657,90,o),
(657,111,cs),
(657,298,ls),
(657,322,o),
(650,334,o),
(637,334,cs),
(623,334,l),
(623,470,ls),
(623,510,o),
(638,530,o),
(669,530,cs),
(781,530,l),
(781,465,l),
(737,465,ls),
(722,465,o),
(714,458,o),
(714,444,cs),
(714,394,l),
(733,394,ls),
(765,394,o),
(781,374,o),
(781,334,cs),
(781,-130,l),
(404,-130,l),
(404,-62,l)
);
},
{
closed = 1;
nodes = (
(158,206,ls),
(167,206,o),
(171,214,o),
(171,231,cs),
(171,420,ls),
(171,441,o),
(167,451,o),
(160,451,cs),
(153,451,ls),
(143,451,o),
(138,444,o),
(138,431,cs),
(138,206,l)
);
}
);
width = 806;
}
);
}
{
glyphname = bullet.145;
layers = (
{
layerId = m001;
shapes = (
{
closed = 1;
nodes = (
(15,385,l),
(109,385,l),
(109,321,l),
(170,404,l),
(170.062,406.543,o),
(170.093,409.005,o),
(170.093,411.386,cs),
(170.093,447.404,o),
(162.946,465,o),
(147,465,cs),
(16,465,l),
(16,530,l),
(194,530,ls),
(207,530,o),
(220,520,o),
(231,499,c),
(247,513,l),
(260,521,o),
(277,525,o),
(299,525,cs),
(464,525,ls),
(508,525,o),
(524,514,o),
(524,470,cs),
(524,314,l),
(461,314,ls),
(445,314,o),
(437,308,o),
(437,297,cs),
(437,91,ls),
(437,74,o),
(449,65,o),
(473,65,cs),
(534,65,ls),
(558,65,o),
(570,75,o),
(570,96,cs),
(570,547,ls),
(570,570,o),
(556,581,o),
(527,581,cs),
(314,581,l),
(314,646,l),
(602,646,ls),
(654,646,o),
(692,617,o),
(692,566,cs),
(692,-130,l),
(587,-130,l),
(582,-113,o),
(566,-104,o),
(539,-104,cs),
(531,-104,o),
(524,-105,o),
(517,-107,cs),
(406,-142,ls),
(399,-144,o),
(391,-145,o),
(383,-145,cs),
(346,-145,o),
(314,-121,o),
(314,-85,cs),
(314,-36,l),
(415,-36,l),
(414,-53,o),
(418,-61,o),
(429,-61,cs),
(436,-61,o),
(446,-59,o),
(459,-54,cs),
(505,-39,ls),
(516,-36,o),
(526,-34,o),
(536,-34,cs),
(555,-34,o),
(567,-39,o),
(571,-49,c),
(571,-1,l),
(390,-1,ls),
(339,-1,o),
(314,32,o),
(314,97,cs),
(314,304,ls),
(314,345,o),
(340,381,o),
(379,381,cs),
(421,381,l),
(421,441,ls),
(421,454,o),
(412,460,o),
(393,460,cs),
(338,460,l),
(313,458,o),
(290,443,o),
(271,414,c),
(271,80,ls),
(271,27,o),
(252,0,o),
(213,0,cs),
(77,-1,ls),
(36,-1,o),
(15,26,o),
(15,81,cs)
);
},
{
closed = 1;
nodes = (
(135,69,o),
(139,65,o),
(147,65,cs),
(164,65,ls),
(172,65,o),
(176,75,o),
(176,94,cs),
(176,294,l),
(135,231,l),
(135,78,ls)
);
}
);
width = 716;
}
);
}
{
glyphname = bullet.146;
layers = (
{
layerId = m001;
shapes = (
{
closed = 1;
nodes = (
(20,524,l),
(148,524,l),
(148,437,l),
(231,524,l),
(231,528,o),
(231,533,o),
(231,537,cs),
(231,600,o),
(222,633,o),
(200,633,cs),
(22,633,l),
(22,721,l),
(264,721,l),
(328,716,o),
(362,675,o),
(366,599,c),
(363,608,o),
(386,614,o),
(434,614,cs),
(686,614,l),
(686,513,l),
(619,513,l),
(601,512,o),
(592,503,o),
(592,490,cs),
(592,124,ls),
(592,101,o),
(608,88,o),
(641,88,cs),
(724,88,ls),
(757,88,o),
(773,102,o),
(773,131,cs),
(773,558,l),
(748,562,l),
(742,565,o),
(736,570,o),
(732,580,cs),
(697,667,l),
(532,667,ls),
(474,667,o),
(445,693,o),
(445,746,cs),
(445,885,ls),
(445,944,o),
(475,974,o),
(535,974,cs),
(929,974,l),
(929,906,l),
(600,906,ls),
(580,906,o),
(570,897,o),
(570,876,cs),
(570,784,ls),
(570,757,o),
(578,743,o),
(595,743,cs),
(665,743,l),
(660,758,o),
(656,774,o),
(655,789,c),
(604,789,l),
(604,879,l),
(816,879,ls),
(887,879,o),
(939,840,o),
(939,770,cs),
(939,122,ls),
(939,39,o),
(908,-1,o),
(845,-1,cs),
(528,-1,ls),
(459,-1,o),
(425,44,o),
(425,132,cs),
(425,509,o),
(425,509,o),
(425,509,c),
(404,502,o),
(386,484,o),
(369,456,c),
(369,109,ls),
(369,37,o),
(343,0,o),
(290,0,cs),
(105,-1,ls),
(49,-1,o),
(20,35,o),
(20,110,cs)
);
},
{
closed = 1;
nodes = (
(184,94,o),
(189,88,o),
(200,88,cs),
(223,88,ls),
(234,88,o),
(240,102,o),
(240,128,cs),
(240,380,l),
(184,314,l),
(184,106,ls)
);
},
{
closed = 1;
nodes = (
(782,634,l),
(782,762,ls),
(782,780,o),
(773,789,o),
(755,789,cs),
(720,789,l)
);
}
);
width = 971;
}
);
}
{
glyphname = bullet.147;
layers = (
{
layerId = m001;
shapes = (
{
closed = 1;
nodes = (
(20,524,l),
(148,524,l),
(148,437,l),
(231,524,l),
(231,528,o),
(231,533,o),
(231,537,cs),
(231,600,o),
(222,633,o),
(200,633,cs),
(22,633,l),
(22,721,l),
(264,721,l),
(320,720,o),
(354,684,o),
(366,615,c),
(363,625,o),
(386,630,o),
(434,630,cs),
(652,630,l),
(652,524,l),
(626,524,ls),
(604,524,o),
(593,516,o),
(593,501,cs),
(593,124,ls),
(593,101,o),
(610,88,o),
(642,88,cs),
(725,88,ls),
(758,88,o),
(774,102,o),
(774,131,cs),
(774,558,l),
(750,562,l),
(743,565,o),
(738,570,o),
(733,580,cs),
(672,731,ls),
(663,753,o),
(657,772,o),
(656,789,c),
(606,789,l),
(606,879,l),
(818,879,ls),
(889,879,o),
(940,840,o),
(940,770,cs),
(940,-177,l),
(427,-177,l),
(427,-84,l),
(776,-84,l),
(776,-1,l),
(529,-1,ls),
(460,-1,o),
(426,44,o),
(426,132,cs),
(426,524,l),
(423,524,l),
(403,517,o),
(385,499,o),
(369,472,c),
(369,109,ls),
(369,37,o),
(343,0,o),
(290,0,cs),
(105,-1,ls),
(49,-1,o),
(20,35,o),
(20,110,cs)
);
},
{
closed = 1;
nodes = (
(184,94,o),
(189,88,o),
(200,88,cs),
(223,88,ls),
(234,88,o),
(240,102,o),
(240,128,cs),
(240,380,l),
(184,314,l),
(184,106,ls)
);
},
{
closed = 1;
nodes = (
(784,634,l),
(784,762,ls),
(784,780,o),
(774,789,o),
(757,789,cs),
(721,789,l)
);
}
);
width = 975;
}
);
}
{
glyphname = bullet.148;
layers = (
{
layerId = m001;
shapes = (
{
closed = 1;
nodes = (
(15,385,l),
(109,385,l),
(109,321,l),
(170,385,l),
(170.062,388.287,o),
(170.093,391.474,o),
(170.093,394.561,cs),
(170.093,441.245,o),
(162.946,465,o),
(147,465,cs),
(16,465,l),
(16,530,l),
(194,530,l),
(235,529,o),
(260,503,o),
(269,452,c),
(267,459,o),
(284,463,o),
(319,463,cs),
(479,463,l),
(479,385,l),
(460,385,ls),
(444,385,o),
(436,379,o),
(436,368,cs),
(436,91,ls),
(436,74,o),
(448,65,o),
(472,65,cs),
(533,65,ls),
(557,65,o),
(569,75,o),
(569,96,cs),
(569,410,l),
(551,413,l),
(546,415,o),
(542,419,o),
(539,426,cs),
(494,537,ls),
(487,553,o),
(483,567,o),
(482,580,c),
(445,580,l),
(445,646,l),
(601,646,ls),
(653,646,o),
(691,617,o),
(691,566,cs),
(691,-130,l),
(586,-130,l),
(581,-113,o),
(565,-104,o),
(538,-104,cs),
(530,-104,o),
(523,-105,o),
(516,-107,cs),
(405,-142,ls),
(398,-144,o),
(390,-145,o),
(382,-145,cs),
(345,-145,o),
(313,-121,o),
(313,-85,cs),
(313,-36,l),
(414,-36,l),
(413,-53,o),
(417,-61,o),
(428,-61,cs),
(435,-61,o),
(445,-59,o),
(458,-54,cs),
(504,-39,ls),
(515,-36,o),
(525,-34,o),
(535,-34,cs),
(554,-34,o),
(566,-39,o),
(570,-49,c),
(570,-1,l),
(389,-1,ls),
(338,-1,o),
(313,32,o),
(313,97,cs),
(313,385,l),
(311,385,l),
(296,380,o),
(283,367,o),
(271,347,c),
(271,80,ls),
(271,27,o),
(252,0,o),
(213,0,cs),
(77,-1,ls),
(36,-1,o),
(15,26,o),
(15,81,cs)
);
},
{
closed = 1;
nodes = (
(135,69,o),
(139,65,o),
(147,65,cs),
(164,65,ls),
(172,65,o),
(176,75,o),
(176,94,cs),
(176,279,l),
(135,231,l),
(135,78,ls)
);
},
{
closed = 1;
nodes = (
(576,466,l),
(576,560,ls),
(576,573,o),
(569,580,o),
(556,580,cs),
(530,580,l)
);
}
);
width = 717;
}
);
}
{
glyphname = bullet.149;
layers = (
{
layerId = m001;
shapes = (
{
closed = 1;
nodes = (
(36.953,503,o),
(15,454.395,o),
(15,422,cs),
(15,0,l),
(78,0,l),
(78,406,ls),
(78,422,o),
(91,438,o),
(104,438,cs),
(201,438,l),
(201,461,o),
(206,465,o),
(227,465,cs),
(248,465,ls),
(263,465,o),
(270,459,o),
(270,446,cs),
(270,381,l),
(174,381,ls),
(135,381,o),
(109,345,o),
(109,304,cs),
(109,97,ls),
(109,32,o),
(132,0,o),
(179,0,cs),
(199,0,l),
(187,-5,o),
(181,-15,o),
(181,-30,cs),
(181,-94,ls),
(181,-132,o),
(202,-151,o),
(243,-151,cs),
(381,-151,l),
(381,-86,l),
(326,-86,ls),
(311,-86,o),
(304,-79,o),
(304,-64,cs),
(304,-24,ls),
(304,-8,o),
(311,0,o),
(325,0,cs),
(373,0,l),
(373,65,l),
(268,65,ls),
(244,65,o),
(232,74,o),
(232,93,cs),
(232,291,ls),
(232,306,o),
(241,314,o),
(259,314,cs),
(373,314,l),
(373,475,ls),
(373,519,o),
(357,530,o),
(313,530,cs),
(151,530,ls),
(122,530,o),
(106,521,o),
(101,503,c),
(88,503,ls)
);
},
{
closed = 1;
nodes = (
(497,0,ls),
(536,0,o),
(556,26,o),
(556,78,cs),
(556,683,l),
(440,683,l),
(440,530,l),
(402,530,l),
(402,465,l),
(418,465,ls),
(430,465,o),
(436,459,o),
(436,446,cs),
(436,94,ls),
(436,75,o),
(429,65,o),
(415,65,cs),
(402,65,l),
(402,0,l)
);
}
);
width = 581;
}
);
}
{
glyphname = bullet.150;
layers = (
{
layerId = m001;
shapes = (
{
closed = 1;
nodes = (
(15,32,o),
(38,0,o),
(85,0,cs),
(169,0,l),
(170,-52,ls),
(170.072,-53.732,o),
(170.108,-55.402,o),
(170.108,-57.009,cs),
(170.108,-77.67,o),
(164.206,-88,o),
(154,-88,cs),
(136,-88,ls),
(125,-88,o),
(120,-80,o),
(120,-64,cs),
(120,-24,l),
(16,-24,l),
(16,-96,ls),
(16,-139,o),
(39,-160,o),
(86,-160,cs),
(204,-160,ls),
(254,-160,o),
(279,-139,o),
(279,-98,cs),
(279,65,l),
(174,65,ls),
(150,65,o),
(138,74,o),
(138,93,cs),
(138,291,ls),
(138,306,o),
(147,314,o),
(165,314,cs),
(279,314,l),
(279,475,ls),
(279,519,o),
(263,530,o),
(219,530,cs),
(38,530,l),
(38,465,l),
(148,465,ls),
(167,465,o),
(176,459,o),
(176,446,cs),
(176,381,l),
(80,381,ls),
(41,381,o),
(15,345,o),
(15,304,cs),
(15,97,ls)
);
},
{
closed = 1;
nodes = (
(404,0,ls),
(443,0,o),
(463,26,o),
(463,78,cs),
(463,683,l),
(347,683,l),
(347,530,l),
(309,530,l),
(309,465,l),
(325,465,ls),
(337,465,o),
(343,459,o),
(343,446,cs),
(343,94,ls),
(343,75,o),
(336,65,o),
(322,65,cs),
(309,65,l),
(309,0,l)
);
}
);
width = 487;
}
);
}
{
glyphname = emdash.014;
layers = (
{
layerId = m001;
shapes = (
{
closed = 1;
nodes = (
(-324,-94,o),
(-320,-83,o),
(-312,-76,cs),
(-208,0,l),
(-33,0,l),
(-131,-80,ls),
(-137,-86,o),
(-140,-90,o),
(-140,-93,cs),
(-140,-99,o),
(-128,-102,o),
(-102,-102,cs),
(-34,-102,l),
(-34,-182,l),
(-257,-182,ls),
(-299,-182,o),
(-324,-146,o),
(-324,-109,cs)
);
}
);
width = 2;
}
);
}
{
glyphname = emdash.016;
layers = (
{
layerId = m001;
shapes = (
{
closed = 1;
nodes = (
(441,85,o),
(435,0,o),
(347,0,cs),
(108,0,ls),
(57,0,o),
(20,37,o),
(20,93,cs),
(20,313,l),
(186,313,l),
(186,158,ls),
(186,116,o),
(186,90,o),
(216,90,cs),
(234,90,ls),
(260,90,o),
(272,110,o),
(272,152,cs),
(272,599,ls),
(272,622,o),
(265,633,o),
(252,633,cs),
(237,633,o),
(229,623,o),
(229,604,cs),
(229,499,ls),
(229,441,o),
(208,412,o),
(166,412,cs),
(84,412,ls),
(42,412,o),
(20,448,o),
(20,517,cs),
(20,721,l),
(109,721,l),
(109,550,ls),
(109,527,o),
(116,514,o),
(129,514,cs),
(144,514,o),
(151,527,o),
(151,551,cs),
(151,656,ls),
(151,699,o),
(169,721,o),
(204,721,cs),
(363,721,ls),
(415,721,o),
(441,682,o),
(441,604,cs),
(441,106,ls)
);
}
);
width = 469;
}
);
}
{
glyphname = emdash.020;
layers = (
{
layerId = m001;
shapes = (
{
closed = 1;
nodes = (
(10,319,l),
(237,454,l),
(236,461,o),
(227,465,o),
(208,465,cs),
(26,465,l),
(26,530,l),
(287,530,ls),
(314,530,o),
(330,523,o),
(334,510,c),
(362,522,ls),
(375,527,o),
(389,530,o),
(404,530,cs),
(453,530,ls),
(492,530,o),
(511,500,o),
(511,440,cs),
(511,0,l),
(512,0,l),
(488.204,-19.871,o),
(463.964,-39.297,o),
(440,-59,cs),
(435,-63,o),
(433,-66,o),
(433,-68,cs),
(433,-73,o),
(442,-75,o),
(461,-75,cs),
(511,-75,l),
(511,-134,l),
(347,-134,ls),
(316,-134,o),
(298,-107,o),
(298,-80,cs),
(298,-69,o),
(301,-61,o),
(307,-56,cs),
(383,0,l),
(389,0,l),
(389,412,ls),
(389,450.857,o),
(383.857,447.918,o),
(370,440,cs),
(357,432,l),
(357,84,ls),
(357,28,o),
(336,0,o),
(295,0,cs),
(226,0,ls),
(211,0,o),
(201,9,o),
(194,26,c),
(185,9,o),
(175,0,o),
(162,0,cs),
(81,0,ls),
(49,0,o),
(19,30,o),
(19,77,cs),
(19,172,ls),
(19,215,o),
(24,241,o),
(35,250,c),
(10,250,l)
);
},
{
closed = 1;
nodes = (
(135,298,l),
(135,79,ls),
(135,70,o),
(138,65,o),
(144,65,cs),
(151,65,o),
(154,75,o),
(154,94,cs),
(154,262,l),
(234,262,l),
(234,102,ls),
(234,77,o),
(237,65,o),
(243,65,cs),
(250,65,o),
(254,74,o),
(254,93,cs),
(254,385,l),
(112,298,l)
);
}
);
width = 534;
}
);
}
{
glyphname = emdash.021;
layers = (
{
layerId = m001;
shapes = (
{
closed = 1;
nodes = (
(14,434,l),
(323,618,l),
(321,627,o),
(309,633,o),
(283,633,cs),
(35,633,l),
(35,721,l),
(420,721,ls),
(457,721,o),
(479,712,o),
(484,694,c),
(486,652,l),
(508,655,o),
(529,656,o),
(550,656,cs),
(772,656,ls),
(831,656,o),
(853,641,o),
(853,581,cs),
(853,352,l),
(767,352,ls),
(746,352,o),
(735,344,o),
(735,329,cs),
(735,124,ls),
(735,101,o),
(751,88,o),
(784,88,cs),
(867,88,ls),
(899,88,o),
(916,102,o),
(916,131,cs),
(916,663,ls),
(916,690,o),
(897,704,o),
(857,704,cs),
(648,704,ls),
(595,704,o),
(569,724,o),
(569,765,cs),
(569,875,ls),
(569,906,o),
(600,936,o),
(645,936,cs),
(1074,936,l),
(1074,848,l),
(777,848,ls),
(739,848,o),
(735,845,o),
(735,823,cs),
(735,803,o),
(739,799,o),
(778,799,cs),
(959,799,ls),
(1031,799,o),
(1082,759,o),
(1082,690,cs),
(1082,122,ls),
(1082,39,o),
(1051,-1,o),
(988,-1,cs),
(671,-1,ls),
(601,-1,o),
(567,44,o),
(567,132,cs),
(567,339,ls),
(567,395,o),
(603,444,o),
(656,444,cs),
(713,444,l),
(713,542,ls),
(713,554,o),
(705,562,o),
(690,566,c),
(577,567,l),
(546,563,o),
(516,558,o),
(486,551,c),
(486,114,ls),
(486,38,o),
(457,0,o),
(401,0,cs),
(308,0,ls),
(287,0,o),
(274,12,o),
(264,35,c),
(252,12,o),
(238,0,o),
(220,0,cs),
(110,0,ls),
(67,0,o),
(26,41,o),
(26,105,cs),
(26,234,ls),
(26,293,o),
(33,328,o),
(48,340,c),
(14,340,l)
);
},
{
closed = 1;
nodes = (
(184,406,l),
(184,108,ls),
(184,95,o),
(188,88,o),
(196,88,cs),
(205,88,o),
(210,102,o),
(210,128,cs),
(210,357,l),
(318,357,l),
(318,139,ls),
(318,105,o),
(323,88,o),
(331,88,cs),
(340,88,o),
(346,101,o),
(346,127,cs),
(346,524,l),
(152,406,l)
);
}
);
width = 1113;
}
);
}
{
glyphname = emdash.022;
layers = (
{
layerId = m001;
shapes = (
{
closed = 1;
nodes = (
(747.433,530,o),
(780,507.091,o),
(780,472,cs),
(780,428,ls),
(780,398,o),
(773,378,o),
(758,369,c),
(772,364,o),
(779,340,o),
(779,299,cs),
(779,-130,o),
(779,-130,o),
(779,-130,c),
(402,-130,l),
(402,-62,l),
(658,-62,l),
(658,-1,l),
(469,0,ls),
(424,0,o),
(401,28,o),
(401,85,cs),
(401,303,ls),
(401,365,o),
(421,396,o),
(462,396,cs),
(493,396,l),
(493,451,ls),
(493,460,o),
(487,465,o),
(476,465,cs),
(432,465,l),
(417,463,o),
(392,452,o),
(357,432,c),
(357,84,ls),
(357,28,o),
(336,0,o),
(295,0,cs),
(226,0,ls),
(211,0,o),
(201,9,o),
(194,26,c),
(185,9,o),
(175,0,o),
(162,0,cs),
(81,0,ls),
(49,0,o),
(19,30,o),
(19,77,cs),
(19,172,ls),
(19,215,o),
(24,241,o),
(35,250,c),
(10,250,l),
(10,319,l),
(237,454,l),
(236,461,o),
(227,465,o),
(208,465,cs),
(26,465,l),
(26,530,l),
(287,530,ls),
(314,530,o),
(330,523,o),
(334,510,c),
(362,522,ls),
(375,527,o),
(389,530,o),
(404,530,cs),
(523,530,ls),
(558,530,o),
(576,512,o),
(576,477,cs),
(576,337,l),
(546,337,ls),
(531,337,o),
(524,325,o),
(524,300,cs),
(524,91,ls),
(524,74,o),
(529,65,o),
(538,65,cs),
(641,65,ls),
(650,65,o),
(655,75,o),
(655,94,cs),
(655,280,l),
(637,271,o),
(628,250,o),
(628,216,cs),
(628.5,183.5,o),
(628.75,157.5,o),
(628.75,137.875,cs),
(628.75,118.25,o),
(628.5,105,o),
(628,98,c),
(546,98,l),
(546,246,ls),
(546,276.967,o),
(565.213,291.697,o),
(623,336,c),
(597,336,l),
(597,478,ls),
(597,513,o),
(617,530,o),
(656,530,cs),
(718,530,ls)
);
},
{
closed = 1;
nodes = (
(135,298,l),
(135,79,ls),
(135,70,o),
(138,65,o),
(144,65,cs),
(151,65,o),
(154,75,o),
(154,94,cs),
(154,262,l),
(234,262,l),
(234,102,ls),
(234,77,o),
(237,65,o),
(243,65,cs),
(250,65,o),
(254,74,o),
(254,93,cs),
(254,385,l),
(112,298,l)
);
},
{
closed = 1;
nodes = (
(675,407,o),
(685,406,o),
(690,403,c),
(702,411,ls),
(706,414,o),
(708,419,o),
(708,427,cs),
(708,455,ls),
(708,462,o),
(704,466,o),
(697,466,cs),
(670,466,ls),
(663,466,o),
(660,462,o),
(660,454,cs),
(660,407,l)
);
}
);
width = 800;
}
);
}
{
glyphname = emdash.023;
layers = (
{
layerId = m001;
shapes = (
{
closed = 1;
nodes = (
(273.954,154,o),
(286.083,127,o),
(295,127,cs),
(299,127,o),
(301,135,o),
(301,151,cs),
(301,487,ls),
(301,507,o),
(287,517,o),
(258,517,cs),
(15,517,l),
(15,587,l),
(74,587,l),
(53,594,o),
(42,605,o),
(42,620,cs),
(42,651,ls),
(42,668,o),
(63,688,o),
(90,688,cs),
(417,688,l),
(417,623,l),
(199,623,ls),
(178,623,o),
(168,617,o),
(168,605,cs),
(168,593,o),
(179,587,o),
(200,587,cs),
(333,587,ls),
(386,587,o),
(423,558,o),
(423,507,cs),
(423,90,ls),
(423,29,o),
(401,-1,o),
(358,-1,cs),
(318,-1,ls),
(279.296,-1,o),
(268.784,69.157,o),
(253,66,c),
(250,33,o),
(240,9,o),
(223,-8,c),
(159,-8,l),
(167,3,o),
(171,28,o),
(171,66,cs),
(171,358,ls),
(171,379,o),
(167,389,o),
(160,389,cs),
(153,389,ls),
(143,389,o),
(138,382,o),
(138,369,cs),
(138,-1,l),
(15,-1,l),
(15,386,ls),
(15,427,o),
(41,463,o),
(80,463,cs),
(188,463,ls),
(232,463,o),
(254,438,o),
(254,388,cs),
(254,151,l),
(257,153,o),
(259,154,o),
(262,154,cs)
);
},
{
closed = 1;
nodes = (
(137,-34,l),
(137,-56,ls),
(137,-67,o),
(143,-73,o),
(156,-73,cs),
(279,-73,ls),
(292,-73,o),
(299,-67,o),
(299,-54,cs),
(299,-12,l),
(423,-12,l),
(423,-88,ls),
(423,-113,o),
(394,-137,o),
(362,-137,cs),
(62,-137,ls),
(34,-137,o),
(15,-115,o),
(15,-87,cs),
(15,-34,l)
);
}
);
width = 445;
}
);
}
{
glyphname = emdash.024;
layers = (
{
layerId = m001;
shapes = (
{
closed = 1;
nodes = (
(15,27,o),
(35,0,o),
(75,0,cs),
(193,0,ls),
(234,0,o),
(254,28,o),
(254,84,cs),
(254,437,ls),
(254,456,o),
(258,465,o),
(266,465,cs),
(283,465,ls),
(288,465,o),
(291,457,o),
(291,440,cs),
(291,0,l),
(413,0,l),
(413,456,ls),
(413,505,o),
(390,530,o),
(344,530,cs),
(237,530,ls),
(192,530,o),
(169,500,o),
(169,439,cs),
(169,95,ls),
(169,75,o),
(165,65,o),
(156,65,cs),
(149,65,ls),
(140,65,o),
(136,74,o),
(136,91,cs),
(136,530,l),
(15,530,l),
(15,82,ls)
);
},
{
closed = 1;
nodes = (
(89,691,ls),
(89,721,o),
(102,736,o),
(127,736,cs),
(299,736,ls),
(327,736,o),
(341,720,o),
(341,688,cs),
(341,547,l),
(284,547,l),
(284,649,ls),
(284,664,o),
(279,672,o),
(268,672,cs),
(199,672,ls),
(188,672,o),
(183,668,o),
(183,659,cs),
(182.5,646,o),
(182.25,636.25,o),
(182.25,629.625,cs),
(182.25,623,o),
(182.5,619.5,o),
(183,619,cs),
(183,610,o),
(189,606,o),
(200,606,cs),
(206,606,ls),
(211,606,o),
(213,611,o),
(213,622,cs),
(213,652,l),
(261,652,l),
(261,573,ls),
(261,554,o),
(253,544,o),
(236,544,cs),
(127,544,ls),
(102,544,o),
(89,559,o),
(89,590,cs)
);
}
);
width = 438;
}
);
}
{
glyphname = emdash.027;
layers = (
{
layerId = m001;
shapes = (
{
closed = 1;
nodes = (
(50,721,o),
(20,655,o),
(20,611,cs),
(20,0,l),
(106,0,l),
(106,589,ls),
(106,611,o),
(124,633,o),
(142,633,cs),
(155,633,l),
(155,112,ls),
(155,37,o),
(182,0,o),
(237,0,cs),
(397,0,ls),
(453,0,o),
(480,38,o),
(480,114,cs),
(480,595,ls),
(480,621,o),
(486,633,o),
(497,633,cs),
(520,633,ls),
(527,633,o),
(531,622,o),
(531,599,cs),
(531,0,l),
(697,0,l),
(697,621,ls),
(697,687,o),
(665,721,o),
(603,721,cs),
(457,721,ls),
(396,721,o),
(365,680,o),
(365,597,cs),
(365,129,ls),
(365,102,o),
(359,88,o),
(347,88,cs),
(337,88,ls),
(325,88,o),
(320,101,o),
(320,124,cs),
(320,721,l),
(120,721,ls)
);
},
{
closed = 1;
nodes = (
(155,796,ls),
(155,851,o),
(189,878,o),
(256,878,cs),
(597,878,ls),
(664,878,o),
(697,852,o),
(697,800,cs),
(697,739,l),
(529,739,l),
(529,777,ls),
(529,792,o),
(521,799,o),
(503,799,cs),
(389,799,ls),
(347,799,o),
(325,792,o),
(325,780,cs),
(325,739,l),
(155,739,l)
);
}
);
width = 732;
}
);
}
{
glyphname = emdash.028;
layers = (
{
layerId = m001;
shapes = (
{
closed = 1;
nodes = (
(1,337,l),
(122,337,l),
(122,398,ls),
(122,411,o),
(113,417,o),
(94,417,cs),
(21,417,l),
(21,482,l),
(165,482,ls),
(209,482,o),
(225,471,o),
(225,427,cs),
(225,272,l),
(173,272,ls),
(161,272,o),
(138,256,o),
(138,239,cs),
(138,97,ls),
(138,76,o),
(150,65,o),
(173,65,cs),
(234,65,ls),
(259,65,o),
(271,76,o),
(271,98,cs),
(271,487,ls),
(271,507,o),
(257,517,o),
(228,517,cs),
(74,517,ls),
(35,517,o),
(16,532,o),
(16,562,cs),
(16,643,ls),
(16,666,o),
(39,688,o),
(72,688,cs),
(387,688,l),
(387,623,l),
(169,623,ls),
(141,623,o),
(138,621,o),
(138,605,cs),
(138,590,o),
(141,587,o),
(170,587,cs),
(303,587,ls),
(356,587,o),
(393,558,o),
(393,507,cs),
(393,90,ls),
(393,29,o),
(370,-1,o),
(324,-1,cs),
(91,-1,ls),
(40,-1,o),
(15,32,o),
(15,97,cs),
(15,216,ls),
(15,239,o),
(24,258,o),
(43,273,c),
(1,273,l)
);
}
);
width = 419;
}
);
}
{
glyphname = emdash.029;
layers = (
{
layerId = m001;
shapes = (
{
closed = 1;
nodes = (
(186,-46,l),
(186,-76,ls),
(186,-91,o),
(195,-99,o),
(212,-99,cs),
(339,-99,ls),
(357,-99,o),
(366,-91,o),
(366,-73,cs),
(366,-16,l),
(535,-16,l),
(535,-120,ls),
(535,-154,o),
(495,-186,o),
(452,-186,cs),
(84,-186,ls),
(46,-186,o),
(20,-156,o),
(20,-118,cs),
(20,-46,l)
);
},
{
closed = 1;
nodes = (
(170,803,o),
(173,799,o),
(212,799,cs),
(261,799,l),
(249,802,o),
(242,811,o),
(242,826,cs),
(242,848,l),
(211,848,ls),
(173,848,o),
(170,845,o),
(170,823,cs)
);
},
{
closed = 1;
nodes = (
(1,459,l),
(166,459,l),
(166,542,ls),
(166,559,o),
(154,567,o),
(128,567,cs),
(29,567,l),
(29,656,l),
(225,656,ls),
(284,656,o),
(306,641,o),
(306,581,cs),
(306,370,l),
(235,370,ls),
(219,370,o),
(188,348,o),
(188,325,cs),
(188,132,ls),
(188,103,o),
(204,88,o),
(235,88,cs),
(318,88,ls),
(352,88,o),
(369,103,o),
(369,133,cs),
(369,663,ls),
(369,690,o),
(350,704,o),
(310,704,cs),
(101,704,ls),
(48,704,o),
(22,724,o),
(22,765,cs),
(22,875,ls),
(22,906,o),
(53,936,o),
(98,936,cs),
(442,936,ls),
(503,936,o),
(533,912,o),
(533,861,cs),
(533,827,ls),
(533,804,o),
(520,787,o),
(494,776,c),
(521,755,o),
(535,727,o),
(535,690,cs),
(535,122,ls),
(535,39,o),
(503,-1,o),
(441,-1,cs),
(124,-1,ls),
(54,-1,o),
(20,44,o),
(20,132,cs),
(20,294,ls),
(20,325,o),
(33,351,o),
(59,371,c),
(1,371,l)
);
},
{
closed = 1;
nodes = (
(343,818,o),
(351,812,o),
(369,812,cs),
(376,812,ls),
(393,812,o),
(401,818,o),
(401,830,cs),
(401,838,ls),
(401,855,o),
(392,863,o),
(374,863,cs),
(369,863,ls),
(351,863,o),
(343,855,o),
(343,838,cs),
(343,830,ls)
);
}
);
width = 568;
}
);
}
{
glyphname = emdash.033;
layers = (
{
layerId = m001;
shapes = (
{
closed = 1;
nodes = (
(309,406,l),
(309,108,ls),
(309,95,o),
(313,88,o),
(321,88,cs),
(331,88,o),
(335,102,o),
(335,128,cs),
(335,357,l),
(444,357,l),
(444,139,ls),
(444,105,o),
(448,88,o),
(456,88,cs),
(465,88,o),
(471,101,o),
(471,127,cs),
(471,524,l),
(278,406,l)
);
},
{
closed = 1;
nodes = (
(777,-91,o),
(807,-65,o),
(829,-65,cs),
(842,-65,o),
(853,-72,o),
(861,-84,c),
(861,0,l),
(733,0,ls),
(670,0,o),
(638,44,o),
(638,132,cs),
(638,414,ls),
(638,469,o),
(674,518,o),
(727,518,cs),
(857,518,l),
(857,607,ls),
(857,625,o),
(845,633,o),
(819,633,cs),
(733,633,ls),
(705,633,o),
(684,629,o),
(672,622,cs),
(611,588,l),
(611,114,ls),
(611,38,o),
(582,0,o),
(527,0,cs),
(433,0,ls),
(412,0,o),
(399,12,o),
(389,35,c),
(377,12,o),
(363,0,o),
(346,0,cs),
(235,0,ls),
(192,0,o),
(151,41,o),
(151,105,cs),
(151,234,ls),
(151,293,o),
(158,328,o),
(173,340,c),
(139,340,l),
(139,434,l),
(448,618,l),
(446,627,o),
(434,633,o),
(408,633,cs),
(317,633,ls),
(298,633,o),
(287,622,o),
(284,599,c),
(142,599,ls),
(124,599,o),
(106,577,o),
(106,555,cs),
(106,0,l),
(20,0,l),
(20,577,ls),
(20,621,o),
(50,687,o),
(120,687,cs),
(148,687,l),
(150,710,o),
(167,721,o),
(203,721,cs),
(516,721,ls),
(552,721,o),
(574,712,o),
(580,694,c),
(618,710,ls),
(635,717,o),
(652,721,o),
(670,721,cs),
(916,721,ls),
(976,721,o),
(997,706,o),
(997,646,cs),
(997,427,l),
(842,427,ls),
(818,427,o),
(806,416,o),
(806,396,cs),
(806,127,ls),
(806,101,o),
(822,88,o),
(855,88,cs),
(997,88,l),
(997,-177,l),
(887,-177,l),
(880,-159,o),
(870,-151,o),
(852,-151,cs),
(840,-151,o),
(823,-155,o),
(803,-165,cs),
(757,-185,ls),
(742,-192,o),
(728,-195,o),
(714,-195,cs),
(671,-195,o),
(637,-163,o),
(637,-116,cs),
(637,-49,l),
(733,-49,l),
(732,-78,o),
(740,-91,o),
(758,-91,cs)
);
}
);
width = 1026;
}
);
}
{
glyphname = emdash.034;
layers = (
{
background = {
shapes = (
{
closed = 0;
nodes = (
(538,155,l),
(538,108,o),
(547,57,q),
(558,-7,o),
(576,-14,q),
(615,-27,o),
(676,-5,q)
);
},
{
closed = 0;
nodes = (
(538,155,l),
(538,108,o),
(547,57,q),
(558,-7,o),
(576,-14,q),
(615,-27,o),
(676,-5,q)
);
}
);
};
layerId = m001;
shapes = (
{
closed = 1;
nodes = (
(20,655,o),
(50,721,o),
(120,721,cs),
(320,721,l),
(320,124,ls),
(320,101,o),
(325,88,o),
(337,88,cs),
(347,88,ls),
(359,88,o),
(365,102,o),
(365,129,cs),
(365,597,ls),
(365,680,o),
(396,721,o),
(457,721,cs),
(802,721,ls),
(861,721,o),
(883,706,o),
(883,646,cs),
(883,427,l),
(728,427,ls),
(704,427,o),
(691,416,o),
(691,396,cs),
(691,127,ls),
(691,124,o),
(691,121,o),
(691,118,cs),
(691,104,o),
(697,88,o),
(740,88,cs),
(883,88,l),
(883,-177,l),
(523,-177,l),
(523,-84,l),
(713,-84,l),
(713,0,l),
(619,0,ls),
(555,0,o),
(524,44,o),
(524,132,cs),
(524,414,ls),
(524,469,o),
(559,518,o),
(612,518,cs),
(743,518,l),
(743,606,ls),
(743,623,o),
(731,633,o),
(708,633,cs),
(516,633,ls),
(493,633,o),
(480,621,o),
(480,595,cs),
(480,114,ls),
(480,38,o),
(453,0,o),
(397,0,cs),
(237,0,ls),
(182,0,o),
(155,37,o),
(155,112,cs),
(155,633,l),
(142,633,ls),
(124,633,o),
(106,611,o),
(106,589,cs),
(106,0,l),
(20,0,l),
(20,611,ls)
);
}
);
width = 918;
}
);
}
{
glyphname = emdash.035;
layers = (
{
layerId = m001;
shapes = (
{
closed = 1;
nodes = (
(434,721,o),
(493,721,o),
(494,721,cs),
(502,721,l),
(601,887,l),
(723,887,l),
(616,721,l),
(682,721,l),
(682,633,l),
(584,633,ls),
(566,633,o),
(558,626,o),
(558,614,cs),
(558,538,l),
(600,538,ls),
(655,538,o),
(682,494,o),
(682,408,cs),
(682,-177,l),
(169,-177,l),
(169,-84,l),
(517,-84,l),
(517,-1,l),
(260,0,ls),
(199,0,o),
(167,38,o),
(167,116,cs),
(167,412,ls),
(167,497,o),
(195,539,o),
(250,539,cs),
(293,539,l),
(293,614,ls),
(293,626,o),
(284,633,o),
(269,633,cs),
(142,633,l),
(118,629,o),
(106,604,o),
(106,582,cs),
(106,0,l),
(20,0,l),
(20,604,ls),
(20,649,o),
(52,721,o),
(120,721,cs),
(333,721,o),
(333,721,o),
(333,721,cs),
(381,721,o),
(406,697,o),
(406,649,cs),
(406,456,l),
(365,456,ls),
(344,456,o),
(335,440,o),
(335,406,cs),
(335,142,ls),
(335,106,o),
(347,88,o),
(370,88,cs),
(478,88,ls),
(501,88,o),
(513,105,o),
(513,139,cs),
(513,404,ls),
(513,438,o),
(503,455,o),
(483,455,cs),
(434,455,l),
(434,650,ls)
);
}
);
width = 717;
}
);
}
{
glyphname = emdash.036;
layers = (
{
layerId = m001;
shapes = (
{
closed = 1;
nodes = (
(89,887,o),
(79,907,o),
(79,925,cs),
(79,1022,ls),
(79,1045,o),
(103,1074,o),
(136,1074,cs),
(430,1074,ls),
(452,1074,o),
(478,1044,o),
(478,1012,cs),
(478,895,l),
(366,895,l),
(366,976,ls),
(366,993,o),
(359,1002,o),
(347,1002,cs),
(256,1002,ls),
(242,1002,o),
(235,996,o),
(235,985,cs),
(235,950,ls),
(235,940,o),
(240,935,o),
(248,935,cs),
(261,935,ls),
(268,935,o),
(272,940,o),
(272,953,cs),
(272,980,l),
(339,980,l),
(339,909,ls),
(339,894,o),
(333,883,o),
(323,879,c),
(412,879,ls),
(483,879,o),
(535,840,o),
(535,770,cs),
(535,122,ls),
(535,39,o),
(503,-1,o),
(441,-1,cs),
(124,-1,ls),
(54,-1,o),
(20,44,o),
(20,132,cs),
(20,610,ls),
(20,665,o),
(56,714,o),
(109,714,cs),
(301,714,l),
(301,614,l),
(220,614,ls),
(199,614,o),
(188,606,o),
(188,591,cs),
(188,124,ls),
(188,106,o),
(215,88,o),
(235,88,cs),
(327,88,ls),
(355,88,o),
(369,101,o),
(369,125,cs),
(369,743,ls),
(369,770,o),
(350,784,o),
(310,784,cs),
(20,784,l),
(20,879,l),
(102,879,l)
);
}
);
width = 569;
}
);
}
{
glyphname = emdash.037;
layers = (
{
layerId = m001;
shapes = (
{
closed = 1;
nodes = (
(15,374,ls),
(15,415,o),
(41,451,o),
(80,451,cs),
(214,451,l),
(213,377,l),
(162,377,ls),
(146,377,o),
(138,371,o),
(138,360,cs),
(138,91,ls),
(138,74,o),
(144,65,o),
(155,65,cs),
(166,65,o),
(172,74,o),
(172,92,cs),
(172,234,l),
(262,234,l),
(262,98,ls),
(262,76,o),
(267,65,o),
(277,65,cs),
(288,65,o),
(293,75,o),
(293,96,cs),
(293,410,l),
(275,413,l),
(270,415,o),
(266,419,o),
(263,426,cs),
(218,537,ls),
(211,553,o),
(207,567,o),
(206,580,c),
(169,580,l),
(169,646,l),
(325,646,ls),
(377,646,o),
(415,617,o),
(415,566,cs),
(415,-130,l),
(38,-130,l),
(38,-62,l),
(294,-62,l),
(294,-1,l),
(345,0,l),
(252,0,ls),
(238,0,o),
(226,10,o),
(215,29,c),
(208,10,o),
(197,0,o),
(184,0,cs),
(91,0,ls),
(40,0,o),
(15,32,o),
(15,97,cs)
);
},
{
closed = 1;
nodes = (
(300,466,l),
(300,560,ls),
(300,573,o),
(293,580,o),
(280,580,cs),
(254,580,l)
);
}
);
width = 440;
}
);
}
{
glyphname = emdash.038;
layers = (
{
layerId = m001;
shapes = (
{
closed = 1;
nodes = (
(1,380,l),
(122,380,l),
(122,441,ls),
(122,454,o),
(113,460,o),
(94,460,cs),
(21,460,l),
(21,525,l),
(165,525,ls),
(209,525,o),
(225,514,o),
(225,470,cs),
(225,315,l),
(173,315,ls),
(161,315,o),
(138,299,o),
(138,282,cs),
(138,97,ls),
(138,76,o),
(144,65,o),
(155,65,cs),
(166,65,o),
(172,74,o),
(172,92,cs),
(172,234,l),
(262,234,l),
(262,98,ls),
(262,76,o),
(268,65,o),
(279,65,cs),
(290,65,o),
(295,76,o),
(295,98,cs),
(295,546,ls),
(295,569,o),
(280,581,o),
(250,581,cs),
(15,581,l),
(15,646,l),
(327,646,ls),
(379,646,o),
(417,617,o),
(417,566,cs),
(417,-130,l),
(15,-130,l),
(15,-62,l),
(296,-62,l),
(296,-1,l),
(254,0,ls),
(237,0,o),
(224,10,o),
(215,29,c),
(206,10,o),
(195,0,o),
(180,0,cs),
(91,0,ls),
(40,0,o),
(15,32,o),
(15,97,cs),
(15,259,ls),
(15,282,o),
(24,301,o),
(43,316,c),
(1,316,l)
);
}
);
width = 444;
}
);
}
{
glyphname = emdash.039;
layers = (
{
layerId = m001;
shapes = (
{
closed = 1;
nodes = (
(2,323,l),
(127,323,l),
(127,363,ls),
(127,376,o),
(118,382,o),
(99,382,cs),
(26,382,l),
(26,451,l),
(170,451,ls),
(214,451,o),
(230,440,o),
(230,396,cs),
(230,249,l),
(184,249,ls),
(164,249,o),
(143,236,o),
(143,216,cs),
(143,91,ls),
(143,74,o),
(149,65,o),
(160,65,cs),
(171,65,o),
(177,74,o),
(177,92,cs),
(177,234,l),
(267,234,l),
(267,98,ls),
(267,76,o),
(272,65,o),
(282,65,cs),
(293,65,o),
(298,75,o),
(298,96,cs),
(298,410,l),
(280,413,l),
(275,415,o),
(271,419,o),
(268,426,cs),
(242,490,l),
(122,490,ls),
(79,490,o),
(58,509,o),
(58,548,cs),
(58,650,ls),
(58,694,o),
(80,716,o),
(124,716,cs),
(414,716,l),
(414,666,l),
(172,666,ls),
(157,666,o),
(150,659,o),
(150,644,cs),
(150,576,ls),
(150,556,o),
(156,546,o),
(168,546,cs),
(219,546,l),
(215,557,o),
(212,569,o),
(211,580,c),
(174,580,l),
(174,646,l),
(330,646,ls),
(382,646,o),
(420,617,o),
(420,566,cs),
(420,90,ls),
(420,30,o),
(397,0,o),
(351,0,cs),
(257,0,ls),
(243,0,o),
(231,10,o),
(220,29,c),
(213,10,o),
(202,0,o),
(189,0,cs),
(96,0,ls),
(45,0,o),
(20,32,o),
(20,97,cs),
(20,183,ls),
(20,212,o),
(32,234,o),
(56,249,c),
(2,249,l)
);
},
{
closed = 1;
nodes = (
(305,466,l),
(305,560,ls),
(305,573,o),
(298,580,o),
(285,580,cs),
(259,580,l)
);
}
);
width = 444;
}
);
}
{
glyphname = emdash.041;
layers = (
{
layerId = m001;
shapes = (
{
closed = 1;
nodes = (
(20,598,o),
(50,664,o),
(120,664,cs),
(381,664,ls),
(441,664,o),
(463,649,o),
(463,589,cs),
(463,401,l),
(392,401,ls),
(376,401,o),
(344,380,o),
(344,357,cs),
(344,132,ls),
(344,103,o),
(352,88,o),
(367,88,cs),
(382,88,o),
(391,101,o),
(391,125,cs),
(391,301,l),
(513,301,l),
(513,133,ls),
(513,103,o),
(521,88,o),
(536,88,cs),
(551,88,o),
(558,103,o),
(558,133,cs),
(558,663,ls),
(558,690,o),
(539,704,o),
(499,704,cs),
(177,704,l),
(177,799,l),
(257,799,l),
(229,808,o),
(214,823,o),
(214,844,cs),
(214,886,ls),
(214,909,o),
(242,936,o),
(279,936,cs),
(716,936,l),
(716,848,l),
(427,848,ls),
(399,848,o),
(385,840,o),
(385,823,cs),
(385,807,o),
(400,799,o),
(429,799,cs),
(601,799,ls),
(674,799,o),
(724,759,o),
(724,690,cs),
(724,122,ls),
(724,35,o),
(705,0,o),
(649,0,cs),
(502,0,ls),
(479,0,o),
(461,14,o),
(449,39,c),
(437,14,o),
(422,0,o),
(401,0,cs),
(280,0,ls),
(211,0,o),
(177,44,o),
(177,132,cs),
(177,325,ls),
(177,357,o),
(189,382,o),
(215,403,c),
(158,403,l),
(158,490,l),
(323,490,l),
(323,550,ls),
(323,567,o),
(310,576,o),
(284,576,cs),
(142,576,ls),
(124,576,o),
(106,554,o),
(106,532,cs),
(106,0,l),
(20,0,l),
(20,554,ls)
);
}
);
width = 758;
}
);
}
{
glyphname = emdash.044;
layers = (
{
layerId = m001;
shapes = (
{
closed = 1;
nodes = (
(14,399,l),
(231,607,l),
(233,625,o),
(220,633,o),
(196,633,cs),
(27,633,l),
(27,721,l),
(284,721,ls),
(323,721,o),
(344,712,o),
(350,693,c),
(377,705,ls),
(392,712,o),
(411,714,o),
(434,714,cs),
(634,714,ls),
(694,714,o),
(716,699,o),
(716,640,cs),
(716,427,l),
(630,427,ls),
(608,427,o),
(597,419,o),
(597,404,cs),
(597,124,ls),
(597,101,o),
(614,88,o),
(646,88,cs),
(729,88,ls),
(762,88,o),
(778,102,o),
(778,131,cs),
(778,744,ls),
(778,776,o),
(759,791,o),
(720,791,cs),
(430,791,l),
(430,879,l),
(822,879,ls),
(893,879,o),
(944,840,o),
(944,770,cs),
(944,122,ls),
(944,39,o),
(913,-1,o),
(851,-1,cs),
(533,-1,ls),
(464,-1,o),
(430,44,o),
(430,132,cs),
(430,414,ls),
(430,469,o),
(465,518,o),
(518,518,cs),
(576,518,l),
(576,600,ls),
(576,615,o),
(565,626,o),
(544,626,cs),
(474,626,o),
(474,626,o),
(474,626,cs),
(441,626,o),
(392,595,o),
(374,573,c),
(374,114,ls),
(374,38,o),
(347,0,o),
(293,0,cs),
(110,-1,ls),
(67,-1,o),
(26,41,o),
(26,105,cs),
(26,196,ls),
(26,248,o),
(33,279,o),
(48,291,c),
(14,291,l)
);
},
{
closed = 1;
nodes = (
(184,362,l),
(184,108,ls),
(184,95,o),
(189,88,o),
(201,88,cs),
(223,88,ls),
(234,88,o),
(240,101,o),
(240,127,cs),
(240,464,l),
(150,362,l)
);
}
);
width = 982;
}
);
}
{
glyphname = emdash.045;
layers = (
{
layerId = m001;
shapes = (
{
closed = 1;
nodes = (
(15,374,ls),
(15,415,o),
(41,451,o),
(80,451,cs),
(207,451,l),
(207,377,l),
(162,377,ls),
(146,377,o),
(138,371,o),
(138,360,cs),
(138,91,ls),
(138,74,o),
(150,65,o),
(174,65,cs),
(235,65,ls),
(259,65,o),
(271,75,o),
(271,96,cs),
(271,410,l),
(253,413,l),
(248,415,o),
(244,419,o),
(241,426,cs),
(215,490,l),
(94,490,ls),
(51,490,o),
(30,509,o),
(30,548,cs),
(30,681,ls),
(30,725,o),
(52,747,o),
(96,747,cs),
(345,747,ls),
(368,747,o),
(380,737,o),
(380,718,cs),
(380,678,ls),
(380,659,o),
(370,650,o),
(350,650,cs),
(196,650,ls),
(180,650,o),
(172,657,o),
(172,672,cs),
(172,698,l),
(145,698,ls),
(130,698,o),
(122,690,o),
(122,675,cs),
(122,576,ls),
(122,556,o),
(128,546,o),
(140,546,cs),
(192,546,l),
(188,557,o),
(185,569,o),
(184,580,c),
(147,580,l),
(147,646,l),
(303,646,ls),
(355,646,o),
(393,617,o),
(393,566,cs),
(393,90,ls),
(393,29,o),
(370,-1,o),
(324,-1,cs),
(91,-1,ls),
(40,-1,o),
(15,32,o),
(15,97,cs)
);
},
{
closed = 1;
nodes = (
(278,466,l),
(278,560,ls),
(278,573,o),
(271,580,o),
(258,580,cs),
(232,580,l)
);
},
{
closed = 1;
nodes = (
(232,679,o),
(237,675,o),
(248,675,cs),
(283,675,ls),
(294,675,o),
(299,680,o),
(299,689,cs),
(299,693,ls),
(299,701,o),
(293,705,o),
(282,705,cs),
(247,705,ls),
(237,705,o),
(232,701,o),
(232,693,cs),
(232,688,ls)
);
}
);
width = 416;
}
);
}
{
glyphname = emdash.047;
layers = (
{
layerId = m001;
shapes = (
{
closed = 1;
nodes = (
(20,44,o),
(52,0,o),
(116,0,cs),
(143,0,l),
(127,-7,o),
(118,-20,o),
(118,-41,cs),
(118,-128,ls),
(118,-180,o),
(147,-205,o),
(203,-205,cs),
(391,-205,l),
(391,-117,l),
(316,-117,ls),
(295,-117,o),
(286,-108,o),
(286,-87,cs),
(286,-33,ls),
(286,-11,o),
(295,0,o),
(314,0,cs),
(380,0,l),
(380,88,l),
(237,88,ls),
(204,88,o),
(188,101,o),
(188,127,cs),
(188,396,ls),
(188,416,o),
(200,427,o),
(225,427,cs),
(380,427,l),
(380,646,ls),
(380,706,o),
(358,721,o),
(298,721,cs),
(52,721,l),
(52,633,l),
(201,633,ls),
(227,633,o),
(240,625,o),
(240,607,cs),
(240,518,l),
(109,518,ls),
(56,518,o),
(20,469,o),
(20,414,cs),
(20,132,ls)
);
},
{
closed = 1;
nodes = (
(535,0,ls),
(588,0,o),
(615,35,o),
(615,106,cs),
(615,929,l),
(457,929,l),
(457,721,l),
(406,721,l),
(406,633,l),
(427,633,ls),
(444,633,o),
(452,625,o),
(452,607,cs),
(452,128,ls),
(452,102,o),
(442,88,o),
(423,88,cs),
(406,88,l),
(406,0,l)
);
}
);
width = 654;
}
);
}
{
glyphname = emdash.048;
layers = (
{
layerId = m001;
shapes = (
{
closed = 1;
nodes = (
(20,414,ls),
(20,469,o),
(56,518,o),
(109,518,cs),
(240,518,l),
(240,607,ls),
(240,625,o),
(227,633,o),
(201,633,cs),
(52,633,l),
(52,721,l),
(298,721,ls),
(358,721,o),
(380,706,o),
(380,646,cs),
(380,427,l),
(225,427,ls),
(200,427,o),
(188,416,o),
(188,396,cs),
(188,127,ls),
(188,101,o),
(204,88,o),
(237,88,cs),
(380,88,l),
(380,0,l),
(314,0,ls),
(295,0,o),
(286,-11,o),
(286,-33,cs),
(286,-87,ls),
(286,-108,o),
(295,-117,o),
(316,-117,cs),
(391,-117,l),
(391,-205,l),
(203,-205,ls),
(147,-205,o),
(118,-180,o),
(118,-128,cs),
(118,-41,ls),
(118,-20,o),
(127,-7,o),
(143,0,c),
(116,0,ls),
(52,0,o),
(20,44,o),
(20,132,cs)
);
},
{
closed = 1;
nodes = (
(420,721,l),
(574,721,ls),
(608,721,o),
(625,704,o),
(625,668,cs),
(625,161,l),
(629,127,o),
(641,109,o),
(663,109,cs),
(684,109,o),
(695,122,o),
(695,151,cs),
(695,406,ls),
(695,438,o),
(686,455,o),
(668,455,cs),
(649,455,l),
(649,640,ls),
(649,694,o),
(670,721,o),
(712,721,cs),
(864,721,l),
(864,633,l),
(804,633,ls),
(784,633,o),
(773,623,o),
(773,604,cs),
(773,536,l),
(799,536,ls),
(842,536,o),
(864,509,o),
(864,455,cs),
(864,120,ls),
(864,50,o),
(825,0,o),
(776,0,cs),
(704,0,ls),
(665,0,o),
(634,15,o),
(611,46,c),
(604,24,o),
(592,10,o),
(574,0,c),
(430,0,l),
(448,31,o),
(456,67,o),
(456,106,cs),
(456,595,ls),
(456,621,o),
(452,633,o),
(442,633,cs),
(420,633,l)
);
},
{
closed = 1;
nodes = (
(1034,0,ls),
(1087,0,o),
(1114,35,o),
(1114,106,cs),
(1114,627,ls),
(1114,690,o),
(1091,721,o),
(1045,721,cs),
(905,721,l),
(905,633,l),
(927,633,ls),
(943,633,o),
(951,625,o),
(951,607,cs),
(951,128,ls),
(951,102,o),
(942,88,o),
(923,88,cs),
(905,88,l),
(905,0,l)
);
}
);
width = 1152;
}
);
}
{
glyphname = emdash.051;
layers = (
{
layerId = m001;
shapes = (
{
closed = 1;
nodes = (
(414.21,-67,o),
(436.009,-48,o),
(452,-48,cs),
(462,-48,o),
(470,-53,o),
(476,-62,c),
(476,0,l),
(382,0,ls),
(335,0,o),
(312,32,o),
(312,97,cs),
(312,304,ls),
(312,345,o),
(338,381,o),
(377,381,cs),
(473,381,l),
(473,446,ls),
(473,459,o),
(464,465,o),
(445,465,cs),
(342,465,ls),
(315,465,o),
(292,448,o),
(271,414,c),
(271,80,ls),
(271,27,o),
(252,0,o),
(213,0,cs),
(77,-1,ls),
(36,-1,o),
(15,26,o),
(15,81,cs),
(15,385,l),
(109,385,l),
(109,321,l),
(170,404,l),
(170.062,406.543,o),
(170.093,409.005,o),
(170.093,411.386,cs),
(170.093,447.404,o),
(162.946,465,o),
(147,465,cs),
(16,465,l),
(16,530,l),
(194,530,ls),
(207,530,o),
(220,520,o),
(231,499,c),
(247,513,ls),
(260,524,o),
(277,530,o),
(299,530,cs),
(516,530,ls),
(560,530,o),
(576,519,o),
(576,475,cs),
(576,314,l),
(462,314,ls),
(444,314,o),
(435,306,o),
(435,291,cs),
(435,93,ls),
(435,74,o),
(447,65,o),
(471,65,cs),
(576,65,l),
(576,-130,l),
(495,-130,l),
(490,-117,o),
(482,-111,o),
(469,-111,cs),
(460,-111,o),
(448,-114,o),
(433,-121,cs),
(399,-136,ls),
(388,-141,o),
(378,-143,o),
(368,-143,cs),
(336,-143,o),
(311,-120,o),
(311,-85,cs),
(311,-36,l),
(382,-36,l),
(381,-57,o),
(387,-67,o),
(400,-67,cs)
);
},
{
closed = 1;
nodes = (
(135,69,o),
(139,65,o),
(147,65,cs),
(164,65,ls),
(172,65,o),
(176,75,o),
(176,94,cs),
(176,294,l),
(135,231,l),
(135,78,ls)
);
}
);
width = 604;
}
);
}
{
glyphname = emdash.055;
layers = (
{
layerId = m001;
shapes = (
{
closed = 1;
nodes = (
(20,573,o),
(50,640,o),
(120,640,cs),
(380,640,ls),
(440,640,o),
(461,625,o),
(461,565,cs),
(461,352,l),
(376,352,ls),
(354,352,o),
(343,344,o),
(343,329,cs),
(343,124,ls),
(343,101,o),
(359,88,o),
(392,88,cs),
(475,88,ls),
(508,88,o),
(524,102,o),
(524,131,cs),
(524,663,ls),
(524,690,o),
(505,704,o),
(465,704,cs),
(256,704,ls),
(203,704,o),
(177,724,o),
(177,765,cs),
(177,875,ls),
(177,906,o),
(208,936,o),
(253,936,cs),
(682,936,l),
(682,848,l),
(385,848,ls),
(347,848,o),
(343,845,o),
(343,823,cs),
(343,803,o),
(347,799,o),
(386,799,cs),
(567,799,ls),
(640,799,o),
(690,759,o),
(690,690,cs),
(690,122,ls),
(690,39,o),
(659,-1,o),
(596,-1,cs),
(279,-1,ls),
(210,-1,o),
(176,44,o),
(176,132,cs),
(176,339,ls),
(176,395,o),
(211,444,o),
(264,444,cs),
(321,444,l),
(321,525,ls),
(321,543,o),
(309,551,o),
(283,551,cs),
(142,551,ls),
(124,551,o),
(106,529,o),
(106,508,cs),
(106,0,l),
(20,0,l),
(20,529,ls)
);
}
);
width = 721;
}
);
}
{
glyphname = emdash.057;
layers = (
{
layerId = m001;
shapes = (
{
closed = 1;
nodes = (
(20,335,ls),
(20,391,o),
(56,440,o),
(109,440,cs),
(166,440,l),
(166,494,ls),
(166,512,o),
(154,520,o),
(128,520,cs),
(29,520,l),
(29,614,l),
(225,614,ls),
(284,614,o),
(306,599,o),
(306,539,cs),
(306,339,l),
(220,339,ls),
(199,339,o),
(188,331,o),
(188,316,cs),
(188,124,ls),
(188,101,o),
(204,88,o),
(237,88,cs),
(320,88,ls),
(352,88,o),
(369,102,o),
(369,131,cs),
(369,558,l),
(344,562,l),
(337,565,o),
(332,570,o),
(328,580,cs),
(293,667,l),
(127,667,ls),
(68,667,o),
(39,693,o),
(39,746,cs),
(39,927,ls),
(39,987,o),
(69,1017,o),
(129,1017,cs),
(468,1017,ls),
(499,1017,o),
(516,1003,o),
(516,977,cs),
(516,923,ls),
(516,897,o),
(502,885,o),
(475,885,cs),
(265,885,ls),
(244,885,o),
(233,894,o),
(233,914,cs),
(233,950,l),
(196,950,ls),
(176,950,o),
(165,939,o),
(165,919,cs),
(165,784,ls),
(165,757,o),
(173,743,o),
(189,743,cs),
(261,743,l),
(256,758,o),
(252,774,o),
(250,789,c),
(200,789,l),
(200,879,l),
(412,879,ls),
(483,879,o),
(535,840,o),
(535,770,cs),
(535,122,ls),
(535,39,o),
(503,-1,o),
(441,-1,cs),
(124,-1,ls),
(54,-1,o),
(20,44,o),
(20,132,cs)
);
},
{
closed = 1;
nodes = (
(378,634,l),
(378,762,ls),
(378,780,o),
(369,789,o),
(351,789,cs),
(316,789,l)
);
},
{
closed = 1;
nodes = (
(314,924,o),
(321,919,o),
(336,919,cs),
(384,919,ls),
(399,919,o),
(406,925,o),
(406,938,cs),
(406,943,ls),
(406,954,o),
(397,959,o),
(382,959,cs),
(335,959,ls),
(321,959,o),
(314,954,o),
(314,943,cs),
(314,936,ls)
);
}
);
width = 570;
}
);
}
{
glyphname = emdash.060;
layers = (
{
layerId = m001;
shapes = (
{
closed = 1;
nodes = (
(193,-46,l),
(193,-76,ls),
(193,-91,o),
(201,-99,o),
(219,-99,cs),
(373,-99,ls),
(391,-99,o),
(400,-91,o),
(400,-73,cs),
(400,-16,l),
(569,-16,l),
(569,-120,ls),
(569,-154,o),
(529,-186,o),
(486,-186,cs),
(91,-186,ls),
(53,-186,o),
(27,-156,o),
(27,-118,cs),
(27,-46,l)
);
},
{
closed = 1;
nodes = (
(67,442,l),
(41,425,o),
(27,400,o),
(27,371,cs),
(27,112,ls),
(27,37,o),
(54,0,o),
(109,0,cs),
(280,0,ls),
(336,0,o),
(363,38,o),
(363,114,cs),
(363,595,ls),
(363,621,o),
(369,633,o),
(380,633,cs),
(392,633,ls),
(399,633,o),
(403,622,o),
(403,599,cs),
(403,0,l),
(569,0,l),
(569,621,ls),
(569,687,o),
(538,721,o),
(475,721,cs),
(340,721,ls),
(279,721,o),
(248,680,o),
(248,597,cs),
(248,129,ls),
(248,102,o),
(242,88,o),
(230,88,cs),
(210,88,ls),
(197,88,o),
(192,101,o),
(192,124,cs),
(192,381,ls),
(192,423,o),
(199,445,o),
(214,445,cs),
(220,445,l),
(220,641,ls),
(220,694,o),
(196,721,o),
(147,721,cs),
(30,721,l),
(30,633,l),
(84,633,ls),
(106,633,o),
(117,626,o),
(117,612,cs),
(117,529,l),
(3,529,l),
(3,442,l)
);
},
{
closed = 1;
nodes = (
(522,878,o),
(569,875,o),
(569,819,cs),
(569,770,ls),
(569,742,o),
(548,728,o),
(506,728,cs),
(346,728,ls),
(323,728,o),
(312,740,o),
(312,766,cs),
(312,810,l),
(253,810,ls),
(210,810,o),
(188,803,o),
(188,789,cs),
(188,739,l),
(27,739,l),
(27,796,ls),
(27,851,o),
(61,878,o),
(128,878,cs),
(472,878,ls)
);
},
{
closed = 1;
nodes = (
(389,770,o),
(393,767,o),
(403,767,cs),
(475,767,ls),
(484,767,o),
(489,770,o),
(489,777,cs),
(489,800,ls),
(489,807,o),
(484,811,o),
(475,811,cs),
(400,811,ls),
(393,811,o),
(389,807,o),
(389,799,cs),
(389,777,ls)
);
}
);
width = 602;
}
);
}
{
glyphname = emdash.062;
layers = (
{
layerId = m001;
shapes = (
{
closed = 1;
nodes = (
(15,448,ls),
(15,489,o),
(41,525,o),
(80,525,cs),
(165,525,ls),
(200,525,o),
(218,513,o),
(218,488,cs),
(218,381,ls),
(218,363,o),
(223,354,o),
(232,354,cs),
(239,354,o),
(243,364,o),
(243,385,cs),
(243,519,l),
(291,519,l),
(291,333,ls),
(291,322,o),
(278,310,o),
(266,310,cs),
(192,310,ls),
(176,310,o),
(168,318,o),
(168,334,cs),
(168,436,ls),
(168,460.151,o),
(138,460.382,o),
(138,434,cs),
(138,91,ls),
(138,74,o),
(144,65,o),
(155,65,cs),
(174,65,o),
(183,69,o),
(183,78,cs),
(183,89,o),
(160,110,o),
(160,123,cs),
(160,238,ls),
(160,261,o),
(171,272,o),
(192,272,cs),
(260,272,ls),
(283,272,o),
(294,261,o),
(294,238,cs),
(294,123,ls),
(294,111,o),
(272,89,o),
(272,78,cs),
(272,69,o),
(282,65,o),
(301,65,cs),
(312,65,o),
(317,75,o),
(317,96,cs),
(317,527,ls),
(317,560,o),
(303,576,o),
(275,576,cs),
(15,576,l),
(15,646,l),
(349,646,ls),
(401,646,o),
(439,617,o),
(439,566,cs),
(439,90,ls),
(439,30,o),
(416,0,o),
(370,0,cs),
(276,0,ls),
(261,0,o),
(235,26,o),
(235,46,cs),
(235,92,ls),
(235,97,o),
(245,107,o),
(245,119,cs),
(245,180,ls),
(245,188,o),
(242,192,o),
(236,192,cs),
(222,192,ls),
(215,192,o),
(212,187,o),
(212,178,cs),
(212,119,ls),
(212,107,o),
(220,97,o),
(220,92,cs),
(220,46,ls),
(220,26,o),
(201,0,o),
(188,0,cs),
(91,0,ls),
(40,0,o),
(15,32,o),
(15,97,cs)
);
},
{
closed = 1;
nodes = (
(137,-34,l),
(137,-56,ls),
(137,-67,o),
(143,-73,o),
(156,-73,cs),
(295,-73,ls),
(308,-73,o),
(315,-67,o),
(315,-54,cs),
(315,-12,l),
(439,-12,l),
(439,-88,ls),
(439,-113,o),
(410,-137,o),
(378,-137,cs),
(62,-137,ls),
(34,-137,o),
(15,-115,o),
(15,-87,cs),
(15,-34,l)
);
}
);
width = 463;
}
);
}
{
glyphname = emdash.063;
layers = (
{
layerId = m001;
shapes = (
{
closed = 1;
nodes = (
(138,80.786,o),
(140.085,64.942,o),
(153.022,64.942,cs),
(161.378,64.942,o),
(166,76.924,o),
(166,100,cs),
(166,276,l),
(260,276,l),
(260,102,ls),
(260,77,o),
(265,65,o),
(275,65,cs),
(283,65,o),
(287,75,o),
(287,94,cs),
(287,291,ls),
(287,316,o),
(280,328,o),
(265,328,cs),
(177,328,l),
(177,468,ls),
(177,509,o),
(197,530,o),
(236,530,cs),
(408,530,l),
(408,465,l),
(311,465,ls),
(298,465,o),
(292,460,o),
(292,451,cs),
(292,395,l),
(351,395,ls),
(391,395,o),
(411,363,o),
(411,300,cs),
(411,-130,l),
(306,-130,l),
(301,-113,o),
(285,-104,o),
(258,-104,cs),
(250,-104,o),
(243,-105,o),
(236,-107,cs),
(107,-142,ls),
(100,-144,o),
(92,-145,o),
(84,-145,cs),
(47,-145,o),
(15,-121,o),
(15,-85,cs),
(15,-36,l),
(116,-36,l),
(115,-53,o),
(119,-61,o),
(130,-61,cs),
(137,-61,o),
(149,-59,o),
(167,-54,cs),
(224,-39,ls),
(235,-36,o),
(245,-34,o),
(255,-34,cs),
(274,-34,o),
(286,-39,o),
(290,-49,c),
(290,-1,l),
(252,0,ls),
(237,0,o),
(225,11,o),
(216,33,c),
(206,11,o),
(194,0,o),
(181,0,cs),
(83,0,ls),
(38,0,o),
(15,28,o),
(15,85,cs),
(15,530,l),
(138,530,l),
(138,91,ls)
);
}
);
width = 433;
}
);
}
{
glyphname = emdash.064;
layers = (
{
layerId = m001;
shapes = (
{
closed = 1;
nodes = (
(188,103,o),
(196,88,o),
(235,88,cs),
(329,88,ls),
(355,88,o),
(369,101,o),
(369,127,cs),
(369,592,ls),
(369,619,o),
(348,633,o),
(308,633,cs),
(227,633,ls),
(211,633,o),
(188,621,o),
(188,600,cs),
(188,121,ls)
);
},
{
closed = 1;
nodes = (
(20,615,ls),
(20,638,o),
(25,661,o),
(41,676,cs),
(113,749,o),
(190,817,o),
(264,887,c),
(444,887,l),
(286,721,l),
(412,721,ls),
(483,721,o),
(535,682,o),
(535,612,cs),
(535,122,ls),
(535,39,o),
(503,-1,o),
(441,-1,cs),
(124,-1,ls),
(54,-1,o),
(20,44,o),
(20,132,cs)
);
},
{
closed = 1;
nodes = (
(459,887,l),
(816,887,l),
(816,807,l),
(735,729,l),
(819,729,l),
(819,664,l),
(759,588,ls),
(746,570,o),
(739,535,o),
(739,482,cs),
(739,117,ls),
(739,98,o),
(750,88,o),
(770,88,cs),
(816,88,l),
(816,-1,l),
(650,-1,ls),
(600,-1,o),
(576,24,o),
(576,75,cs),
(576,460,ls),
(576,508,o),
(585,540,o),
(603,559,cs),
(689,650,l),
(580,650,l),
(580,724,l),
(670,799,l),
(459,799,l)
);
}
);
width = 853;
}
);
}
{
glyphname = emdash.065;
layers = (
{
layerId = m001;
shapes = (
{
closed = 1;
nodes = (
(397,-84,l),
(397,19,l),
(143,19,ls),
(72,19,o),
(20,59,o),
(20,128,cs),
(20,597,ls),
(20,680,o),
(52,721,o),
(114,721,cs),
(459,721,ls),
(528,721,o),
(562,676,o),
(562,588,cs),
(562,288,ls),
(562,233,o),
(527,184,o),
(474,184,cs),
(305,184,ls),
(252,184,o),
(226,219,o),
(226,291,cs),
(226,531,l),
(352,531,l),
(352,331,ls),
(352,301,o),
(361,286,o),
(377,286,cs),
(389,286,o),
(395,298,o),
(395,321,cs),
(395,610,ls),
(395,625,o),
(381,633,o),
(354,633,cs),
(222,633,ls),
(199,633,o),
(186,623,o),
(186,606,cs),
(186,155,ls),
(186,128,o),
(205,114,o),
(245,114,cs),
(562,114,l),
(562,-177,l),
(20,-177,l),
(20,-84,l)
);
}
);
width = 594;
}
);
}
{
glyphname = emdash.066;
layers = (
{
layerId = m001;
shapes = (
{
closed = 1;
nodes = (
(116,-36,l),
(115,-53,o),
(119,-61,o),
(130,-61,cs),
(137,-61,o),
(147,-59,o),
(160,-54,cs),
(206,-39,ls),
(217,-36,o),
(227,-34,o),
(237,-34,cs),
(256,-34,o),
(268,-39,o),
(272,-49,c),
(272,-1,l),
(91,-1,ls),
(40,-1,o),
(15,32,o),
(15,97,cs),
(15,304,ls),
(15,345,o),
(41,381,o),
(80,381,cs),
(122,381,l),
(122,441,ls),
(122,454,o),
(113,460,o),
(94,460,cs),
(21,460,l),
(21,525,l),
(165,525,ls),
(209,525,o),
(225,514,o),
(225,470,cs),
(225,314,l),
(162,314,ls),
(146,314,o),
(138,308,o),
(138,297,cs),
(138,91,ls),
(138,74,o),
(150,65,o),
(174,65,cs),
(235,65,ls),
(259,65,o),
(271,75,o),
(271,96,cs),
(271,547,ls),
(271,570,o),
(257,581,o),
(228,581,cs),
(15,581,l),
(15,646,l),
(303,646,ls),
(355,646,o),
(393,617,o),
(393,566,cs),
(393,-130,l),
(288,-130,l),
(283,-113,o),
(267,-104,o),
(240,-104,cs),
(232,-104,o),
(225,-105,o),
(218,-107,cs),
(107,-142,ls),
(100,-144,o),
(92,-145,o),
(84,-145,cs),
(47,-145,o),
(15,-121,o),
(15,-85,cs),
(15,-36,l)
);
}
);
width = 417;
}
);
}
